<?xml version="1.0" encoding="UTF-8" standalone="no"?>
<svg width="31px" height="30px" viewBox="0 0 31 30" version="1.1" xmlns="http://www.w3.org/2000/svg" xmlns:xlink="http://www.w3.org/1999/xlink" xmlns:sketch="http://www.bohemiancoding.com/sketch/ns">
    <!-- Generator: Sketch 3.1.1 (8761) - http://www.bohemiancoding.com/sketch -->
    <title>Rectangle 4 + Line 2 + Line 17</title>
    <desc>Created with Sketch.</desc>
    <defs></defs>
    <g id="standard-timeline" stroke="none" stroke-width="1" fill="none" fill-rule="evenodd" sketch:type="MSPage">
        <g id="Rectangle-4-+-Line-2-+-Line-17" sketch:type="MSLayerGroup" transform="translate(0.094194, 0.000000)" fill="#BD0FE1">
            <rect id="Rectangle-4" sketch:type="MSShapeGroup" x="0" y="0" width="30" height="30" rx="40"></rect>
        </g>
        <path d="M21.5,15.5 C21.5,15.7812514 21.4036468,16.0182282 21.2109375,16.2109375 L16.125,21.296875 C15.921874,21.4895843 15.6848972,21.5859375 15.4140625,21.5859375 C15.1484362,21.5859375 14.9140635,21.4895843 14.7109375,21.296875 L14.125,20.7109375 C13.9270823,20.5130198 13.828125,20.276043 13.828125,20 C13.828125,19.723957 13.9270823,19.4869802 14.125,19.2890625 L16.4140625,17 L10.9140625,17 C10.6432278,17 10.4231779,16.9023447 10.2539062,16.7070312 C10.0846346,16.5117178 10,16.276043 10,16 L10,15 C10,14.723957 10.0846346,14.4882822 10.2539062,14.2929688 C10.4231779,14.0976553 10.6432278,14 10.9140625,14 L16.4140625,14 L14.125,11.703125 C13.9270823,11.5156241 13.828125,11.2812514 13.828125,11 C13.828125,10.7187486 13.9270823,10.4843759 14.125,10.296875 L14.7109375,9.7109375 C14.9088552,9.51301984 15.1432278,9.4140625 15.4140625,9.4140625 C15.6901055,9.4140625 15.9270823,9.51301984 16.125,9.7109375 L21.2109375,14.796875 C21.4036468,14.9791676 21.5,15.2135402 21.5,15.5 L21.5,15.5 Z" id="ï¡" fill="#FFFFFF" sketch:type="MSShapeGroup"></path>
    </g>
</svg>