<?xml version="1.0" encoding="UTF-8" standalone="no"?>
<svg width="206px" height="135px" viewBox="0 0 206 135" version="1.1" xmlns="http://www.w3.org/2000/svg" xmlns:xlink="http://www.w3.org/1999/xlink">
    <!-- Generator: Sketch 39.1 (31720) - http://www.bohemiancoding.com/sketch -->
    <title>Icon</title>
    <desc>Created with Sketch.</desc>
    <defs></defs>
    <g id="Page-1" stroke="none" stroke-width="1" fill="none" fill-rule="evenodd" opacity="0.100000001">
        <g id="Desktop" transform="translate(-398.000000, -2087.000000)" fill="#013A47">
            <g id="Icon" transform="translate(398.000000, 2087.000000)">
                <path d="M199.094565,12.8427372 C168.260603,12.8427372 141.629928,31.1721898 129.39067,57.5287226 C135.702746,53.6590511 143.114804,51.4266241 151.038411,51.4266241 C174.002483,51.4266241 192.712014,70.1684672 192.712014,93.2115876 C192.712014,116.255201 174.002483,134.998029 151.038411,134.998029 C128.07434,134.998029 109.395856,116.255201 109.395856,93.2115876 C109.395856,92.3922263 109.425919,91.5792701 109.472244,90.7702555 C109.442675,90.5175 109.395856,90.2696715 109.395856,90.0095255 C109.395856,40.3753467 149.630416,0.00640510949 199.094565,0.00640510949 C202.660632,0.00640510949 205.508163,2.85963504 205.508163,6.40313869 C205.508163,9.99 202.660632,12.8427372 199.094565,12.8427372 L199.094565,12.8427372 Z M90.18611,12.8427372 C59.3422919,12.8427372 32.6884545,31.1840146 20.4457464,57.5538504 C26.7657081,53.6693978 34.1905789,51.4266241 42.1294641,51.4266241 C65.0935359,51.4266241 83.7720191,70.1684672 83.7720191,93.2115876 C83.7720191,116.255201 65.0935359,134.998029 42.1294641,134.998029 C19.1693349,134.998029 0.491837321,116.255201 0.491837321,93.2115876 C0.491837321,92.3937044 0.521899522,91.582719 0.56822488,90.7751825 C0.537669856,90.5214416 0.491837321,90.2716423 0.491837321,90.0095255 C0.491837321,40.3753467 40.7224545,0.00640510949 90.18611,0.00640510949 C93.721622,0.00640510949 96.6036507,2.85963504 96.6036507,6.40313869 C96.6036507,9.99 93.721622,12.8427372 90.18611,12.8427372 L90.18611,12.8427372 Z" id="Shape"></path>
            </g>
        </g>
    </g>
</svg>