<?xml version="1.0" encoding="UTF-8" standalone="no"?>
<svg width="30px" height="30px" viewBox="0 0 30 30" version="1.1" xmlns="http://www.w3.org/2000/svg" xmlns:xlink="http://www.w3.org/1999/xlink" xmlns:sketch="http://www.bohemiancoding.com/sketch/ns">
    <!-- Generator: Sketch 3.1.1 (8761) - http://www.bohemiancoding.com/sketch -->
    <title>Rectangle 4</title>
    <desc>Created with Sketch.</desc>
    <defs></defs>
    <g id="standard-timeline" stroke="none" stroke-width="1" fill="none" fill-rule="evenodd" sketch:type="MSPage">
        <rect id="Rectangle-4" fill="#0091EA" sketch:type="MSShapeGroup" x="0" y="0" width="30" height="30" rx="40"></rect>
        <path d="M22.0486633,9.71428571 C22.2867598,9.71428571 22.4891387,9.79761821 22.6558062,9.96428571 C22.8224737,10.1309532 22.9058062,10.3333321 22.9058062,10.5714286 L22.9058062,21.4285714 C22.9058062,21.6666679 22.8224737,21.8690468 22.6558062,22.0357143 C22.4891387,22.2023818 22.2867598,22.2857143 22.0486633,22.2857143 L13.4772348,22.2857143 C13.2391383,22.2857143 13.0367594,22.2023818 12.8700919,22.0357143 C12.7034244,21.8690468 12.6200919,21.6666679 12.6200919,21.4285714 L12.6200919,18.8571429 L7.76294905,18.8571429 C7.52485262,18.8571429 7.32247369,18.7738104 7.15580619,18.6071429 C6.98913869,18.4404754 6.90580619,18.2380964 6.90580619,18 L6.90580619,12 C6.90580619,11.7619036 6.9653294,11.5000014 7.08437762,11.2142857 C7.20342583,10.92857 7.34628155,10.7023818 7.51294905,10.5357143 L11.1558062,6.89285714 C11.3224737,6.72618964 11.5486619,6.58333393 11.8343776,6.46428571 C12.1200933,6.3452375 12.3819955,6.28571429 12.6200919,6.28571429 L16.3343776,6.28571429 C16.572474,6.28571429 16.774853,6.36904679 16.9415205,6.53571429 C17.108188,6.70238179 17.1915205,6.90476071 17.1915205,7.14285714 L17.1915205,10.0714286 C17.5962844,9.83333214 17.977233,9.71428571 18.3343776,9.71428571 L22.0486633,9.71428571 Z M17.1915205,11.6160714 L14.5218776,14.2857143 L17.1915205,14.2857143 L17.1915205,11.6160714 Z M11.4772348,8.1875 L8.8075919,10.8571429 L11.4772348,10.8571429 L11.4772348,8.1875 Z M13.2272348,13.9642857 L16.0486633,11.1428571 L16.0486633,7.42857143 L12.6200919,7.42857143 L12.6200919,11.1428571 C12.6200919,11.3809536 12.5367594,11.5833325 12.3700919,11.75 C12.2034244,11.9166675 12.0010455,12 11.762949,12 L8.04866333,12 L8.04866333,17.7142857 L12.6200919,17.7142857 L12.6200919,15.4285714 C12.6200919,15.190475 12.6796151,14.9285729 12.7986633,14.6428571 C12.9177115,14.3571414 13.0605673,14.1309532 13.2272348,13.9642857 L13.2272348,13.9642857 Z M21.762949,21.1428571 L21.762949,10.8571429 L18.3343776,10.8571429 L18.3343776,14.5714286 C18.3343776,14.809525 18.2510451,15.0119039 18.0843776,15.1785714 C17.9177101,15.3452389 17.7153312,15.4285714 17.4772348,15.4285714 L13.762949,15.4285714 L13.762949,21.1428571 L21.762949,21.1428571 Z" id="-2" fill="#FFFFFF" sketch:type="MSShapeGroup"></path>
    </g>
</svg>