<?xml version="1.0" encoding="UTF-8" standalone="no"?>
<svg width="30px" height="30px" viewBox="0 0 30 30" version="1.1" xmlns="http://www.w3.org/2000/svg" xmlns:xlink="http://www.w3.org/1999/xlink" xmlns:sketch="http://www.bohemiancoding.com/sketch/ns">
    <!-- Generator: Sketch 3.1.1 (8761) - http://www.bohemiancoding.com/sketch -->
    <title>Rectangle 4 + Line 2 + Line 17</title>
    <desc>Created with Sketch.</desc>
    <defs></defs>
    <g id="standard-timeline" stroke="none" stroke-width="1" fill="none" fill-rule="evenodd" sketch:type="MSPage">
        <g id="Rectangle-4-+-Line-2-+-Line-17" sketch:type="MSLayerGroup" fill="#BD0FE1">
            <rect id="Rectangle-4" sketch:type="MSShapeGroup" x="0" y="0" width="30" height="30" rx="40"></rect>
        </g>
        <path d="M20.3035714,18.0892857 C20.3035714,18.3273821 20.2202389,18.5297611 20.0535714,18.6964286 L18.8392857,19.9107143 C18.6726182,20.0773818 18.4702393,20.1607143 18.2321429,20.1607143 C17.9940464,20.1607143 17.7916675,20.0773818 17.625,19.9107143 L15,17.2857143 L12.375,19.9107143 C12.2083325,20.0773818 12.0059536,20.1607143 11.7678571,20.1607143 C11.5297607,20.1607143 11.3273818,20.0773818 11.1607143,19.9107143 L9.94642857,18.6964286 C9.77976107,18.5297611 9.69642857,18.3273821 9.69642857,18.0892857 C9.69642857,17.8511893 9.77976107,17.6488104 9.94642857,17.4821429 L12.5714286,14.8571429 L9.94642857,12.2321429 C9.77976107,12.0654754 9.69642857,11.8630964 9.69642857,11.625 C9.69642857,11.3869036 9.77976107,11.1845246 9.94642857,11.0178571 L11.1607143,9.80357143 C11.3273818,9.63690393 11.5297607,9.55357143 11.7678571,9.55357143 C12.0059536,9.55357143 12.2083325,9.63690393 12.375,9.80357143 L15,12.4285714 L17.625,9.80357143 C17.7916675,9.63690393 17.9940464,9.55357143 18.2321429,9.55357143 C18.4702393,9.55357143 18.6726182,9.63690393 18.8392857,9.80357143 L20.0535714,11.0178571 C20.2202389,11.1845246 20.3035714,11.3869036 20.3035714,11.625 C20.3035714,11.8630964 20.2202389,12.0654754 20.0535714,12.2321429 L17.4285714,14.8571429 L20.0535714,17.4821429 C20.2202389,17.6488104 20.3035714,17.8511893 20.3035714,18.0892857 L20.3035714,18.0892857 Z" id="ï€" fill="#FFFFFF" sketch:type="MSShapeGroup"></path>
    </g>
</svg>