<?xml version="1.0" encoding="UTF-8"?>
<svg width="194px" height="115px" viewBox="0 0 194 115" version="1.1" xmlns="http://www.w3.org/2000/svg" xmlns:xlink="http://www.w3.org/1999/xlink">
    <!-- Generator: Sketch 40.3 (33839) - http://www.bohemiancoding.com/sketch -->
    <title>Artboard</title>
    <desc>Created with Sketch.</desc>
    <defs></defs>
    <g id="Page-1" stroke="none" stroke-width="1" fill="none" fill-rule="evenodd">
        <g id="Artboard" fill="#FFFFFF">
            <g id="Group-2" transform="translate(29.000000, 3.000000)">
                <path d="M65.0932081,42.812 L65.0932081,40.5027095 C65.0932081,32.8924838 63.9887042,27.077742 61.86398,23.2302258 C58.5497626,17.3299678 52.940843,15.3634516 45.207552,15.3634516 C32.2052972,15.3634516 24.2170392,22.9736774 24.2170392,39.0496453 C24.2170392,53.8425161 31.5253853,61.7092904 47.0769568,61.7092904 C55.0652147,61.7092904 60.2491894,60.4265483 63.5634068,59.3148387 L63.5634068,47.7715808 C59.9938698,49.3108709 54.8102479,50.4222259 50.051218,50.4222259 C44.1023426,50.4222259 39.5986325,48.8832903 39.0037097,42.8123549 L65.0932081,42.8123549 L65.0932081,42.812 L65.0932081,42.812 L65.0932081,42.812 Z M39.1736875,33.8328065 C39.2586766,27.6767096 41.8083458,25.6239678 45.1225629,25.6239678 C48.7767361,25.6239678 50.9014603,26.7360322 50.9864494,33.8328065 L39.1736875,33.8328065 L39.1736875,33.8328065 L39.1736875,33.8328065 L39.1736875,33.8328065 Z M70.5321499,34.2607419 L70.5321499,36.5693226 C70.5321499,44.1795483 71.4666757,50.4218708 73.5914002,54.2697419 C76.90597,60.1699999 83.2794377,61.7092904 90.6731255,61.7092904 C103.759664,61.7092904 111.408671,54.0990645 111.408671,37.1679354 C111.408671,23.2302258 104.100325,15.3634516 89.228313,15.3634516 C84.8095917,15.3634516 77.9258377,16.0475806 73.5071163,17.8434194 L73.5071163,28.8739356 C77.075948,27.5911936 80.8154627,26.6505162 85.5744925,26.6505162 C91.5230152,26.6505162 96.0270783,28.1898063 96.6220011,34.2607419 L70.5321499,34.2607419 L70.5321499,34.2607419 L70.5321499,34.2607419 L70.5321499,34.2607419 Z M96.4516703,43.238871 C96.3666812,49.3960323 93.8170122,51.4484193 90.502795,51.4484193 C86.8486217,51.4484193 84.7238975,50.336355 84.6392612,43.238871 L96.4516703,43.238871 L96.4516703,43.238871 L96.4516703,43.238871 L96.4516703,43.238871 Z" id="Shape"></path>
                <path d="M133.418699,40.3316775 C135.628765,13.653129 135.798391,0.655741935 135.798391,0.22816129 L118.122448,0.22816129 C118.122448,0.655387097 118.207084,13.4817419 120.501786,40.3316775 L133.418699,40.3316775 L133.418699,40.3316775 L133.418699,40.3316775 L133.418699,40.3316775 Z M134.438567,60.5975806 L134.438567,45.7184839 L119.566202,45.7184839 L119.566202,60.5975806 L134.438567,60.5975806 L134.438567,60.5975806 L134.438567,60.5975806 L134.438567,60.5975806 Z M2.97155936,36.8262259 C0.762198723,63.5047741 0.592220785,76.5014515 0.592220785,76.9297419 L18.2685164,76.9297419 C18.2685164,76.5014515 18.1835274,63.6758065 15.8888252,36.8262259 L2.97155936,36.8262259 L2.97155936,36.8262259 L2.97155936,36.8262259 L2.97155936,36.8262259 Z M1.95204434,16.5603227 L1.95204434,31.4387098 L16.8240565,31.4387098 L16.8240565,16.5603227 L1.95204434,16.5603227 L1.95204434,16.5603227 L1.95204434,16.5603227 L1.95204434,16.5603227 Z" id="Shape"></path>
            </g>
            <g id="Group" transform="translate(5.000000, 88.000000)">
                <path d="M4.105016,12.2093871 C4.26653546,13.8515715 5.48971564,14.2669908 7.10555892,14.2669908 C8.39793082,14.2669908 9.80598266,13.9665806 10.7750994,13.5505115 L10.7750994,16.6715715 C9.87495817,16.9717649 8.46733878,17.3196083 6.29774538,17.3196083 C2.07402231,17.3196083 0.0888681369,15.1920461 0.0888681369,11.1924977 C0.0888681369,6.84618894 2.25846153,4.78836866 5.78983479,4.78836866 C7.89023646,4.78836866 9.41375201,5.3196636 10.3138933,6.9152811 C10.8909956,7.95534563 11.1906823,9.52778802 11.1906823,11.5853917 L11.1906823,12.2093871 L4.105016,12.2093871 L4.105016,12.2093871 L4.105016,12.2093871 L4.105016,12.2093871 Z M7.35940609,9.78206452 C7.33627011,7.86372811 6.75916778,7.56266821 5.76691503,7.56266821 C4.86634133,7.56266821 4.17399152,8.11800461 4.15107175,9.78206452 L7.35940609,9.78206452 L7.35940609,9.78206452 L7.35940609,9.78206452 L7.35940609,9.78206452 Z" id="Shape"></path>
                <path d="M16.5921784,14.2903825 C17.6309195,14.2903825 17.9079026,13.8974885 17.9079026,13.4812028 C17.9079026,13.0651336 17.7230309,12.8340322 16.9383533,12.5795391 L15.7151732,12.1866452 C14.1226821,11.6778756 13.0147494,10.776212 13.0147494,8.78770046 C13.0147494,6.15201843 14.7458402,4.78815207 18.3464052,4.78815207 C19.4314182,4.78815207 20.5159986,4.9499447 21.4621956,5.18104609 L21.4621956,8.25618894 C20.2852874,7.88603687 19.2002744,7.72402766 18.161966,7.72402766 C17.4462639,7.72402766 17.0079776,8.00169585 17.0079776,8.46389861 C17.0079776,8.97266821 17.2386887,9.13446083 18.0002303,9.38895391 L19.0623235,9.75845622 C21.0703974,10.4524101 21.9934584,11.330682 21.9934584,13.2039678 C21.9934584,15.7003825 20.5624868,17.3193917 16.4540112,17.3193917 C15.4384062,17.3193917 13.961379,17.1108157 12.830094,16.7872304 L12.830094,13.5968618 C14.1916577,14.1060645 15.6689013,14.2903825 16.5921784,14.2903825 L16.5921784,14.2903825 L16.5921784,14.2903825 L16.5921784,14.2903825 Z" id="Shape"></path>
                <path d="M23.9548279,21.8972351 L23.9548279,9.45847927 C23.9548279,8.25640554 23.9319081,6.63826267 23.8162283,5.11217051 L27.8094563,5.11217051 C27.8788643,5.62094009 27.901784,6.10631797 27.901784,6.17562673 C28.547862,5.43575576 29.817314,4.76519355 31.3179098,4.76519355 C34.1798531,4.76519355 35.6570966,6.63847927 35.6570966,11.00753 C35.6570966,15.840083 33.7415666,17.2498664 30.8562713,17.2498664 C29.7022828,17.2498664 28.7095975,16.9962397 27.948056,16.3482028 L27.948056,21.8972351 L23.9548279,21.8972351 L23.9548279,21.8972351 L23.9548279,21.8972351 L23.9548279,21.8972351 Z M28.4326144,13.990189 C28.7095975,14.3137742 29.1712362,14.4989585 29.7020666,14.4989585 C30.7408075,14.4989585 31.571757,13.990189 31.571757,11.1000138 C31.571757,8.32571428 30.8099993,7.63197696 29.817314,7.63197696 C29.2172919,7.63197696 28.7093813,7.86372811 28.4555341,8.16327189 C28.0633035,8.62612442 27.948056,9.41256221 27.948056,11.00753 C27.9478397,12.8106406 28.0862233,13.5739033 28.4326144,13.990189 L28.4326144,13.990189 L28.4326144,13.990189 L28.4326144,13.990189 Z" id="Shape"></path>
                <path d="M38.3350331,5.55163134 C39.4658854,5.15873733 41.0815125,4.78836866 42.6973558,4.78836866 C44.3127667,4.78836866 45.6518429,5.06538709 46.4131683,5.59754839 C47.4058534,6.29085254 47.9364676,7.19251613 47.9364676,9.59774654 L47.9364676,14.3362996 C47.9364676,15.1920461 48.0287953,16.324811 48.2824263,17.0187649 L44.3821747,17.0187649 C44.2435749,16.6258709 44.1281112,16.0937097 44.1049752,15.7008157 C43.3434336,16.8335806 42.4201565,17.2496497 40.919993,17.2496497 C38.5888803,17.2496497 37.1116366,15.6548987 37.1116366,13.434636 C37.1116366,11.3077235 38.0807534,9.50439631 42.8126033,9.50439631 C43.1819141,9.50439631 43.6435528,9.52778802 43.9434557,9.55096313 L43.9434557,9.27329493 C43.9434557,8.74113364 43.8282083,8.44158987 43.5512251,8.18731336 C43.2971617,7.95556221 42.7431953,7.83947005 42.1665255,7.83947005 C41.0815125,7.83947005 39.8120603,8.00212903 38.3350331,8.64929954 L38.3350331,5.55163134 L38.3350331,5.55163134 L38.3350331,5.55163134 L38.3350331,5.55163134 Z M43.9436719,11.9323687 C43.6896085,11.908977 43.4128416,11.8855853 43.2284025,11.8855853 C41.7051031,11.8855853 41.0354568,12.2091705 41.0354568,13.2269263 C41.0354568,13.9208802 41.4970954,14.4989585 42.258637,14.4989585 C42.8357393,14.4989585 43.4126254,14.2672073 43.7129608,13.8283963 C43.8974,13.5507281 43.9436719,13.1803594 43.9436719,12.7183733 L43.9436719,11.9323687 L43.9436719,11.9323687 L43.9436719,11.9323687 L43.9436719,11.9323687 Z" id="Shape"></path>
                <path d="M56.9151765,7.8169447 C55.530477,7.8169447 54.1224251,8.16327189 54.1224251,10.9841383 C54.1224251,13.8974885 55.4612852,14.2212903 57.0077206,14.2212903 C57.7923981,14.2212903 58.6002116,14.0367558 59.4311611,13.6891291 L59.4311611,16.8110554 C58.6696196,17.0412903 57.4922789,17.3198249 56.0150353,17.3198249 C51.9065598,17.3198249 50.0373017,15.3081382 50.0373017,11.1927143 C50.0373017,6.9154977 52.2531671,4.78858525 55.9689796,4.78858525 C57.4462232,4.78858525 58.3695004,4.92698618 59.3388334,5.18147927 L59.3388334,8.30253917 C58.6462674,8.02487097 57.9309978,7.8169447 56.9151765,7.8169447 L56.9151765,7.8169447 L56.9151765,7.8169447 L56.9151765,7.8169447 Z" id="Shape"></path>
                <path d="M61.4165315,3.23953457 L61.4165315,0.00238248848 L65.455383,0.00238248848 L65.455383,3.23953457 L61.4165315,3.23953457 L61.4165315,3.23953457 L61.4165315,3.23953457 L61.4165315,3.23953457 Z M61.4165315,17.0187649 L61.4165315,5.11217051 L65.455383,5.11217051 L65.455383,17.0187649 L61.4165315,17.0187649 L61.4165315,17.0187649 L61.4165315,17.0187649 L61.4165315,17.0187649 Z" id="Shape"></path>
                <path d="M73.4645426,17.3198249 C69.6561862,17.3198249 67.6483285,15.3538387 67.6483285,11.0774885 C67.6483285,6.75348848 69.8408416,4.78836866 73.6723341,4.78836866 C77.7345377,4.78836866 79.5119004,6.59169585 79.5119004,10.9613963 C79.5119004,15.3079216 77.6884819,17.3198249 73.4645426,17.3198249 L73.4645426,17.3198249 L73.4645426,17.3198249 L73.4645426,17.3198249 Z M73.6494144,7.54014285 C72.3568262,7.54014285 71.7334519,8.41754839 71.7334519,10.9841383 C71.7334519,13.6432119 72.2876345,14.5448755 73.5800064,14.5448755 C74.9880582,14.5448755 75.4496969,13.6198203 75.4496969,10.9382212 C75.4496969,8.44180645 74.9417863,7.54014285 73.6494144,7.54014285 L73.6494144,7.54014285 L73.6494144,7.54014285 L73.6494144,7.54014285 Z" id="Shape"></path>
                <path d="M84.9821559,14.2903825 C86.0204645,14.2903825 86.29788,13.8974885 86.29788,13.4812028 C86.29788,13.0651336 86.1130084,12.8340322 85.3281145,12.5795391 L84.1049345,12.1866452 C82.5124433,11.6778756 81.4045106,10.776212 81.4045106,8.78770046 C81.4045106,6.15201843 83.1356014,4.78815207 86.7361664,4.78815207 C87.8211794,4.78815207 88.9057598,4.9499447 89.8519569,5.18104609 L89.8519569,8.25618894 C88.6750487,7.88603687 87.5900357,7.72402766 86.5517272,7.72402766 C85.8360252,7.72402766 85.3977388,8.00169585 85.3977388,8.46389861 C85.3977388,8.97266821 85.6284499,9.13446083 86.3902077,9.38895391 L87.4518684,9.75845622 C89.4599424,10.4524101 90.3830034,11.330682 90.3830034,13.2039678 C90.3830034,15.7003825 88.9520318,17.3193917 84.8435562,17.3193917 C83.8279512,17.3193917 82.350924,17.1108157 81.2200714,16.7872304 L81.2200714,13.5968618 C82.5816351,14.1060645 84.0586625,14.2903825 84.9821559,14.2903825 L84.9821559,14.2903825 L84.9821559,14.2903825 L84.9821559,14.2903825 Z" id="Shape"></path>
                <path d="M97.8846851,5.55163134 C99.0155374,5.15873733 100.630948,4.78836866 102.247008,4.78836866 C103.862419,4.78836866 105.201279,5.06538709 105.962388,5.59754839 C106.955722,6.29085254 107.48612,7.19251613 107.48612,9.59774654 L107.48612,14.3362996 C107.48612,15.1920461 107.578447,16.324811 107.831646,17.0187649 L103.931178,17.0187649 C103.793011,16.6258709 103.677979,16.0937097 103.653979,15.7008157 C102.892869,16.8335806 101.969376,17.2496497 100.469645,17.2496497 C98.1380998,17.2496497 96.6610724,15.6548987 96.6610724,13.434636 C96.6610724,11.3077235 97.6304054,9.50439631 102.361607,9.50439631 C102.73135,9.50439631 103.192556,9.52778802 103.493108,9.55096313 L103.493108,9.27329493 C103.493108,8.74113364 103.377428,8.44158987 103.100877,8.18731336 C102.84703,7.95556221 102.292415,7.83947005 101.715529,7.83947005 C100.630516,7.83947005 99.3614961,8.00212903 97.8842526,8.64929954 L97.8842526,5.55163134 L97.8846851,5.55163134 L97.8846851,5.55163134 L97.8846851,5.55163134 Z M103.49354,11.9323687 C103.239477,11.908977 102.962277,11.8855853 102.778271,11.8855853 C101.254539,11.8855853 100.585109,12.2091705 100.585109,13.2269263 C100.585109,13.9208802 101.04718,14.4989585 101.808289,14.4989585 C102.385391,14.4989585 102.962277,14.2672073 103.26218,13.8283963 C103.447052,13.5507281 103.49354,13.1803594 103.49354,12.7183733 L103.49354,11.9323687 L103.49354,11.9323687 L103.49354,11.9323687 L103.49354,11.9323687 Z" id="Shape"></path>
                <path d="M110.117568,17.0187649 C110.210761,15.4231475 110.210761,14.2444654 110.210761,12.8808157 L110.210761,0.00238248848 L114.249396,0.00238248848 L114.249396,5.82843318 C115.288569,5.11195391 116.396069,4.76497696 117.572545,4.76497696 C120.388649,4.76497696 121.935084,6.47560369 121.935084,10.9148295 C121.935084,15.7467327 120.134801,17.2262581 117.01966,17.2262581 C115.957134,17.2262581 114.918826,16.8567558 114.087876,16.0934931 C114.087876,16.1634516 114.065389,16.6256543 114.018684,17.0185484 L110.117568,17.0185484 L110.117568,17.0187649 L110.117568,17.0187649 L110.117568,17.0187649 Z M114.733738,13.990189 C115.010937,14.3605576 115.42652,14.4989585 115.934431,14.4989585 C116.880411,14.4989585 117.849744,14.1285899 117.849744,11.0774885 C117.849744,8.30253917 117.042147,7.63197696 116.003622,7.63197696 C115.449007,7.63197696 115.080129,7.79376958 114.780442,8.14074654 C114.434051,8.53364055 114.20334,9.31942857 114.20334,10.9150461 C114.20334,12.6488479 114.388212,13.5279861 114.733738,13.990189 L114.733738,13.990189 L114.733738,13.990189 L114.733738,13.990189 Z" id="Shape"></path>
                <path d="M124.128894,3.23953457 L124.128894,0.00238248848 L128.167314,0.00238248848 L128.167314,3.23953457 L124.128894,3.23953457 L124.128894,3.23953457 L124.128894,3.23953457 L124.128894,3.23953457 Z M124.128894,17.0187649 L124.128894,5.11217051 L128.167314,5.11217051 L128.167314,17.0187649 L124.128894,17.0187649 L124.128894,17.0187649 L124.128894,17.0187649 L124.128894,17.0187649 Z" id="Shape"></path>
                <path d="M134.376623,12.2093871 C134.538143,13.8515715 135.761323,14.2669908 137.376733,14.2669908 C138.669106,14.2669908 140.077158,13.9665806 141.046274,13.5505115 L141.046274,16.6715715 C140.146133,16.9717649 138.738946,17.3196083 136.569569,17.3196083 C132.345413,17.3196083 130.36026,15.1920461 130.36026,11.1924977 C130.36026,6.84618894 132.530069,4.78836866 136.061658,4.78836866 C138.161627,4.78836866 139.68471,5.3196636 140.584852,6.9152811 C141.161954,7.95534563 141.462506,9.52778802 141.462506,11.5853917 L141.462506,12.2093871 L134.376623,12.2093871 L134.376623,12.2093871 L134.376623,12.2093871 L134.376623,12.2093871 Z M137.630797,9.78206452 C137.60831,7.86372811 137.031207,7.56266821 136.038739,7.56266821 C135.137732,7.56266821 134.445815,8.11800461 134.422463,9.78206452 L137.630797,9.78206452 L137.630797,9.78206452 L137.630797,9.78206452 L137.630797,9.78206452 Z" id="Shape"></path>
                <path d="M143.632532,17.0187649 L143.632532,8.99562673 C143.632532,7.88625346 143.586044,6.33741936 143.424308,5.11217051 L147.302072,5.11217051 C147.393751,5.55163134 147.486944,6.40672811 147.486944,6.59191245 C148.10902,5.31988018 149.402041,4.92698618 150.509541,4.92698618 C150.810093,4.92698618 151.133132,4.95037788 151.572067,5.04286175 L151.572067,8.39502304 C150.971613,8.20983872 150.371374,8.14074654 149.840976,8.14074654 C149.194034,8.14074654 148.478764,8.30253917 148.133022,8.71882488 C147.740142,9.20420276 147.647599,9.7588894 147.647599,11.4010737 L147.647599,17.0187649 L143.632532,17.0187649 L143.632532,17.0187649 L143.632532,17.0187649 L143.632532,17.0187649 Z" id="Shape"></path>
                <path d="M157.45769,17.2730415 C156.441868,17.2730415 155.634055,17.0412903 155.080305,16.6256543 C154.364386,16.0934931 153.948804,15.1918295 153.948804,12.9958249 L153.948804,7.72446083 L152.380097,7.72446083 L152.380097,5.11217051 L153.972156,5.11217051 C153.972156,5.11217051 153.972156,5.08877881 154.157028,1.87501843 L157.9656,1.87501843 L157.9656,5.11217051 L160.111408,5.11217051 L160.111408,7.72446083 L157.9656,7.72446083 L157.9656,12.5570139 C157.9656,13.1342258 158.057279,13.4812028 158.218798,13.7123042 C158.40367,13.9667972 158.750061,14.0818064 159.165645,14.0818064 C159.442844,14.0818064 159.766099,14.0592811 160.134977,13.9665806 L160.134977,16.996023 C159.211483,17.2037327 158.380318,17.2730415 157.45769,17.2730415 L157.45769,17.2730415 L157.45769,17.2730415 L157.45769,17.2730415 Z" id="Shape"></path>
                <path d="M166.921173,17.3198249 C163.1126,17.3198249 161.104093,15.3538387 161.104093,11.0774885 C161.104093,6.75348848 163.297256,4.78836866 167.128532,4.78836866 C171.191168,4.78836866 172.968098,6.59169585 172.968098,10.9613963 C172.968098,15.3079216 171.144464,17.3198249 166.921173,17.3198249 L166.921173,17.3198249 L166.921173,17.3198249 L166.921173,17.3198249 Z M167.10518,7.54014285 C165.812807,7.54014285 165.190082,8.41754839 165.190082,10.9841383 C165.190082,13.6432119 165.743832,14.5448755 167.036204,14.5448755 C168.444256,14.5448755 168.905678,13.6198203 168.905678,10.9382212 C168.905462,8.44180645 168.3982,7.54014285 167.10518,7.54014285 L167.10518,7.54014285 L167.10518,7.54014285 L167.10518,7.54014285 Z" id="Shape"></path>
                <path d="M178.438569,14.2903825 C179.476879,14.2903825 179.754294,13.8974885 179.754294,13.4812028 C179.754294,13.0651336 179.569422,12.8340322 178.784961,12.5795391 L177.561781,12.1866452 C175.968857,11.6778756 174.860708,10.776212 174.860708,8.78770046 C174.860708,6.15201843 176.5918,4.78815207 180.193013,4.78815207 C181.277161,4.78815207 182.362174,4.9499447 183.30902,5.18104609 L183.30902,8.25618894 C182.131679,7.88603687 181.046666,7.72402766 180.008141,7.72402766 C179.292223,7.72402766 178.854152,8.00169585 178.854152,8.46389861 C178.854152,8.97266821 179.084864,9.13446083 179.846838,9.38895391 L180.908499,9.75845622 C182.91614,10.4524101 183.839417,11.330682 183.839417,13.2039678 C183.839417,15.7003825 182.408878,17.3193917 178.300403,17.3193917 C177.284582,17.3193917 175.807337,17.1108157 174.676702,16.7872304 L174.676702,13.5968618 C176.038049,14.1060645 177.515292,14.2903825 178.438569,14.2903825 L178.438569,14.2903825 L178.438569,14.2903825 L178.438569,14.2903825 Z" id="Shape"></path>
            </g>
        </g>
    </g>
</svg>
