<?xml version="1.0" encoding="UTF-8" standalone="no"?>
<svg width="20px" height="20px" viewBox="0 0 20 20" version="1.1" xmlns="http://www.w3.org/2000/svg" xmlns:xlink="http://www.w3.org/1999/xlink" xmlns:sketch="http://www.bohemiancoding.com/sketch/ns">
    <!-- Generator: Sketch 3.1 (8751) - http://www.bohemiancoding.com/sketch -->
    <title>fa-user-o 3</title>
    <desc>Created with Sketch.</desc>
    <defs></defs>
    <g id="standard-timeline" stroke="none" stroke-width="1" fill="none" fill-rule="evenodd" sketch:type="MSPage">
        <g id="fa-user-o-3" sketch:type="MSLayerGroup" transform="translate(3.000000, 2.000000)" fill="#0091EA">
            <path d="M0.484799081,15.4218968 C0.981902706,15.9092027 1.64470754,16.1528556 2.47321358,16.1528556 L11.4588128,16.1528556 C12.2873188,16.1528556 12.9501237,15.9092027 13.4472273,15.4218968 C13.9443309,14.9354253 14.2019061,14.2795649 14.2019061,13.4551502 C14.2019061,13.0813264 14.1838594,12.7250257 14.1649924,12.3695594 C14.1469458,12.0132587 14.0911652,11.6386006 14.0181582,11.2272276 C13.9443309,10.8150202 13.852457,10.4403621 13.7417161,10.1032532 C13.6309752,9.74695249 13.4841409,9.40984361 13.2995727,9.07273473 C13.1158249,8.7548177 12.91321,8.45442365 12.6736815,8.22996254 C12.4341531,8.00550143 12.1396643,7.81775515 11.7902152,7.66839255 C11.4399458,7.53738737 11.0535831,7.46228886 10.6303067,7.46228886 C10.5745261,7.46228886 10.4276919,7.53738737 10.2062101,7.68674997 C9.98554858,7.83694699 9.72797343,8.00550143 9.43348465,8.17405587 C9.15704253,8.36096772 8.78872648,8.52952216 8.32853649,8.67971919 C7.8683465,8.82908178 7.40815651,8.9041803 6.94796652,8.9041803 C6.5058232,8.9041803 6.04563321,8.82908178 5.58544322,8.67971919 C5.12443292,8.52952216 4.75693717,8.36096772 4.48049506,8.17405587 C4.18600627,8.00550143 3.92761083,7.83694699 3.70694932,7.68674997 C3.4862878,7.53738737 3.33863326,7.46228886 3.28367296,7.46228886 C2.86039661,7.46228886 2.47321358,7.53738737 2.1237645,7.66839255 C1.79236208,7.81775515 1.4978733,8.00550143 1.25834482,8.22996254 C1.01881634,8.45442365 0.798154832,8.7548177 0.613586654,9.07273473 C0.429838779,9.40984361 0.282184236,9.74695249 0.172263633,10.1032532 C0.0795693923,10.4403621 -0.0123045452,10.8150202 -0.0861318164,11.2272276 C-0.159138785,11.6386006 -0.214919389,12.0132587 -0.232966056,12.3695594 C-0.251833025,12.7250257 -0.269879691,13.0813264 -0.269879691,13.4551502 C-0.269879691,14.2795649 -0.0123045452,14.9354253 0.484799081,15.4218968 L0.484799081,15.4218968 Z M6.96601319,8.13650661 C8.05209437,8.13650661 8.97329466,7.74265664 9.7460201,6.95662554 C10.5195658,6.16976001 10.9059286,5.23353189 10.9059286,4.10955749 C10.9059286,3.00477493 10.5195658,2.0685468 9.7460201,1.28168128 C8.97329466,0.494815754 8.05209437,0.101800206 6.96601319,0.101800206 C5.86106503,0.101800206 4.94068505,0.494815754 4.16713931,1.28168128 C3.39441387,2.0685468 3.00723085,3.00477493 3.00723085,4.10955749 C3.00723085,5.23353189 3.39441387,6.16976001 4.16713931,6.95662554 C4.94068505,7.74265664 5.86106503,8.13650661 6.96601319,8.13650661 L6.96601319,8.13650661 Z" id="Fill-51" sketch:type="MSShapeGroup"></path>
        </g>
    </g>
</svg>