<?xml version="1.0" encoding="UTF-8" standalone="no"?>
<svg width="262px" height="257px" viewBox="0 0 262 257" version="1.1" xmlns="http://www.w3.org/2000/svg" xmlns:xlink="http://www.w3.org/1999/xlink">
    <!-- Generator: Sketch 39.1 (31720) - http://www.bohemiancoding.com/sketch -->
    <title>Group 4</title>
    <desc>Created with Sketch.</desc>
    <defs>
        <polygon id="path-1" points="40.322 265.711818 40.322 0.0235576347 0.2745954 0.0235576347 0.2745954 265.711818 40.322 265.711818"></polygon>
    </defs>
    <g id="Page-1" stroke="none" stroke-width="1" fill="none" fill-rule="evenodd">
        <g id="Desktop" transform="translate(-762.000000, -619.000000)">
            <g id="Group-4" transform="translate(762.000000, 598.000000)">
                <path d="M161.2218,141.7156 C161.2218,141.7156 157.7938,144.5076 158.5558,146.6406 C159.3168,148.7756 232.6348,163.8766 232.6348,163.8766 L233.9678,159.0366 L161.2218,141.7156 Z" id="Fill-7" fill="#7BC7C9"></path>
                <path d="M178.378,110.8787 C177.316,110.6287 176.001,111.1987 175.456,112.1447 L158.924,140.8527 C158.379,141.7987 158.804,142.7737 159.867,143.0187 L242.353,162.0487 C243.416,162.2937 244.436,161.6147 244.618,160.5387 L249.857,129.7107 C250.04,128.6347 249.32,127.5507 248.258,127.3007 L178.378,110.8787 Z" id="Fill-9" fill="#FFFFFF"></path>
                <path d="M140.5352,177.866 C139.4672,177.642 139.0242,176.678 139.5522,175.721 L154.9942,147.741 C155.5212,146.785 156.8232,146.202 157.8882,146.445 L241.0182,165.402 C242.0832,165.644 242.7092,166.701 242.4112,167.752 L234.5112,195.545 C234.2122,196.596 233.0942,197.271 232.0252,197.047 L140.5352,177.866 Z" id="Fill-11" fill="#FFFFFF"></path>
                <path d="M163.3848,140.8299 C163.3848,141.0659 163.0488,141.2569 162.6358,141.2569 C162.2228,141.2569 161.8858,141.0659 161.8858,140.8299 C161.8858,140.5919 162.2228,140.4009 162.6358,140.4009 C163.0488,140.4009 163.3848,140.5919 163.3848,140.8299" id="Fill-13" fill="#B4DDDF"></path>
                <path d="M167.7667,142.1443 C167.7667,142.3813 167.4297,142.5723 167.0167,142.5723 C166.6037,142.5723 166.2667,142.3813 166.2667,142.1443 C166.2667,141.9063 166.6037,141.7153 167.0167,141.7153 C167.4297,141.7153 167.7667,141.9063 167.7667,142.1443" id="Fill-15" fill="#B4DDDF"></path>
                <path d="M172.8437,143.3689 C172.8437,143.6059 172.5077,143.7959 172.0937,143.7959 C171.6807,143.7959 171.3437,143.6059 171.3437,143.3689 C171.3437,143.1309 171.6807,142.9399 172.0937,142.9399 C172.5077,142.9399 172.8437,143.1309 172.8437,143.3689" id="Fill-17" fill="#B4DDDF"></path>
                <path d="M177.2237,144.6853 C177.2237,144.9213 176.8877,145.1123 176.4747,145.1123 C176.0607,145.1123 175.7247,144.9213 175.7247,144.6853 C175.7247,144.4463 176.0607,144.2553 176.4747,144.2553 C176.8877,144.2553 177.2237,144.4463 177.2237,144.6853" id="Fill-19" fill="#B4DDDF"></path>
                <path d="M182.6192,146.0037 C182.6192,146.2397 182.2842,146.4317 181.8712,146.4317 C181.4562,146.4317 181.1212,146.2397 181.1212,146.0037 C181.1212,145.7667 181.4562,145.5757 181.8712,145.5757 C182.2842,145.5757 182.6192,145.7667 182.6192,146.0037" id="Fill-21" fill="#B4DDDF"></path>
                <path d="M187.7579,147.1873 C187.7579,147.4243 187.4209,147.6133 187.0069,147.6133 C186.5939,147.6133 186.2589,147.4243 186.2589,147.1873 C186.2589,146.9493 186.5939,146.7583 187.0069,146.7583 C187.4209,146.7583 187.7579,146.9493 187.7579,147.1873" id="Fill-23" fill="#B4DDDF"></path>
                <path d="M192.8956,148.1326 C192.8956,148.3686 192.5596,148.5606 192.1446,148.5606 C191.7316,148.5606 191.3956,148.3686 191.3956,148.1326 C191.3956,147.8946 191.7316,147.7046 192.1446,147.7046 C192.5596,147.7046 192.8956,147.8946 192.8956,148.1326" id="Fill-25" fill="#B4DDDF"></path>
                <path d="M197.8468,149.5291 C197.8468,149.7661 197.5098,149.9561 197.0958,149.9561 C196.6838,149.9561 196.3468,149.7661 196.3468,149.5291 C196.3468,149.2911 196.6838,149.1001 197.0958,149.1001 C197.5098,149.1001 197.8468,149.2911 197.8468,149.5291" id="Fill-27" fill="#B4DDDF"></path>
                <path d="M203.4326,150.8699 C203.4326,151.1069 203.0956,151.2979 202.6826,151.2979 C202.2696,151.2979 201.9326,151.1069 201.9326,150.8699 C201.9326,150.6329 202.2696,150.4419 202.6826,150.4419 C203.0956,150.4419 203.4326,150.6329 203.4326,150.8699" id="Fill-29" fill="#B4DDDF"></path>
                <path d="M209.082,152.0291 C209.082,152.2661 208.747,152.4571 208.332,152.4571 C207.919,152.4571 207.583,152.2661 207.583,152.0291 C207.583,151.7911 207.919,151.6011 208.332,151.6011 C208.747,151.6011 209.082,151.7911 209.082,152.0291" id="Fill-31" fill="#B4DDDF"></path>
                <path d="M214.0654,153.4275 C214.0654,153.6635 213.7294,153.8545 213.3164,153.8545 C212.9024,153.8545 212.5654,153.6635 212.5654,153.4275 C212.5654,153.1915 212.9024,152.9985 213.3164,152.9985 C213.7294,152.9985 214.0654,153.1915 214.0654,153.4275" id="Fill-33" fill="#B4DDDF"></path>
                <path d="M219.4923,154.3963 C219.4923,154.6303 219.1563,154.8223 218.7433,154.8223 C218.3303,154.8223 217.9923,154.6303 217.9923,154.3963 C217.9923,154.1563 218.3303,153.9663 218.7433,153.9663 C219.1563,153.9663 219.4923,154.1563 219.4923,154.3963" id="Fill-35" fill="#B4DDDF"></path>
                <path d="M225.0802,155.5545 C225.0802,155.7905 224.7422,155.9825 224.3292,155.9825 C223.9152,155.9825 223.5792,155.7905 223.5792,155.5545 C223.5792,155.3145 223.9152,155.1265 224.3292,155.1265 C224.7422,155.1265 225.0802,155.3145 225.0802,155.5545" id="Fill-37" fill="#B4DDDF"></path>
                <path d="M229.6182,156.6346 C229.6182,156.8696 229.2802,157.0626 228.8692,157.0626 C228.4542,157.0626 228.1172,156.8696 228.1172,156.6346 C228.1172,156.3966 228.4542,156.2066 228.8692,156.2066 C229.2802,156.2066 229.6182,156.3966 229.6182,156.6346" id="Fill-39" fill="#B4DDDF"></path>
                <path d="M159.4346,148.5047 C159.4346,148.7387 159.0986,148.9317 158.6856,148.9317 C158.2716,148.9317 157.9336,148.7387 157.9336,148.5047 C157.9336,148.2657 158.2716,148.0737 158.6856,148.0737 C159.0986,148.0737 159.4346,148.2657 159.4346,148.5047" id="Fill-41" fill="#B4DDDF"></path>
                <path d="M163.8135,149.8191 C163.8135,150.0551 163.4785,150.2461 163.0645,150.2461 C162.6515,150.2461 162.3155,150.0551 162.3155,149.8191 C162.3155,149.5821 162.6515,149.3901 163.0645,149.3901 C163.4785,149.3901 163.8135,149.5821 163.8135,149.8191" id="Fill-43" fill="#B4DDDF"></path>
                <path d="M168.8927,151.0437 C168.8927,151.2807 168.5567,151.4707 168.1417,151.4707 C167.7297,151.4707 167.3927,151.2807 167.3927,151.0437 C167.3927,150.8067 167.7297,150.6147 168.1417,150.6147 C168.5567,150.6147 168.8927,150.8067 168.8927,151.0437" id="Fill-45" fill="#B4DDDF"></path>
                <path d="M173.2715,152.3592 C173.2715,152.5952 172.9355,152.7852 172.5225,152.7852 C172.1085,152.7852 171.7725,152.5952 171.7725,152.3592 C171.7725,152.1212 172.1085,151.9292 172.5225,151.9292 C172.9355,151.9292 173.2715,152.1212 173.2715,152.3592" id="Fill-47" fill="#B4DDDF"></path>
                <path d="M178.6689,153.6775 C178.6689,153.9155 178.3319,154.1055 177.9189,154.1055 C177.5049,154.1055 177.1689,153.9155 177.1689,153.6775 C177.1689,153.4415 177.5049,153.2495 177.9189,153.2495 C178.3319,153.2495 178.6689,153.4415 178.6689,153.6775" id="Fill-49" fill="#B4DDDF"></path>
                <path d="M183.8067,154.8621 C183.8067,155.0971 183.4697,155.2871 183.0557,155.2871 C182.6427,155.2871 182.3067,155.0971 182.3067,154.8621 C182.3067,154.6231 182.6427,154.4311 183.0557,154.4311 C183.4697,154.4311 183.8067,154.6231 183.8067,154.8621" id="Fill-51" fill="#B4DDDF"></path>
                <path d="M188.9425,155.8064 C188.9425,156.0434 188.6075,156.2364 188.1945,156.2364 C187.7805,156.2364 187.4435,156.0434 187.4435,155.8064 C187.4435,155.5704 187.7805,155.3784 188.1945,155.3784 C188.6075,155.3784 188.9425,155.5704 188.9425,155.8064" id="Fill-53" fill="#B4DDDF"></path>
                <path d="M193.8956,157.201 C193.8956,157.441 193.5586,157.631 193.1446,157.631 C192.7316,157.631 192.3956,157.441 192.3956,157.201 C192.3956,156.965 192.7316,156.775 193.1446,156.775 C193.5586,156.775 193.8956,156.965 193.8956,157.201" id="Fill-55" fill="#B4DDDF"></path>
                <path d="M199.4814,158.5447 C199.4814,158.7807 199.1454,158.9727 198.7314,158.9727 C198.3184,158.9727 197.9814,158.7807 197.9814,158.5447 C197.9814,158.3067 198.3184,158.1167 198.7314,158.1167 C199.1454,158.1167 199.4814,158.3067 199.4814,158.5447" id="Fill-57" fill="#B4DDDF"></path>
                <path d="M205.1309,159.7039 C205.1309,159.9409 204.7939,160.1319 204.3799,160.1319 C203.9679,160.1319 203.6309,159.9409 203.6309,159.7039 C203.6309,159.4649 203.9679,159.2759 204.3799,159.2759 C204.7939,159.2759 205.1309,159.4649 205.1309,159.7039" id="Fill-59" fill="#B4DDDF"></path>
                <path d="M210.1143,161.0994 C210.1143,161.3394 209.7783,161.5274 209.3663,161.5274 C208.9523,161.5274 208.6143,161.3394 208.6143,161.0994 C208.6143,160.8634 208.9523,160.6714 209.3663,160.6714 C209.7783,160.6714 210.1143,160.8634 210.1143,161.0994" id="Fill-61" fill="#B4DDDF"></path>
                <path d="M215.54,162.0682 C215.54,162.3052 215.204,162.4952 214.79,162.4952 C214.377,162.4952 214.041,162.3052 214.041,162.0682 C214.041,161.8322 214.377,161.6422 214.79,161.6422 C215.204,161.6422 215.54,161.8322 215.54,162.0682" id="Fill-63" fill="#B4DDDF"></path>
                <path d="M221.1279,163.2283 C221.1279,163.4653 220.7909,163.6553 220.3779,163.6553 C219.9639,163.6553 219.6279,163.4653 219.6279,163.2283 C219.6279,162.9893 219.9639,162.7993 220.3779,162.7993 C220.7909,162.7993 221.1279,162.9893 221.1279,163.2283" id="Fill-65" fill="#B4DDDF"></path>
                <path d="M225.6671,164.3084 C225.6671,164.5444 225.3311,164.7364 224.9171,164.7364 C224.5031,164.7364 224.1671,164.5444 224.1671,164.3084 C224.1671,164.0704 224.5031,163.8804 224.9171,163.8804 C225.3311,163.8804 225.6671,164.0704 225.6671,164.3084" id="Fill-67" fill="#B4DDDF"></path>
                <path d="M158.9131,148.5603 C158.9131,148.5603 158.6381,147.9623 158.5201,147.0263 C158.4491,146.5583 158.4261,146.0093 158.4641,145.4183 C158.4891,144.8253 158.6191,144.1973 158.7931,143.5703 C158.9211,143.2613 159.0091,142.9513 159.1751,142.6573 C159.3161,142.3553 159.4981,142.0833 159.7141,141.8293 C159.8911,141.5603 160.1581,141.3533 160.4011,141.1673 C160.6191,140.9603 160.9391,140.8793 161.1721,140.7713 C161.4181,140.6733 161.6811,140.6873 161.8841,140.6643 C162.0871,140.6263 162.2691,140.7123 162.4101,140.7373 C162.6901,140.8143 162.8321,140.8733 162.8321,140.8733 C162.8321,140.8733 162.6851,140.9313 162.4271,141.0403 C162.3091,141.0953 162.1571,141.1193 162.0181,141.2323 C161.8821,141.3393 161.7171,141.4103 161.5781,141.5463 C161.4541,141.7103 161.2881,141.8013 161.1751,142.0023 C161.0521,142.1813 160.9271,142.3583 160.8201,142.5833 C160.6931,142.7813 160.6211,143.0333 160.5121,143.2693 C160.3961,143.4993 160.3401,143.7803 160.2441,144.0313 C159.9041,145.0813 159.6431,146.2213 159.3891,147.0853 C159.1481,147.9533 158.9131,148.5603 158.9131,148.5603" id="Fill-69" fill="#013A47"></path>
                <path d="M163.2989,149.9559 C163.2989,149.9559 163.0239,149.3569 162.9069,148.4219 C162.8349,147.9539 162.8119,147.4039 162.8519,146.8139 C162.8739,146.2229 163.0059,145.5909 163.1799,144.9649 C163.3089,144.6579 163.3959,144.3469 163.5619,144.0529 C163.7009,143.7539 163.8839,143.4779 164.0999,143.2229 C164.2759,142.9539 164.5429,142.7479 164.7879,142.5629 C165.0059,142.3549 165.3259,142.2749 165.5589,142.1679 C165.8049,142.0689 166.0669,142.0829 166.2689,142.0599 C166.4729,142.0209 166.6549,142.1089 166.7959,142.1349 C167.0769,142.2089 167.2189,142.2659 167.2189,142.2659 C167.2189,142.2659 167.0709,142.3279 166.8139,142.4349 C166.6949,142.4909 166.5429,142.5139 166.4039,142.6279 C166.2679,142.7369 166.1029,142.8049 165.9649,142.9429 C165.8399,143.1059 165.6729,143.1969 165.5609,143.3979 C165.4379,143.5799 165.3129,143.7539 165.2079,143.9779 C165.0799,144.1759 165.0079,144.4299 164.8979,144.6649 C164.7809,144.8949 164.7249,145.1759 164.6299,145.4269 C164.2909,146.4769 164.0289,147.6149 163.7759,148.4799 C163.5349,149.3499 163.2989,149.9559 163.2989,149.9559" id="Fill-71" fill="#013A47"></path>
                <path d="M168.0421,151.1385 C168.0421,151.1385 167.7671,150.5415 167.6481,149.6035 C167.5781,149.1375 167.5531,148.5875 167.5931,147.9955 C167.6151,147.4045 167.7471,146.7755 167.9211,146.1495 C168.0501,145.8415 168.1371,145.5315 168.3031,145.2365 C168.4421,144.9355 168.6261,144.6595 168.8411,144.4085 C169.0191,144.1365 169.2841,143.9325 169.5291,143.7455 C169.7461,143.5365 170.0671,143.4565 170.3001,143.3495 C170.5461,143.2515 170.8081,143.2655 171.0101,143.2435 C171.2141,143.2045 171.3971,143.2905 171.5371,143.3165 C171.8181,143.3925 171.9601,143.4495 171.9601,143.4495 C171.9601,143.4495 171.8131,143.5105 171.5571,143.6195 C171.4371,143.6735 171.2831,143.6975 171.1461,143.8095 C171.0101,143.9195 170.8441,143.9895 170.7061,144.1245 C170.5821,144.2875 170.4141,144.3815 170.3031,144.5815 C170.1801,144.7595 170.0541,144.9355 169.9481,145.1615 C169.8211,145.3605 169.7481,145.6115 169.6391,145.8475 C169.5221,146.0775 169.4671,146.3595 169.3711,146.6085 C169.0311,147.6595 168.7701,148.7985 168.5171,149.6615 C168.2761,150.5315 168.0421,151.1385 168.0421,151.1385" id="Fill-73" fill="#013A47"></path>
                <path d="M172.9297,152.5135 C172.9297,152.5135 172.6547,151.9135 172.5377,150.9805 C172.4667,150.5125 172.4427,149.9625 172.4817,149.3705 C172.5037,148.7775 172.6367,148.1505 172.8097,147.5235 C172.9377,147.2145 173.0257,146.9055 173.1917,146.6085 C173.3307,146.3085 173.5147,146.0345 173.7287,145.7805 C173.9077,145.5115 174.1737,145.3065 174.4177,145.1205 C174.6347,144.9135 174.9567,144.8335 175.1897,144.7235 C175.4347,144.6265 175.6977,144.6405 175.8997,144.6175 C176.1037,144.5795 176.2857,144.6645 176.4247,144.6895 C176.7067,144.7665 176.8487,144.8245 176.8487,144.8245 C176.8487,144.8245 176.7007,144.8845 176.4447,144.9925 C176.3247,145.0485 176.1717,145.0715 176.0347,145.1835 C175.8997,145.2945 175.7337,145.3635 175.5957,145.4995 C175.4707,145.6615 175.3037,145.7555 175.1907,145.9545 C175.0687,146.1345 174.9437,146.3105 174.8367,146.5385 C174.7107,146.7345 174.6377,146.9855 174.5287,147.2225 C174.4107,147.4525 174.3557,147.7325 174.2607,147.9855 C173.9207,149.0345 173.6597,150.1725 173.4077,151.0365 C173.1657,151.9065 172.9297,152.5135 172.9297,152.5135" id="Fill-75" fill="#013A47"></path>
                <path d="M178.1348,153.91 C178.1348,153.91 177.8598,153.31 177.7418,152.376 C177.6698,151.908 177.6468,151.357 177.6858,150.766 C177.7088,150.176 177.8408,149.545 178.0148,148.919 C178.1418,148.611 178.2288,148.302 178.3958,148.006 C178.5368,147.705 178.7188,147.43 178.9338,147.178 C179.1118,146.908 179.3788,146.702 179.6218,146.515 C179.8398,146.308 180.1618,146.229 180.3938,146.121 C180.6398,146.023 180.9018,146.035 181.1048,146.015 C181.3088,145.974 181.4908,146.06 181.6298,146.088 C181.9108,146.162 182.0538,146.221 182.0538,146.221 C182.0538,146.221 181.9058,146.281 181.6498,146.389 C181.5308,146.445 181.3778,146.467 181.2388,146.579 C181.1038,146.691 180.9378,146.759 180.7988,146.895 C180.6748,147.06 180.5068,147.151 180.3958,147.351 C180.2728,147.531 180.1478,147.707 180.0418,147.932 C179.9138,148.13 179.8428,148.383 179.7338,148.619 C179.6158,148.848 179.5608,149.13 179.4628,149.381 C179.1258,150.43 178.8638,151.568 178.6118,152.433 C178.3678,153.303 178.1348,153.91 178.1348,153.91" id="Fill-77" fill="#013A47"></path>
                <path d="M183.212,155.0916 C183.212,155.0916 182.938,154.4926 182.818,153.5576 C182.749,153.0916 182.725,152.5386 182.764,151.9486 C182.787,151.3576 182.918,150.7286 183.092,150.1006 C183.22,149.7926 183.308,149.4846 183.475,149.1886 C183.614,148.8886 183.797,148.6146 184.012,148.3576 C184.19,148.0896 184.456,147.8836 184.701,147.6986 C184.918,147.4906 185.238,147.4106 185.471,147.3036 C185.716,147.2046 185.98,147.2186 186.183,147.1966 C186.387,147.1566 186.569,147.2436 186.709,147.2696 C186.989,147.3436 187.131,147.4036 187.131,147.4036 C187.131,147.4036 186.984,147.4646 186.728,147.5706 C186.607,147.6276 186.456,147.6496 186.318,147.7636 C186.18,147.8726 186.015,147.9406 185.876,148.0776 C185.752,148.2416 185.586,148.3356 185.475,148.5326 C185.351,148.7146 185.225,148.8886 185.119,149.1146 C184.991,149.3126 184.92,149.5646 184.81,149.8006 C184.694,150.0306 184.638,150.3126 184.542,150.5636 C184.203,151.6126 183.941,152.7496 183.689,153.6146 C183.447,154.4866 183.212,155.0916 183.212,155.0916" id="Fill-79" fill="#013A47"></path>
                <path d="M188.2257,155.9822 C188.2257,155.9822 187.9507,155.3822 187.8327,154.4482 C187.7607,153.9802 187.7387,153.4292 187.7767,152.8392 C187.8017,152.2472 187.9317,151.6172 188.1057,150.9922 C188.2337,150.6832 188.3207,150.3732 188.4877,150.0762 C188.6277,149.7772 188.8107,149.5032 189.0237,149.2482 C189.2047,148.9782 189.4697,148.7742 189.7137,148.5892 C189.9317,148.3812 190.2527,148.3012 190.4847,148.1932 C190.7307,148.0932 190.9927,148.1092 191.1967,148.0862 C191.4007,148.0462 191.5837,148.1322 191.7227,148.1572 C192.0047,148.2342 192.1447,148.2932 192.1447,148.2932 C192.1447,148.2932 191.9977,148.3532 191.7407,148.4592 C191.6217,148.5172 191.4697,148.5392 191.3317,148.6542 C191.1947,148.7612 191.0297,148.8322 190.8907,148.9682 C190.7657,149.1322 190.5997,149.2232 190.4877,149.4232 C190.3637,149.6032 190.2387,149.7772 190.1337,150.0052 C190.0057,150.2022 189.9347,150.4552 189.8247,150.6892 C189.7087,150.9202 189.6517,151.2012 189.5557,151.4532 C189.2167,152.5032 188.9547,153.6402 188.7017,154.5032 C188.4617,155.3762 188.2257,155.9822 188.2257,155.9822" id="Fill-81" fill="#013A47"></path>
                <path d="M193.1768,157.3777 C193.1768,157.3777 192.9038,156.7817 192.7848,155.8437 C192.7128,155.3777 192.6898,154.8267 192.7278,154.2357 C192.7518,153.6447 192.8828,153.0147 193.0568,152.3897 C193.1858,152.0797 193.2738,151.7717 193.4408,151.4747 C193.5798,151.1737 193.7628,150.8987 193.9768,150.6467 C194.1548,150.3757 194.4208,150.1727 194.6648,149.9847 C194.8828,149.7767 195.2028,149.6967 195.4358,149.5897 C195.6818,149.4907 195.9458,149.5047 196.1478,149.4827 C196.3508,149.4437 196.5348,149.5307 196.6738,149.5567 C196.9558,149.6307 197.0958,149.6897 197.0958,149.6897 C197.0958,149.6897 196.9508,149.7497 196.6918,149.8577 C196.5728,149.9127 196.4208,149.9377 196.2838,150.0497 C196.1458,150.1597 195.9808,150.2287 195.8418,150.3647 C195.7178,150.5277 195.5508,150.6187 195.4388,150.8187 C195.3158,151.0007 195.1898,151.1747 195.0848,151.4017 C194.9568,151.5997 194.8848,151.8517 194.7768,152.0867 C194.6598,152.3167 194.6028,152.5997 194.5078,152.8487 C194.1678,153.9007 193.9058,155.0387 193.6538,155.9017 C193.4118,156.7717 193.1768,157.3777 193.1768,157.3777" id="Fill-83" fill="#013A47"></path>
                <path d="M198.7637,158.7762 C198.7637,158.7762 198.4887,158.1762 198.3717,157.2422 C198.2997,156.7752 198.2767,156.2222 198.3147,155.6342 C198.3397,155.0412 198.4697,154.4122 198.6437,153.7842 C198.7717,153.4772 198.8597,153.1682 199.0267,152.8732 C199.1667,152.5722 199.3497,152.2972 199.5627,152.0442 C199.7427,151.7742 200.0087,151.5682 200.2507,151.3822 C200.4697,151.1732 200.7897,151.0952 201.0227,150.9882 C201.2687,150.8902 201.5317,150.9022 201.7347,150.8792 C201.9377,150.8402 202.1197,150.9292 202.2607,150.9532 C202.5407,151.0312 202.6827,151.0872 202.6827,151.0872 C202.6827,151.0872 202.5357,151.1482 202.2787,151.2562 C202.1597,151.3112 202.0087,151.3342 201.8687,151.4472 C201.7327,151.5562 201.5677,151.6242 201.4287,151.7612 C201.3047,151.9262 201.1377,152.0172 201.0257,152.2172 C200.9017,152.3962 200.7777,152.5732 200.6707,152.7982 C200.5437,152.9982 200.4717,153.2482 200.3627,153.4852 C200.2467,153.7142 200.1907,153.9942 200.0947,154.2462 C199.7547,155.2972 199.4937,156.4342 199.2407,157.3002 C198.9987,158.1682 198.7637,158.7762 198.7637,158.7762" id="Fill-85" fill="#013A47"></path>
                <path d="M204.4141,159.9353 C204.4141,159.9353 204.1391,159.3353 204.0211,158.4003 C203.9501,157.9333 203.9251,157.3843 203.9661,156.7923 C203.9871,156.1993 204.1191,155.5703 204.2931,154.9453 C204.4221,154.6363 204.5091,154.3263 204.6751,154.0303 C204.8141,153.7303 204.9971,153.4563 205.2131,153.2023 C205.3901,152.9333 205.6571,152.7283 205.9011,152.5403 C206.1191,152.3333 206.4391,152.2553 206.6721,152.1453 C206.9181,152.0483 207.1801,152.0603 207.3821,152.0393 C207.5861,151.9993 207.7711,152.0853 207.9091,152.1133 C208.1901,152.1883 208.3321,152.2453 208.3321,152.2453 C208.3321,152.2453 208.1851,152.3053 207.9291,152.4133 C207.8091,152.4703 207.6561,152.4933 207.5181,152.6053 C207.3811,152.7153 207.2161,152.7853 207.0781,152.9213 C206.9531,153.0833 206.7861,153.1773 206.6751,153.3763 C206.5521,153.5563 206.4261,153.7323 206.3211,153.9583 C206.1931,154.1563 206.1211,154.4073 206.0111,154.6443 C205.8941,154.8733 205.8381,155.1543 205.7431,155.4073 C205.4041,156.4563 205.1431,157.5943 204.8901,158.4583 C204.6481,159.3263 204.4141,159.9353 204.4141,159.9353" id="Fill-87" fill="#013A47"></path>
                <path d="M209.5557,161.3318 C209.5557,161.3318 209.2807,160.7328 209.1637,159.7978 C209.0917,159.3288 209.0677,158.7788 209.1067,158.1888 C209.1287,157.5978 209.2607,156.9668 209.4347,156.3418 C209.5627,156.0328 209.6507,155.7228 209.8177,155.4278 C209.9557,155.1288 210.1397,154.8548 210.3547,154.5998 C210.5327,154.3298 210.7997,154.1238 211.0417,153.9368 C211.2607,153.7298 211.5817,153.6508 211.8147,153.5438 C212.0597,153.4448 212.3227,153.4578 212.5247,153.4368 C212.7287,153.3958 212.9127,153.4838 213.0507,153.5088 C213.3317,153.5838 213.4747,153.6438 213.4747,153.6438 C213.4747,153.6438 213.3267,153.7028 213.0697,153.8108 C212.9507,153.8668 212.7977,153.8908 212.6597,154.0038 C212.5227,154.1128 212.3587,154.1818 212.2207,154.3158 C212.0947,154.4818 211.9277,154.5738 211.8167,154.7728 C211.6937,154.9528 211.5687,155.1298 211.4627,155.3548 C211.3357,155.5548 211.2637,155.8048 211.1547,156.0408 C211.0357,156.2698 210.9807,156.5508 210.8857,156.8028 C210.5467,157.8518 210.2847,158.9898 210.0327,159.8548 C209.7897,160.7248 209.5557,161.3318 209.5557,161.3318" id="Fill-89" fill="#013A47"></path>
                <path d="M214.8242,162.1551 C214.8242,162.1551 214.5492,161.5561 214.4302,160.6211 C214.3592,160.1541 214.3352,159.6041 214.3752,159.0131 C214.3972,158.4231 214.5292,157.7921 214.7032,157.1661 C214.8312,156.8591 214.9192,156.5471 215.0852,156.2531 C215.2252,155.9511 215.4072,155.6771 215.6232,155.4231 C215.8012,155.1541 216.0672,154.9491 216.3102,154.7621 C216.5282,154.5541 216.8502,154.4761 217.0832,154.3671 C217.3292,154.2691 217.5912,154.2831 217.7922,154.2591 C217.9972,154.2201 218.1802,154.3081 218.3192,154.3331 C218.6002,154.4101 218.7432,154.4661 218.7432,154.4661 C218.7432,154.4661 218.5952,154.5271 218.3382,154.6341 C218.2192,154.6911 218.0662,154.7141 217.9282,154.8271 C217.7912,154.9371 217.6272,155.0061 217.4892,155.1421 C217.3622,155.3051 217.1962,155.3981 217.0852,155.5971 C216.9622,155.7771 216.8372,155.9531 216.7312,156.1791 C216.6022,156.3771 216.5322,156.6291 216.4212,156.8651 C216.3052,157.0931 216.2492,157.3751 216.1522,157.6271 C215.8132,158.6761 215.5542,159.8161 215.3002,160.6791 C215.0572,161.5481 214.8242,162.1551 214.8242,162.1551" id="Fill-91" fill="#013A47"></path>
                <path d="M220.6982,163.2996 C220.6982,163.2996 220.4232,162.7026 220.3052,161.7656 C220.2332,161.2996 220.2112,160.7486 220.2492,160.1576 C220.2732,159.5656 220.4042,158.9376 220.5782,158.3106 C220.7062,158.0036 220.7942,157.6936 220.9602,157.3966 C221.1002,157.0956 221.2832,156.8216 221.4982,156.5676 C221.6762,156.2986 221.9432,156.0936 222.1862,155.9066 C222.4042,155.6986 222.7252,155.6206 222.9572,155.5116 C223.2032,155.4136 223.4662,155.4276 223.6692,155.4046 C223.8722,155.3646 224.0552,155.4526 224.1952,155.4776 C224.4762,155.5546 224.6172,155.6106 224.6172,155.6106 C224.6172,155.6106 224.4692,155.6716 224.2132,155.7786 C224.0942,155.8356 223.9422,155.8576 223.8042,155.9706 C223.6672,156.0806 223.5022,156.1506 223.3632,156.2866 C223.2382,156.4496 223.0722,156.5426 222.9602,156.7416 C222.8362,156.9216 222.7122,157.0976 222.6062,157.3236 C222.4782,157.5226 222.4072,157.7736 222.2962,158.0096 C222.1802,158.2376 222.1242,158.5196 222.0282,158.7706 C221.6902,159.8216 221.4272,160.9596 221.1752,161.8236 C220.9332,162.6916 220.6982,163.2996 220.6982,163.2996" id="Fill-93" fill="#013A47"></path>
                <path d="M225.3975,164.3162 C225.3975,164.3162 225.1225,163.7162 225.0055,162.7812 C224.9335,162.3142 224.9095,161.7642 224.9465,161.1732 C224.9715,160.5832 225.1025,159.9532 225.2765,159.3262 C225.4045,159.0192 225.4935,158.7092 225.6605,158.4132 C225.7985,158.1112 225.9835,157.8372 226.1965,157.5842 C226.3745,157.3142 226.6415,157.1092 226.8845,156.9232 C227.1025,156.7142 227.4225,156.6362 227.6555,156.5272 C227.9005,156.4292 228.1665,156.4432 228.3685,156.4202 C228.5715,156.3802 228.7545,156.4682 228.8935,156.4932 C229.1755,156.5702 229.3155,156.6272 229.3155,156.6272 C229.3155,156.6272 229.1685,156.6872 228.9105,156.7952 C228.7925,156.8512 228.6405,156.8752 228.5015,156.9872 C228.3655,157.0972 228.2005,157.1662 228.0615,157.3022 C227.9375,157.4652 227.7705,157.5582 227.6595,157.7572 C227.5345,157.9372 227.4095,158.1132 227.3045,158.3392 C227.1765,158.5372 227.1055,158.7892 226.9955,159.0252 C226.8795,159.2542 226.8225,159.5352 226.7275,159.7872 C226.3875,160.8362 226.1265,161.9762 225.8725,162.8392 C225.6315,163.7092 225.3975,164.3162 225.3975,164.3162" id="Fill-95" fill="#013A47"></path>
                <path d="M186.3458,192.9451 C188.1218,193.4781 213.0418,200.9721 214.8218,201.5071 C220.5828,203.2401 225.5108,203.8061 225.8218,202.7751 C226.1308,201.7441 221.7088,199.5021 215.9458,197.7661 C214.1658,197.2321 189.2458,189.7381 187.4688,189.2071 C181.7068,187.4731 176.7798,186.9041 176.4678,187.9361 C176.1588,188.9681 180.5838,191.2111 186.3458,192.9451" id="Fill-97" fill="#FFFFFF"></path>
                <path d="M176.461,187.9334 C176.772,186.9004 181.714,187.4714 187.478,189.2044 L194.325,191.2534 C193.934,191.7424 193.605,192.3444 193.401,193.0174 C193.2,193.6924 193.142,194.3764 193.197,194.9994 L186.351,192.9474 C180.589,191.2124 176.152,188.9664 176.461,187.9334" id="Fill-99" fill="#E65663"></path>
                <path d="M105.2178,130.5701 C103.3738,130.7491 77.4718,133.2611 75.6228,133.4391 C69.6338,134.0191 64.8598,135.3611 64.9618,136.4351 C65.0668,137.5061 70.0098,137.9041 76.0028,137.3261 C77.8478,137.1461 103.7488,134.6361 105.5978,134.4551 C111.5878,133.8751 116.3638,132.5351 116.2598,131.4611 C116.1548,130.3901 111.2088,129.9901 105.2178,130.5701" id="Fill-101" fill="#FFFFFF"></path>
                <path d="M116.2646,131.4627 C116.3696,132.5367 111.5806,133.8787 105.5906,134.4607 L98.4776,135.1597 C98.6546,134.5617 98.7306,133.8777 98.6616,133.1757 C98.5936,132.4787 98.3866,131.8237 98.0986,131.2687 L105.2146,130.5697 C111.2036,129.9897 116.1616,130.3907 116.2646,131.4627" id="Fill-103" fill="#013A47"></path>
                <path d="M65.8634,140.5682 C67.7134,140.5532 93.7364,140.3382 95.5944,140.3222 C101.6144,140.2712 106.4844,139.3582 106.4794,138.2802 C106.4704,137.2002 101.5824,136.3692 95.5604,136.4172 C93.7064,136.4332 67.6844,136.6492 65.8274,136.6662 C59.8114,136.7112 54.9344,137.6292 54.9424,138.7062 C54.9524,139.7832 59.8424,140.6202 65.8634,140.5682" id="Fill-105" fill="#89ADAF"></path>
                <path d="M54.9366,138.7059 C54.9286,137.6269 59.8156,136.7109 65.8376,136.6609 L72.9856,136.5909 C72.7526,137.1739 72.6196,137.8479 72.6216,138.5509 C72.6286,139.2569 72.7776,139.9249 73.0146,140.5029 L65.8656,140.5679 C59.8486,140.6199 54.9466,139.7849 54.9366,138.7059" id="Fill-107" fill="#013A47"></path>
                <path d="M81.1085,143.2498 C82.9545,143.4138 108.8725,145.7128 110.7235,145.8748 C116.7195,146.4078 121.6575,145.9688 121.7555,144.8958 C121.8505,143.8218 117.0665,142.5208 111.0675,141.9838 C109.2195,141.8228 83.2985,139.5258 81.4485,139.3628 C75.4555,138.8278 70.5145,139.2678 70.4185,140.3448 C70.3245,141.4198 75.1115,142.7188 81.1085,143.2498" id="Fill-109" fill="#F19698"></path>
                <path d="M70.4112,140.3416 C70.5102,139.2676 75.4622,138.8276 81.4592,139.3596 L88.5802,139.9816 C88.2922,140.5366 88.0952,141.1956 88.0302,141.8956 C87.9702,142.5976 88.0522,143.2796 88.2322,143.8766 L81.1102,143.2516 C75.1182,142.7216 70.3202,141.4196 70.4112,140.3416" id="Fill-111" fill="#E65663"></path>
                <path d="M68.4317,157.8836 C70.2847,157.8596 96.3037,157.5116 98.1617,157.4826 C104.1797,157.4016 109.0487,156.4626 109.0347,155.3846 C109.0207,154.3086 104.1287,153.4996 98.1077,153.5786 C96.2527,153.6056 70.2317,153.9556 68.3777,153.9806 C62.3587,154.0606 57.4877,154.9986 57.5027,156.0796 C57.5177,157.1556 62.4127,157.9636 68.4317,157.8836" id="Fill-117" fill="#F9D5DA"></path>
                <path d="M57.498,156.076 C57.481,154.999 62.365,154.059 68.384,153.976 L75.532,153.87 C75.303,154.453 75.172,155.129 75.182,155.83 C75.189,156.536 75.343,157.203 75.584,157.781 L68.434,157.885 C62.417,157.967 57.511,157.156 57.498,156.076" id="Fill-119" fill="#F19698"></path>
                <path d="M104.6006,148.7078 C102.7466,148.7088 76.7246,148.7338 74.8686,148.7388 C68.8486,148.7438 63.9676,149.6218 63.9676,150.7008 C63.9676,151.7768 68.8516,152.6458 74.8726,152.6428 C76.7256,152.6378 102.7486,152.6128 104.6066,152.6088 C110.6246,152.6048 115.5056,151.7258 115.5056,150.6458 C115.5016,149.5698 110.6206,148.7008 104.6006,148.7078" id="Fill-121" fill="#FFFFFF"></path>
                <path d="M115.5108,150.6482 C115.5108,151.7282 110.6178,152.6052 104.5958,152.6152 L97.4498,152.6312 C97.6868,152.0522 97.8248,151.3782 97.8248,150.6752 C97.8238,149.9692 97.6808,149.2982 97.4468,148.7202 L104.5948,148.7052 C110.6138,148.6992 115.5088,149.5702 115.5108,150.6482" id="Fill-123" fill="#89ADAF"></path>
                <polygon id="Fill-125" fill="#E65663" points="1.3428 175.1053 3.1178 180.1813 34.8598 182.4663 34.8598 177.6443"></polygon>
                <polygon id="Fill-127" fill="#F19698" points="1.3428 175.1053 13.0238 160.3763 36.1298 162.4083 34.8598 177.6443"></polygon>
                <polygon id="Fill-129" fill="#FFFFFF" points="89.9854 161.1541 50.1224 161.1541 51.3904 191.3711 87.9564 191.3711"></polygon>
                <path d="M68.5312,167.4305 L74.3692,187.7435 L109.9182,184.9525 L100.0142,160.3215 C100.0142,160.3215 85.2892,166.9215 68.5312,167.4305" id="Fill-131" fill="#89ADAF"></path>
                <polygon id="Fill-133" fill="#B4DDDF" points="19.4776 150.6453 52.7826 150.6453 52.1066 171.4213 19.4776 173.2473"></polygon>
                <polygon id="Fill-135" fill="#89ADAF" points="19.4776 173.2478 20.9316 176.2638 52.7826 176.2638 52.7826 171.4218"></polygon>
                <path d="M57.2276,198.5203 L57.2276,219.5953 C57.2276,219.5953 72.7156,226.4543 88.9696,225.1813 L88.9696,203.3433 C88.9696,203.3433 67.6406,202.5833 57.2276,198.5203" id="Fill-141" fill="#FFFFFF"></path>
                <polygon id="Fill-143" fill="#7BC7C9" points="57.2276 198.0115 54.1826 202.4545 54.1826 224.4195 57.2276 219.5955"></polygon>
                <path d="M88.9698,225.1814 L87.4448,228.4804 C87.4448,228.4804 74.2388,228.4804 54.1828,224.4194 L57.2278,219.5954 C57.2278,219.5954 75.2568,226.9604 88.9698,225.1814" id="Fill-145" fill="#0094A7"></path>
                <path d="M183.2227,249.948 C184.3077,250.06 185.1637,251.045 185.1237,252.135 L184.4657,270.066 C184.4267,271.156 183.9637,272.832 183.4397,273.789 L182.1107,276.214 C181.5847,277.171 180.2667,277.876 179.1797,277.779 L96.8647,270.51 C95.7777,270.414 94.4317,269.568 93.8747,268.63 L92.2827,265.948 C91.7257,265.01 91.4167,263.361 91.5987,262.285 L94.8707,242.795 C95.0527,241.719 96.0887,240.93 97.1737,241.042 L183.2227,249.948 Z" id="Fill-171" fill="#013A47"></path>
                <path d="M97.5616,226.7771 C97.7426,225.7011 98.7806,224.8781 99.8706,224.9491 L183.9366,230.4061 C185.0266,230.4761 185.8836,231.4251 185.8446,232.5171 L184.4656,270.0661 C184.4266,271.1561 183.5036,271.9741 182.4156,271.8821 L93.2466,264.4081 C92.1596,264.3161 91.4166,263.3611 91.5986,262.2851 L97.5616,226.7771 Z" id="Fill-173" fill="#0094A7"></path>
                <path d="M241.5107,99.2674 C241.4647,98.1774 240.6887,96.7854 239.7847,96.1724 L197.8517,67.7954 C196.9477,67.1834 195.8287,65.8744 195.3647,64.8864 L183.0787,38.7124 C182.6167,37.7244 181.5097,36.3964 180.6217,35.7624 L171.0537,28.9284 C170.1647,28.2944 168.8277,28.4264 168.0817,29.2224 L153.1437,45.1654 C152.3977,45.9614 151.9887,47.4824 152.2347,48.5464 L155.3777,62.1204 C155.6237,63.1854 156.5267,63.5014 157.3837,62.8264 L158.2077,62.1754 C159.0647,61.4994 160.3697,61.6034 161.1097,62.4064 L175.1027,77.6014 C175.8417,78.4044 177.2677,79.4104 178.2717,79.8394 L184.1597,82.3554 C185.1627,82.7844 186.4857,83.8734 187.0967,84.7774 L226.0107,142.2384 C226.6217,143.1424 227.8797,143.4074 228.8037,142.8264 L241.2727,135.0044 C242.1967,134.4244 242.9157,133.0584 242.8697,131.9674 L241.5107,99.2674 Z" id="Fill-183" fill="#F9D5DA"></path>
                <path d="M161.3389,59.7498 C160.4539,60.3888 160.5199,61.3298 161.4849,61.8398 L174.1629,68.5528 C175.1279,69.0628 176.7079,69.0658 177.6749,68.5588 L179.4929,67.6048 C180.4589,67.0978 181.7969,65.9778 182.4649,65.1148 L186.1289,60.3848 C186.7969,59.5218 186.9349,58.0228 186.4349,57.0528 L178.6679,41.9808 C178.1679,41.0118 177.1219,39.5918 176.3439,38.8258 L171.8109,34.3708 C171.0319,33.6058 169.9839,33.7728 169.4809,34.7408 L165.5979,42.2138 C165.0949,43.1818 164.6919,44.8668 164.7009,45.9588 L164.7909,55.2558 C164.8009,56.3478 164.0859,57.7638 163.2009,58.4018 L161.3389,59.7498 Z" id="Fill-185" fill="#F19698"></path>
                <path d="M161.5714,46.5584 C163.4224,46.4824 189.4234,45.3864 191.2774,45.3084 C197.2914,45.0544 202.1314,43.9764 202.0884,42.8984 C202.0434,41.8224 197.1274,41.1564 191.1134,41.4064 C189.2594,41.4864 163.2594,42.5794 161.4064,42.6594 C155.3914,42.9124 161.6514,43.4584 161.6974,44.5364 C161.7444,45.6134 155.5574,46.8114 161.5714,46.5584" id="Fill-187" fill="#B4DDDF"></path>
                <path d="M150.5899,45.0682 L155.8699,43.1792 C155.8699,43.1792 156.4619,43.0782 156.7709,43.0392 C158.1779,42.8612 159.7509,42.7252 161.4129,42.6542 L168.5539,42.3452 C168.3419,42.9332 168.2329,43.6102 168.2609,44.3142 C168.2889,45.0162 168.4599,45.6822 168.7179,46.2522 L161.5739,46.5592 C159.9089,46.6292 158.3239,46.6292 156.9039,46.5682 C156.4609,46.5482 155.6209,46.4642 155.6209,46.4642 L150.5899,45.0682 Z" id="Fill-189" fill="#013A47"></path>
                <path d="M191.1279,64.2439 C190.6659,65.2319 189.3979,65.9739 188.3099,65.8899 L181.6399,65.3829 C180.5519,65.3009 179.5599,64.3459 179.4359,63.2609 L178.4039,54.2419 C178.2799,53.1579 177.3209,52.0189 176.2749,51.7129 L166.2759,48.7839 C165.2279,48.4769 164.2029,47.3489 163.9969,46.2769 L163.2219,42.2299 C163.0159,41.1579 163.7259,40.4469 164.7979,40.6489 L184.2409,44.3189 C185.3139,44.5209 186.5559,45.5029 187.0009,46.4989 L192.2649,58.2659 C192.7099,59.2629 192.6959,60.8869 192.2339,61.8759 L191.1279,64.2439 Z" id="Fill-191" fill="#F9D5DA"></path>
                <path d="M226.0107,142.2381 C226.6217,143.1421 227.8797,143.4071 228.8037,142.8271 L241.2727,135.0051 C242.1967,134.4251 242.3447,133.2971 241.6007,132.4981 L191.6907,78.9131 C190.9467,78.1141 189.7937,78.1701 189.1297,79.0351 L187.1927,81.5601 C186.5287,82.4261 186.4857,83.8741 187.0967,84.7771 L226.0107,142.2381 Z" id="Fill-193" fill="#F19698"></path>
                <path d="M154.4346,179.7107 C155.4616,180.0777 155.5746,179.8617 154.6846,179.2307 L129.1186,161.0837 C128.2286,160.4517 126.6426,159.6857 125.5946,159.3797 L112.4476,155.5437 C111.3996,155.2377 110.3646,155.8627 110.1466,156.9327 L109.6986,159.1377 C109.4806,160.2067 110.0716,161.5367 111.0106,162.0927 L118.2786,166.3957 C119.2176,166.9507 120.8276,167.7067 121.8546,168.0737 L154.4346,179.7107 Z" id="Fill-195" fill="#F9D5DA"></path>
                <path d="M226.3906,189.034 C225.4146,188.545 223.7296,188.043 222.6456,187.92 L158.2746,180.603 C157.1906,180.48 155.5046,179.977 154.5306,179.486 L122.5406,163.387 C121.5666,162.896 119.8786,162.574 118.7916,162.67 L102.2906,164.133 C101.2046,164.228 100.3146,165.201 100.3146,166.292 L100.3146,169.745 C100.3146,170.836 101.1606,172.016 102.1936,172.367 L106.3376,173.773 C107.3716,174.124 108.1686,175.303 108.1106,176.392 L107.2886,191.711 C107.2306,192.801 107.7506,194.381 108.4466,195.223 L113.1426,200.908 C113.8376,201.749 115.2976,202.488 116.3876,202.551 L141.8036,204.006 C142.8936,204.068 144.6266,204.418 145.6556,204.783 L215.3726,229.546 C216.4016,229.911 218.1356,230.193 219.2276,230.175 L248.2056,229.665 C249.2966,229.646 250.3226,228.746 250.4836,227.668 L253.8936,204.943 C254.0546,203.863 253.3896,202.58 252.4136,202.091 L226.3906,189.034 Z" id="Fill-197" fill="#F9D5DA"></path>
                <path d="M120.4561,164.4549 C120.6281,163.3769 119.8791,162.5739 118.7921,162.6699 L102.2911,164.1329 C101.2041,164.2279 100.3141,165.2009 100.3141,166.2919 L100.3141,169.7449 C100.3141,170.8359 101.1601,172.0159 102.1931,172.3669 L106.3381,173.7729 C107.3711,174.1239 108.1691,175.3029 108.1101,176.3929 L107.2891,191.7109 C107.2301,192.8009 107.7511,194.3809 108.4461,195.2229 L113.1431,200.9079 C113.8381,201.7489 114.5471,201.5559 114.7191,200.4779 L120.4561,164.4549 Z" id="Fill-199" fill="#F19698"></path>
                <path d="M148.0137,196.1014 C148.5227,195.1354 149.7737,194.6654 150.7917,195.0564 L201.5837,214.5484 C202.6027,214.9394 204.3047,215.0494 205.3657,214.7924 L252.2587,203.4474 C253.3197,203.1904 254.0547,203.8634 253.8937,204.9434 L250.4837,227.6674 C250.3227,228.7454 249.2967,229.6464 248.2057,229.6654 L219.9767,230.1734 C218.8847,230.1934 217.1497,229.9134 216.1197,229.5514 L145.6577,204.7774 C144.6277,204.4154 144.2017,203.3284 144.7107,202.3634 L148.0137,196.1014 Z" id="Fill-201" fill="#F19698"></path>
                <g id="Group-205" transform="translate(221.000000, 0.451000)">
                    <mask id="mask-2" fill="white">
                        <use xlink:href="#path-1"></use>
                    </mask>
                    <g id="Clip-204"></g>
                    <path d="M65.0753,196.3945 C65.0753,196.3945 53.6203,208.2345 53.2383,211.6695 C52.8543,215.1075 43.6913,223.5135 44.4553,226.1855 C45.2173,228.8585 37.9613,234.5665 25.7383,229.6155 C13.5173,224.6585 0.5513,209.4375 0.4223,196.3945 C0.3423,188.7545 -0.2487,189.2925 1.6743,185.9555 C2.2663,184.9345 1.6743,185.9555 4.4773,184.8105 C7.2783,183.6625 2.8203,179.5875 6.0053,176.7885 C9.1853,173.9895 1.4203,131.7205 1.8043,125.8635 C2.1843,120.0035 3.7163,109.3125 7.7873,105.8745 C11.8593,102.4395 13.1493,89.5755 12.9673,86.8665 C12.5583,80.7535 16.3163,66.9165 16.3163,66.9165 C16.3163,66.9165 24.2023,41.8495 31.7163,34.2105 C39.2263,26.5685 39.0503,22.7165 43.6993,16.3575 C48.4333,9.8765 51.6003,1.7465 55.8003,0.2195 C60.0023,-1.3085 84.9383,6.1905 98.3053,19.5575 C111.6753,32.9245 169.3473,98.9785 177.7503,113.3125 C186.1533,127.6425 198.7553,162.0165 200.6683,171.1875 C202.5753,180.3525 188.8253,221.9845 187.2983,227.7115 C185.7703,233.4435 174.3133,268.5825 140.7033,265.5235 C107.0923,262.4685 92.1923,252.1555 92.1923,238.7895 C92.1923,225.4195 86.0853,222.7465 88.3763,219.6935 C90.6693,216.6345 70.8093,205.5615 71.1883,204.0325 C71.5713,202.5045 65.0753,196.3945 65.0753,196.3945" id="Fill-203" fill="#013A47" mask="url(#mask-2)"></path>
                </g>
                <path d="M36.1309,173.16 C28.7549,173.16 22.7749,182.094 22.7749,193.111 L22.7749,230.691 C22.7749,235.739 28.7529,239.832 36.1309,239.832 C43.5059,239.832 49.4849,235.739 49.4849,230.691 L49.4849,193.111 C49.4849,182.094 43.5049,173.16 36.1309,173.16" id="Fill-241" fill="#B4DDDF"></path>
                <path d="M22.7745,195.1551 C22.7745,199.7001 28.7535,203.3821 36.1305,203.3821 C43.5055,203.3821 49.4855,199.7001 49.4855,195.1551 L49.4855,222.3361 C49.4855,226.8791 43.5055,230.5601 36.1305,230.5601 C28.7535,230.5601 22.7745,226.8791 22.7745,222.3361 L22.7745,195.1551 Z" id="Fill-243" fill="#E65663"></path>
                <path d="M27.5997,174.3143 C27.5997,176.6603 31.4187,178.5633 36.1307,178.5633 C40.8427,178.5633 44.6617,176.6603 44.6617,174.3143 L44.6617,169.2883 L27.5997,169.2883 L27.5997,174.3143 Z" id="Fill-245" fill="#E65663"></path>
                <path d="M44.6612,169.2879 C44.6612,171.6339 40.8432,173.5349 36.1312,173.5349 C31.4192,173.5349 27.5992,171.6339 27.5992,169.2879 C27.5992,166.9429 31.4192,165.0409 36.1312,165.0409 C40.8432,165.0409 44.6612,166.9429 44.6612,169.2879" id="Fill-247" fill="#F19698"></path>
                <path d="M48.3437,192.1687 C48.3437,192.7327 48.3287,193.2967 48.2827,193.8607 C47.6577,186.6527 42.4477,181.0327 36.1247,181.0327 C39.2487,181.0327 42.1137,180.3467 44.2747,179.2047 C46.7737,182.3887 48.3437,187.0197 48.3437,192.1687" id="Fill-249" fill="#FFFFFF"></path>
                <path d="M78.7637,241.9549 C76.9767,242.4509 51.8977,249.3909 50.1087,249.8889 C44.3067,251.4939 39.8377,253.6389 40.1227,254.6789 C40.4097,255.7169 45.3467,255.2539 51.1507,253.6499 C52.9367,253.1539 78.0177,246.2109 79.8077,245.7139 C85.6077,244.1119 90.0787,241.9669 89.7917,240.9259 C89.5027,239.8889 84.5667,240.3499 78.7637,241.9549" id="Fill-251" fill="#B4DDDF"></path>
                <path d="M89.7979,240.9256 C90.0849,241.9666 85.6019,244.1146 79.7999,245.7226 L72.9119,247.6386 C72.9869,247.0166 72.9409,246.3296 72.7559,245.6546 C72.5659,244.9736 72.2509,244.3646 71.8699,243.8666 L78.7599,241.9546 C84.5589,240.3456 89.5089,239.8876 89.7979,240.9256" id="Fill-253" fill="#0094A7"></path>
                <polygon id="Fill-255" fill="#F19698" points="21.5567 259.3553 44.5777 243.7383 27.9257 236.2483 0.2267 249.4513"></polygon>
                <polygon id="Fill-257" fill="#E65663" points="0.2266 249.451 0.2266 254.529 22.4026 262.91 21.5566 259.355"></polygon>
                <polygon id="Fill-259" fill="#E65663" points="44.5782 243.7381 43.9012 247.8021 22.4022 262.9101 21.5572 259.3551"></polygon>
            </g>
        </g>
    </g>
</svg>