<?xml version="1.0" encoding="UTF-8" standalone="no"?>
<svg width="261px" height="266px" viewBox="0 0 261 266" version="1.1" xmlns="http://www.w3.org/2000/svg" xmlns:xlink="http://www.w3.org/1999/xlink">
    <!-- Generator: Sketch 39.1 (31720) - http://www.bohemiancoding.com/sketch -->
    <title>Group 3</title>
    <desc>Created with Sketch.</desc>
    <defs>
        <polygon id="path-1" points="0.322 0.922299479 0.322 171.235 118.9552 171.235 118.9552 0.922299479 0.322 0.922299479"></polygon>
        <polygon id="path-3" points="0.322 0.3261 0.322 142.2031 155.1051 142.2031 155.1051 0.3261"></polygon>
        <polygon id="path-5" points="0.322 0.349896889 0.322 68.8515983 111.251773 68.8515983 111.251773 0.349896889 0.322 0.349896889"></polygon>
        <polygon id="path-7" points="0.322 0.632529009 0.322 108.857164 15.5375289 108.857164 15.5375289 0.632529009 0.322 0.632529009"></polygon>
    </defs>
    <g id="Page-1" stroke="none" stroke-width="1" fill="none" fill-rule="evenodd">
        <g id="Desktop" transform="translate(-3.000000, -624.000000)">
            <g id="Group-3" transform="translate(3.000000, 621.000000)">
                <polygon id="Fill-3" fill="#B4DDDF" points="259.4971 112.0506 256.2601 154.7066 143.4911 160.3646 161.0321 116.2396"></polygon>
                <g id="Group-6" transform="translate(0.000000, 0.451000)">
                    <mask id="mask-2" fill="white">
                        <use xlink:href="#path-1"></use>
                    </mask>
                    <g id="Clip-5"></g>
                    <path d="M70.7452,36.374 C70.7452,36.374 71.2322,31.727 63.8942,28.059 C56.5592,24.389 39.4682,13.898 29.6872,8.521 C19.9052,3.141 -32.6458,0.694 -36.3158,0.939 C-39.9828,1.185 -38.7858,171.235 -38.7858,171.235 L63.6522,167.404 L118.9552,123.672 L70.7452,36.374 Z" id="Fill-4" fill="#013A47" mask="url(#mask-2)"></path>
                </g>
                <path d="M220.7745,125.3543 C222.5425,125.9023 247.3955,133.6213 249.1685,134.1693 C254.9175,135.9553 259.8385,136.5673 260.1595,135.5393 C260.4805,134.5073 256.0755,132.2273 250.3265,130.4393 C248.5555,129.8913 223.7015,122.1753 221.9265,121.6263 C216.1845,119.8393 211.2605,119.2263 210.9385,120.2583 C210.6195,121.2883 215.0245,123.5713 220.7745,125.3543" id="Fill-113" fill="#FFFFFF"></path>
                <path d="M210.9317,120.2527 C211.2537,119.2267 216.1887,119.8397 221.9397,121.6247 L228.7677,123.7347 C228.3707,124.2187 228.0377,124.8217 227.8277,125.4907 C227.6197,126.1637 227.5557,126.8487 227.6087,127.4687 L220.7777,125.3577 C215.0297,123.5727 210.6157,121.2867 210.9317,120.2527" id="Fill-115" fill="#E65663"></path>
                <polygon id="Fill-137" fill="#FFFFFF" points="188.6866 156.1561 219.4096 148.2851 226.0116 161.4881 194.2716 169.1061"></polygon>
                <polygon id="Fill-139" fill="#7BC7C9" points="194.2711 169.1062 196.3031 172.9142 224.0021 165.5502 226.0111 161.4882"></polygon>
                <path d="M187.7027,143.7361 C186.0967,144.6591 163.5247,157.6071 161.9147,158.5321 C156.6897,161.5271 152.8927,164.7131 153.4287,165.6481 C153.9637,166.5841 158.6327,164.9121 163.8557,161.9181 C165.4647,160.9921 188.0357,148.0451 189.6467,147.1191 C194.8677,144.1281 198.6667,140.9391 198.1297,140.0021 C197.5947,139.0691 192.9237,140.7401 187.7027,143.7361" id="Fill-147" fill="#E65663"></path>
                <path d="M198.1373,139.9998 C198.6733,140.9368 194.8633,144.1328 189.6413,147.1288 L183.4453,150.6948 C183.3623,150.0728 183.1483,149.4198 182.8003,148.8108 C182.4483,148.1988 181.9913,147.6868 181.4993,147.2988 L187.6973,143.7378 C192.9173,140.7398 197.5983,139.0678 198.1373,139.9998" id="Fill-149" fill="#E65663"></path>
                <path d="M220.4669,221.8367 L222.4979,223.4807 C222.4979,223.4807 221.4389,221.2007 225.4389,213.7757 C229.4379,206.3497 237.6269,189.8437 237.6269,189.8437 L238.9599,178.1637 C238.9599,178.1637 235.0019,189.6517 232.4689,193.4587 C229.9349,197.2657 215.6129,208.1507 220.4669,221.8367" id="Fill-151" fill="#7BC7C9"></path>
                <path d="M99.2681,256.9803 C98.1831,256.8673 97.7431,256.0023 98.2901,255.0583 L130.4421,199.6253 C130.9891,198.6813 132.3201,198.0413 133.4001,198.2033 L219.0681,211.0503 C220.1471,211.2123 220.7601,212.1973 220.4291,213.2363 L203.6901,265.8513 C203.3591,266.8923 202.2011,267.6503 201.1151,267.5393 L99.2681,256.9803 Z" id="Fill-153" fill="#B4DDDF"></path>
                <path d="M99.3834,256.2361 C100.2894,256.3341 119.9734,258.4481 149.1664,261.5841 C156.6384,262.3971 164.7334,263.2811 173.3004,264.1501 C181.8674,265.0331 190.9024,265.9651 200.2474,266.9271 L201.1244,267.0211 L201.4694,267.0281 L201.8094,266.9681 C202.2564,266.8471 202.6944,266.5371 202.9484,266.1811 C203.2094,265.8541 203.3434,265.2241 203.5384,264.6661 L204.0844,262.9651 C204.8134,260.6931 205.5464,258.4061 206.2854,256.1041 C207.7694,251.5041 209.2714,246.8451 210.7844,242.1521 C213.8804,232.7851 217.0254,223.2681 220.1704,213.7531 C220.2714,213.4551 220.3734,213.1561 220.4214,212.8651 C220.4374,212.5711 220.4184,212.2611 220.2734,212.0001 C220.0244,211.4351 219.4314,211.1601 218.8184,211.0971 L215.1044,210.5391 C212.6294,210.1661 210.1564,209.7941 207.6884,209.4221 C202.7494,208.7031 197.8304,207.9861 192.9494,207.2751 C183.1864,205.8581 173.5784,204.4651 164.2804,203.1151 C154.9834,201.7651 145.9954,200.4611 137.4724,199.2241 C136.4064,199.0701 135.3484,198.9161 134.2984,198.7631 C133.7684,198.6961 133.2324,198.5741 132.8294,198.6271 C132.3864,198.6731 131.9414,198.8431 131.5604,199.0911 C130.8594,199.4841 130.4454,200.6071 129.9024,201.4491 C129.3904,202.3411 128.8824,203.2281 128.3784,204.1071 C126.3664,207.6251 124.4234,211.0221 122.5564,214.2841 C115.0764,227.3231 108.8414,238.1881 104.4784,245.7951 C102.2914,249.5941 100.5734,252.5801 99.4014,254.6161 C98.6394,255.8231 98.7794,255.9521 98.9164,256.0761 C98.9524,256.1681 99.4564,256.2511 99.4214,256.2441 L99.3834,256.2361 Z M99.1144,257.7161 C99.1144,257.7161 99.0384,257.7011 98.8874,257.6701 C98.8234,257.6621 98.2804,257.5371 97.9394,257.2111 C97.5484,256.9121 97.2014,256.1991 97.3474,255.5091 C97.3904,255.1751 97.5714,254.8301 97.7034,254.5901 C97.8344,254.3661 97.9734,254.1271 98.1224,253.8741 C99.3074,251.8451 101.0464,248.8721 103.2594,245.0871 C107.6944,237.5221 114.0294,226.7161 121.6324,213.7481 C123.5374,210.5091 125.5224,207.1341 127.5754,203.6421 C128.0884,202.7671 128.6054,201.8861 129.1264,200.9991 C129.3864,200.5541 129.6474,200.1081 129.9084,199.6601 C129.9874,199.5351 130.0124,199.4651 130.1344,199.2961 C130.2174,199.1871 130.2674,199.0901 130.3794,198.9721 C130.6014,198.7181 130.8404,198.5301 131.0794,198.3641 C131.5774,198.0471 132.1394,197.8341 132.7444,197.7731 C133.3944,197.7181 133.9044,197.8671 134.4234,197.9301 C135.4724,198.0931 136.5284,198.2571 137.5924,198.4221 C146.1034,199.7391 155.0784,201.1291 164.3634,202.5661 C173.6474,204.0041 183.2414,205.4891 192.9904,206.9981 C197.8654,207.7501 202.7784,208.5071 207.7114,209.2691 C210.1794,209.6381 212.6524,210.0071 215.1284,210.3781 L218.8424,210.9331 C219.4574,210.9901 220.1554,211.3001 220.4244,211.9271 C220.5844,212.2181 220.6074,212.5601 220.5884,212.8841 C220.5324,213.2131 220.4334,213.5091 220.3414,213.8061 C217.4104,223.3901 214.4794,232.9741 211.5934,242.4081 C210.1164,247.1151 208.6514,251.7831 207.2034,256.3961 C206.4774,258.7021 205.7544,260.9931 205.0374,263.2681 L204.5004,264.9711 L204.2324,265.8201 C204.1024,266.2051 204.0494,266.3671 203.7934,266.7501 C203.3594,267.3571 202.7704,267.7561 202.0834,267.9571 C201.9094,267.9971 201.7324,268.0271 201.5544,268.0541 C201.3774,268.0541 201.1794,268.0581 201.0174,268.0471 L200.1404,267.9591 C190.7964,266.9841 181.7634,266.0431 173.1974,265.1501 C164.6324,264.2441 156.5294,263.4471 149.0494,262.7111 L99.1544,257.7241 L99.1144,257.7161 Z" id="Fill-155" fill="#0094A7"></path>
                <path d="M104.7901,245.4686 C103.7061,245.3456 103.2801,244.4806 103.8451,243.5456 L130.4111,199.6076 C130.9761,198.6736 132.3231,198.0226 133.4051,198.1596 L219.0621,209.0936 C220.1441,209.2326 220.7141,210.1806 220.3271,211.2006 L203.7921,254.8236 C203.4051,255.8446 202.2021,256.5776 201.1171,256.4546 L104.7901,245.4686 Z" id="Fill-157" fill="#FFFFFF"></path>
                <path d="M104.8404,245.0262 C104.8404,245.0262 123.0774,247.0892 150.4324,250.1832 C164.1104,251.7342 180.0664,253.5442 197.1634,255.4842 C198.2314,255.6062 199.3044,255.7282 200.3814,255.8522 L201.1864,255.9432 L201.4984,255.9472 L201.8174,255.8952 C202.2414,255.7892 202.6494,255.5432 202.9454,255.2182 C203.0194,255.1412 203.0574,255.0682 203.1224,254.9982 C203.1834,254.9192 203.2434,254.7642 203.3044,254.6522 L203.5824,253.9312 L204.1664,252.3912 C204.5584,251.3632 204.9504,250.3322 205.3444,249.2972 C206.9394,245.1682 208.5544,240.9882 210.1824,236.7752 C213.4994,228.3732 216.8934,219.8452 220.2004,211.2852 C220.4194,210.7732 220.4284,210.1692 220.0754,209.7402 C219.9224,209.5142 219.6744,209.3812 219.4384,209.2732 C219.1634,209.1912 218.8964,209.1532 218.6034,209.1212 L215.1924,208.6832 C212.9194,208.3912 210.6484,208.0992 208.3814,207.8082 C203.8444,207.2522 199.3264,206.6952 194.8434,206.1442 C185.8774,205.0462 177.0534,203.9642 168.5144,202.9192 C159.9744,201.8732 151.7194,200.8632 143.8924,199.9042 C141.9354,199.6642 140.0054,199.4272 138.1034,199.1952 C137.1534,199.0782 136.2094,198.9632 135.2734,198.8482 C134.8054,198.7892 134.3394,198.7302 133.8764,198.6722 C133.3764,198.6012 133.0264,198.5602 132.6314,198.6362 C132.2384,198.7182 131.8604,198.8862 131.5224,199.1032 C131.3564,199.2222 131.2014,199.3432 131.0894,199.4642 C130.9744,199.5612 130.7894,199.8372 130.7184,199.9532 C130.2464,200.7342 129.7794,201.5062 129.3164,202.2732 C128.3904,203.8042 127.4814,205.3082 126.5914,206.7802 C119.4704,218.5602 113.5354,228.3772 109.3824,235.2482 C107.3044,238.6832 105.6734,241.3822 104.5604,243.2232 C104.4314,243.4452 104.2674,243.6882 104.1904,243.8552 C104.0984,244.0192 104.0624,244.1722 104.0484,244.3022 C104.0324,244.5632 104.1364,244.7222 104.2844,244.8202 C104.4824,244.9942 104.9234,245.0282 104.8844,245.0332 L104.8404,245.0262 Z M104.6954,245.9042 C104.6954,245.9042 104.6254,245.8882 104.4874,245.8592 C104.3914,245.8452 104.0474,245.7602 103.7424,245.5252 C103.4294,245.3262 103.1074,244.8182 103.1594,244.2502 C103.1814,243.9742 103.2624,243.6932 103.4014,243.4412 C103.5314,243.1812 103.6574,243.0062 103.7984,242.7632 C104.9114,240.9222 106.5434,238.2232 108.6214,234.7882 C112.7754,227.9172 118.7114,218.1012 125.8334,206.3222 C126.7234,204.8492 127.6324,203.3462 128.5584,201.8142 C129.0224,201.0482 129.4894,200.2752 129.9614,199.4962 C130.1334,199.2302 130.2024,199.1172 130.4124,198.8942 C130.6104,198.6752 130.8194,198.5172 131.0284,198.3692 C131.4634,198.0882 131.9404,197.8792 132.4564,197.7662 C132.9774,197.6532 133.5654,197.7222 133.9894,197.7832 C134.4534,197.8422 134.9194,197.9022 135.3864,197.9632 C136.3214,198.0872 137.2634,198.2132 138.2134,198.3382 C140.1114,198.5902 142.0394,198.8462 143.9944,199.1062 C151.8114,200.1442 160.0554,201.2402 168.5844,202.3732 C177.1114,203.5062 185.9244,204.6752 194.8794,205.8652 C199.3574,206.4572 203.8704,207.0542 208.4014,207.6542 C210.6684,207.9412 212.9394,208.2302 215.2134,208.5192 L218.6254,208.9512 C218.9024,208.9802 219.2044,209.0232 219.4804,209.1052 C219.7634,209.2262 220.0384,209.3812 220.2134,209.6332 C220.6164,210.1162 220.5974,210.8142 220.3664,211.3472 C217.1684,219.9492 214.0574,228.5842 210.9714,237.0742 C209.3974,241.3082 207.8354,245.5072 206.2934,249.6582 C205.9024,250.6932 205.5124,251.7252 205.1244,252.7532 L204.5414,254.2942 C204.4334,254.5692 204.3714,254.7652 204.2264,255.1042 C204.1574,255.2322 204.1234,255.3382 204.0274,255.4842 C203.9244,255.6282 203.8194,255.7912 203.7044,255.9102 C203.2634,256.3912 202.6974,256.7322 202.0664,256.8942 L201.5794,256.9732 C201.4134,256.9772 201.2444,256.9722 201.0774,256.9662 L200.2644,256.8772 C199.1874,256.7532 198.1144,256.6322 197.0464,256.5102 C179.9514,254.5502 163.9974,252.7202 150.3224,251.1522 C122.9724,248.0072 104.7394,245.9112 104.7394,245.9112 L104.6954,245.9042 Z" id="Fill-159" fill="#E65663"></path>
                <polygon id="Fill-161" fill="#B4DDDF" points="221.0303 209.3455 201.5393 247.4775 109.4543 238.1795 131.4373 197.9085"></polygon>
                <path d="M215.8223,207.4451 C215.8223,207.4451 211.9083,206.6701 208.5103,213.2851 C205.1133,219.9021 193.1333,243.3261 193.1333,243.3261 L104.4243,232.9531 C104.4243,232.9531 117.4973,209.5641 121.4313,205.1671 C125.3653,200.7691 124.4713,196.7771 137.3453,198.1481 C150.2193,199.5161 215.8223,207.4451 215.8223,207.4451" id="Fill-163" fill="#FFFFFF"></path>
                <path d="M233.1866,166.4373 C233.1866,166.4373 232.2856,174.1193 223.8886,185.5053 C222.6006,187.2653 221.5136,188.9953 220.5986,190.6693 C215.5916,199.8973 215.8216,207.4513 215.8216,207.4513 C215.8216,207.4513 143.2826,198.8083 140.2206,198.4633 C137.1596,198.1233 131.4376,197.9093 131.4376,197.9093 C129.7916,194.4473 133.6116,186.6933 138.4176,179.1113 C144.5116,169.4843 152.1796,160.1163 152.1796,160.1163 L233.1866,166.4373 Z" id="Fill-165" fill="#B4DDDF"></path>
                <path d="M233.1866,166.4373 C233.1866,166.4373 232.2856,174.1193 223.8886,185.5053 C222.6006,187.2653 221.5136,188.9953 220.5986,190.6693 L138.4176,179.1113 C144.5116,169.4843 152.1796,160.1163 152.1796,160.1163 L233.1866,166.4373 Z" id="Fill-167" fill="#FFFFFF"></path>
                <path d="M175.9991,174.6033 L182.0401,189.7103 C182.0401,189.7103 141.4901,201.7143 133.4321,205.4553 C125.3731,209.1933 133.4321,190.9793 133.4321,190.9793 L175.9991,174.6033 Z" id="Fill-169" fill="#7BC7C9"></path>
                <path d="M46.1925,237.4041 C46.1925,238.2071 46.4215,239.4651 46.7005,240.1991 C46.9795,240.9321 48.0365,241.8671 49.0485,242.2741 L80.6625,255.0091 C81.6755,255.4181 83.1885,255.1771 84.0255,254.4771 L101.1995,240.1111 C102.0365,239.4111 101.9135,238.4591 100.9255,237.9941 L65.2555,221.2461 C64.2685,220.7811 62.7965,221.0001 61.9855,221.7301 L47.6675,234.6171 C46.8555,235.3471 46.1925,236.6011 46.1925,237.4041" id="Fill-175" fill="#013A47"></path>
                <path d="M47.6671,234.617 C46.8561,235.347 46.1921,236.601 46.1921,237.404 C46.1921,238.207 47.0201,239.199 48.0321,239.609 L80.4101,252.721 C81.4211,253.13 82.9311,252.888 83.7651,252.183 L100.4121,238.117 C101.2461,237.412 101.1061,236.484 100.1031,236.056 L65.2851,221.181 C64.2811,220.754 62.7961,221 61.9851,221.73 L47.6671,234.617 Z" id="Fill-177" fill="#0094A7"></path>
                <path d="M48.0289,236.6971 C47.0189,236.2831 46.8559,235.3471 47.6669,234.6171 L61.9859,221.7301 C62.7969,221.0001 64.2949,220.7201 65.3139,221.1091 L98.6779,233.8371 C99.6969,234.2261 99.8689,235.1411 99.0579,235.8731 L83.9769,249.4701 C83.1669,250.2011 81.6769,250.4611 80.6669,250.0471 L48.0289,236.6971 Z" id="Fill-179" fill="#013A47"></path>
                <path d="M62.4434,229.1541 C62.4434,228.1361 61.2784,227.3121 59.8414,227.3121 C58.4024,227.3121 57.2374,228.1361 57.2374,229.1541 C57.2374,230.1701 58.4024,230.9941 59.8414,230.9941 C61.2784,230.9941 62.4434,230.1701 62.4434,229.1541" id="Fill-181" fill="#0094A7"></path>
                <g id="Group-208" transform="translate(0.000000, 65.451000)">
                    <mask id="mask-4" fill="white">
                        <use xlink:href="#path-3"></use>
                    </mask>
                    <g id="Clip-207"></g>
                    <polygon id="Fill-206" fill="#7BC8CA" mask="url(#mask-4)" points="-31.1879 142.2031 58.1861 0.3261 155.1051 39.9701 100.5391 97.0301"></polygon>
                </g>
                <path d="M93.9293,223.8602 C93.9293,223.8602 171.3753,187.5542 178.9923,184.8862 C178.9923,184.8862 172.3903,160.2172 166.2963,149.3812 C160.2013,138.5462 154.1083,125.3432 154.1083,125.3432 C154.1083,125.3432 146.4903,134.4392 136.4613,137.6342 C126.4323,140.8312 84.5343,151.8612 84.0273,155.1072 C83.5193,158.3512 81.9973,170.7952 86.0583,188.1872 C90.1203,205.5802 93.9293,223.8602 93.9293,223.8602" id="Fill-209" fill="#FFFFFF"></path>
                <path d="M58.1109,102.0008 C64.9679,109.9648 91.1609,107.1718 96.7459,106.9178 C102.3309,106.6628 102.6749,103.5088 102.6749,103.5088 C102.6749,103.5088 105.9309,99.0438 110.2239,93.7128 C114.5179,88.3808 120.4579,84.4488 125.0279,83.9428 C129.5979,83.4348 122.5939,83.9488 124.1359,84.0618 C127.5149,84.3148 136.7309,74.7318 125.5579,68.1308 C114.3839,61.5308 104.8729,55.3728 102.8399,55.1198 C100.8079,54.8648 93.9519,45.2178 90.1429,45.2178 C86.3349,45.2178 78.7179,39.1228 76.6859,36.8358 C74.6549,34.5528 58.9109,34.0448 63.7369,41.1528 C66.6139,45.3968 23.2249,75.9298 20.2399,91.5288 C18.2229,102.0698 55.6729,99.1698 58.1109,102.0008" id="Fill-211" fill="#013A47"></path>
                <path d="M112.9527,150.8221 C111.4697,149.7151 90.6147,134.1481 89.1257,133.0381 C84.3007,129.4371 79.8677,127.2181 79.2217,128.0841 C78.5757,128.9471 81.9687,132.5661 86.7897,136.1681 C88.2777,137.2791 109.1297,152.8431 110.6217,153.9511 C115.4407,157.5541 119.8767,159.7731 120.5237,158.9101 C121.1687,158.0451 117.7767,154.4241 112.9527,150.8221" id="Fill-213" fill="#0095A8"></path>
                <path d="M120.5279,158.9148 C119.8819,159.7768 115.4339,157.5518 110.6089,153.9498 L104.8739,149.6838 C105.4109,149.3598 105.9269,148.9038 106.3479,148.3398 C106.7689,147.7768 107.0559,147.1518 107.2159,146.5498 L112.9499,150.8198 C117.7749,154.4188 121.1729,158.0468 120.5279,158.9148" id="Fill-215" fill="#013A47"></path>
                <g id="Group-219" transform="translate(0.000000, 136.451000)">
                    <mask id="mask-6" fill="white">
                        <use xlink:href="#path-5"></use>
                    </mask>
                    <g id="Clip-218"></g>
                    <path d="M95.9449,0.7539 C95.0019,0.2049 93.4659,0.2169 92.5309,0.7809 L67.6809,15.7809 C66.7469,16.3459 65.0929,16.8929 64.0069,16.9979 L-0.3461,23.2189 C-1.4321,23.3239 -2.2401,24.2989 -2.1411,25.3869 L1.6879,67.5329 C1.7869,68.6209 2.6809,69.1409 3.6739,68.6879 L71.3309,37.9209 C72.3239,37.4689 74.0149,36.9359 75.0879,36.7349 L98.1619,32.4269 C99.2349,32.2269 100.9439,31.7359 101.9599,31.3359 L108.9609,28.5799 C109.9759,28.1799 110.8319,26.9609 110.8619,25.8699 L111.2509,11.6809 C111.2809,10.5899 110.5339,9.2479 109.5909,8.6989 L95.9449,0.7539 Z" id="Fill-217" fill="#F9D5DA" mask="url(#mask-6)"></path>
                </g>
                <path d="M94.8829,138.0809 C94.5239,137.0509 95.0019,136.6559 95.9449,137.2049 L109.5909,145.1499 C110.5339,145.6989 111.2809,147.0409 111.2509,148.1319 L110.8619,162.3209 C110.8319,163.4119 109.9759,164.6309 108.9609,165.0309 L101.9599,167.7869 C100.9439,168.1869 100.1759,167.6229 100.2529,166.5339 L100.3989,164.4609 C100.4759,163.3719 100.2569,161.6339 99.9129,160.5979 L97.7979,154.2319 C97.4539,153.1959 97.2039,151.4569 97.2439,150.3649 L97.3529,147.3589 C97.3929,146.2689 97.1309,144.5329 96.7719,143.5029 L94.8829,138.0809 Z" id="Fill-220" fill="#F19698"></path>
                <path d="M0.3927,185.0984 C0.3157,184.0094 1.1237,182.9234 2.1887,182.6854 L65.8237,168.4494 C66.8887,168.2104 68.3637,167.3574 69.1017,166.5534 L72.7187,162.6144 C73.4567,161.8104 74.7877,161.6694 75.6777,162.3024 L86.0597,169.6854 C86.9497,170.3184 86.7987,170.9994 85.7257,171.2004 L75.0877,173.1864 C74.0147,173.3864 72.3247,173.9194 71.3307,174.3714 L3.6737,205.1394 C2.6807,205.5914 1.8047,205.0704 1.7277,203.9814 L0.3927,185.0984 Z" id="Fill-222" fill="#F19698"></path>
                <path d="M180.4005,116.9959 C180.3555,115.9059 179.6005,114.4819 178.7235,113.8319 L159.1215,99.3159 C158.2445,98.6659 156.8125,97.5999 155.9395,96.9429 L125.5965,74.1739 C124.7245,73.5169 123.1455,73.2059 122.0885,73.4789 C122.0885,73.4789 110.6055,76.4519 106.9905,80.2189 C98.3055,89.2659 99.6595,101.4799 99.6595,101.4799 C99.7795,102.5639 100.7415,103.6809 101.7965,103.9609 L139.5655,113.9879 C140.6205,114.2669 141.5325,115.3889 141.5925,116.4779 L142.1225,126.1039 C142.1825,127.1939 142.7005,128.8459 143.2745,129.7729 L152.4735,144.6439 C153.0475,145.5719 153.8795,145.5159 154.3235,144.5189 L155.9105,140.9529 C156.3545,139.9549 156.3255,138.3369 155.8475,137.3549 L154.0115,133.5859 C153.5335,132.6049 153.7925,131.1889 154.5855,130.4409 L157.3185,127.8629 C158.1125,127.1129 159.0915,127.3299 159.4955,128.3449 L166.8175,146.7489 C167.2215,147.7639 168.4285,148.4279 169.5015,148.2259 L170.1415,148.1059 C171.2145,147.9049 172.1275,146.8479 172.1705,145.7579 L172.4235,139.4239 C172.4675,138.3339 173.3055,137.0509 174.2865,136.5719 L179.2965,134.1329 C180.2765,133.6539 181.0425,132.3709 180.9975,131.2809 L180.4005,116.9959 Z" id="Fill-224" fill="#F9D5DA"></path>
                <path d="M160.7423,126.6258 C159.6533,126.5568 159.0923,127.3298 159.4953,128.3448 L166.8183,146.7488 C167.2213,147.7638 168.4283,148.4278 169.5013,148.2268 L170.1413,148.1058 C171.2143,147.9048 172.1273,146.8478 172.1713,145.7578 L172.4243,139.4238 C172.4673,138.3338 173.3053,137.0508 174.2863,136.5718 L179.2963,134.1328 C180.2773,133.6538 181.0423,132.3708 180.9973,131.2808 L180.4003,116.9958 C180.3553,115.9058 179.7433,115.6968 179.0413,116.5328 L176.9563,119.0138 C176.2543,119.8498 174.7873,120.5858 173.6983,120.6488 L171.2293,120.7948 C170.1393,120.8588 168.6473,121.5718 167.9133,122.3798 L165.2103,125.3548 C164.4763,126.1628 162.9843,126.7678 161.8953,126.6988 L160.7423,126.6258 Z" id="Fill-226" fill="#F19698"></path>
                <path d="M159.4952,128.3445 C159.0922,127.3295 158.1122,127.1135 157.3182,127.8635 L154.5862,130.4415 C153.7922,131.1895 153.5342,132.6055 154.0122,133.5855 L155.8472,137.3555 C156.3262,138.3365 156.2112,138.4035 155.5932,137.5035 L153.0602,133.8155 C152.4422,132.9155 151.8142,131.2945 151.6652,130.2135 L149.7012,115.9575 C149.5522,114.8765 149.9642,114.7065 150.6172,115.5815 L157.5752,124.9105 C158.2282,125.7855 159.0922,127.3295 159.4952,128.3445 L160.3772,130.5625 C160.7802,131.5765 160.7802,131.5765 160.3772,130.5625 L159.4952,128.3445 Z" id="Fill-228" fill="#F19698"></path>
                <path d="M141.4,105.1248 C142.436,105.4708 142.984,106.5938 142.62,107.6218 L141.695,112.5228 C141.579,113.6088 140.621,114.2678 139.566,113.9878 L101.796,103.9608 C100.742,103.6818 99.78,102.5638 99.659,101.4798 L100.727,93.6208 C100.821,92.5328 101.745,91.9258 102.78,92.2698 L141.4,105.1248 Z" id="Fill-230" fill="#F19698"></path>
                <g id="Group-234" transform="translate(0.000000, 107.451000)">
                    <mask id="mask-8" fill="white">
                        <use xlink:href="#path-7"></use>
                    </mask>
                    <g id="Clip-233"></g>
                    <path d="M13.2764,50.4492 C16.8404,58.3642 15.3144,59.9242 14.5484,67.4202 C13.7884,74.9162 9.9674,85.0702 10.7294,90.4302 C11.4954,95.7942 7.4204,100.8872 -7.3476,103.4342 C-22.1146,105.9822 -27.9726,113.5872 -44.7786,104.5632 C-61.5816,95.5402 -68.7136,87.7052 -66.6756,83.2202 C-64.6396,78.7342 -82.2056,43.8552 -80.9336,34.9412 C-79.6606,26.0272 -11.9276,-9.3648 -4.5476,3.3642 C2.8384,16.0952 -7.0936,24.7552 -4.0386,31.8872 C-0.9826,39.0152 -1.4916,43.0042 0.0374,44.1892 C1.5644,45.3812 9.7124,42.5352 13.2764,50.4492" id="Fill-232" fill="#013A47" mask="url(#mask-8)"></path>
                </g>
                <path d="M232.9908,227.9324 C233.5948,231.9534 239.8868,234.3454 247.0448,233.2714 C254.2038,232.2014 259.5168,228.0704 258.9168,224.0504 L258.5418,186.1314 L220.0728,195.1774 L232.9908,227.9324 Z" id="Fill-235" fill="#E65663"></path>
                <path d="M259.4552,185.3494 C261.2332,192.7104 253.4932,200.8884 242.1762,203.6184 C230.8562,206.3494 220.2422,202.6014 218.4632,195.2404 C216.6902,187.8844 224.4232,179.6974 235.7442,176.9704 C247.0662,174.2404 257.6842,177.9914 259.4552,185.3494" id="Fill-237" fill="#FFFFFF"></path>
                <path d="M257.2872,185.0389 C259.2002,191.6989 252.6592,199.4179 242.6792,202.2819 C232.7012,205.1459 223.0642,202.0689 221.1502,195.4059 C219.2422,188.7469 225.7792,181.0219 235.7592,178.1599 C245.7412,175.2989 255.3792,178.3769 257.2872,185.0389" id="Fill-239" fill="#B4DDDF"></path>
            </g>
        </g>
    </g>
</svg>