<?xml version="1.0" encoding="UTF-8" standalone="no"?>
<svg width="172px" height="153px" viewBox="0 0 172 153" version="1.1" xmlns="http://www.w3.org/2000/svg" xmlns:xlink="http://www.w3.org/1999/xlink">
    <!-- Generator: Sketch 3.8.2 (29753) - http://www.bohemiancoding.com/sketch -->
    <title>Group 4</title>
    <desc>Created with Sketch.</desc>
    <defs></defs>
    <g id="Page-1" stroke="none" stroke-width="1" fill="none" fill-rule="evenodd">
        <g id="Desktop-Copy-18" transform="translate(-836.000000, -3024.000000)" fill="#FFFFFF">
            <g id="Group-4" transform="translate(836.000000, 3024.000000)">
                <path d="M14.1609379,124.691047 C12.651292,126.059744 10.7709563,127.14893 7.89341609,127.14893 C2.28107586,127.14893 0.172790805,121.926767 0.172790805,117.011395 C0.172790805,112.152163 2.56596322,107.348674 7.92208276,107.348674 C10.3721931,107.348674 12.0815172,107.962849 13.6198299,108.912674 L12.3948736,110.755791 C11.1697195,109.890174 9.74508506,109.443035 8.06422989,109.443035 C4.01906667,109.443035 2.68023448,113.688093 2.68023448,117.011395 C2.68023448,120.306628 3.87652414,125.082244 8.14983448,125.082244 C9.91609655,125.082244 11.5117425,124.328116 12.850377,123.099174 L14.1609379,124.691047" id="Fill-2"></path>
                <polygon id="Fill-3" points="21.1326713 107.823488 23.5541149 107.823488 23.5541149 126.813674 21.1326713 126.813674"></polygon>
                <path d="M31.298069,107.823488 L33.690846,107.823488 L33.690846,120.446186 C33.690846,124.77486 36.1409563,125.166058 38.3627218,125.166058 C41.6105563,125.166058 42.7220322,123.378884 42.7220322,121.423686 L42.7220322,107.823488 L45.1148092,107.823488 L45.1148092,121.228384 C45.1148092,124.858674 42.3230713,127.14893 38.277908,127.14893 C34.7449885,127.14893 31.298069,126.255047 31.298069,120.362767 L31.298069,107.823488" id="Fill-4"></path>
                <path d="M52.6011586,107.823488 L58.2423632,107.823488 C59.5240598,107.823488 66.3898253,107.823488 66.3898253,117.318384 C66.3898253,126.813674 59.5240598,126.813674 58.2423632,126.813674 L52.6011586,126.813674 L52.6011586,107.823488 L52.6011586,107.823488 Z M57.2449609,124.77486 C59.894354,124.77486 63.882777,124.719314 63.882777,117.318384 C63.882777,109.973593 59.894354,109.862105 57.2449609,109.862105 L54.9945287,109.862105 L54.9945287,124.77486 L57.2449609,124.77486 L57.2449609,124.77486 Z" id="Fill-5"></path>
                <path d="M84.6334897,126.813674 L82.6677471,121.172244 L75.5736368,121.172244 L73.5509563,126.813674 L71.0441057,126.813674 C73.3232046,120.474256 75.8019816,113.604279 77.9383402,107.795221 L80.6164,107.795221 C82.6677471,113.604279 85.0605241,120.474256 87.2540184,126.813674 L84.6334897,126.813674 L84.6334897,126.813674 Z M80.5881287,114.581977 C79.9329471,112.626779 79.5622575,111.314023 79.2490989,110.364791 L79.1921609,110.364791 C78.9068782,111.314023 78.5081149,112.626779 77.8246621,114.581977 L76.2009425,119.21764 C77.1408138,119.189372 78.2514989,119.189372 79.1634943,119.189372 C80.0750943,119.189372 81.2433103,119.189372 82.1264414,119.21764 L80.5881287,114.581977 L80.5881287,114.581977 Z" id="Fill-6"></path>
                <path d="M94.2257517,107.823488 L99.8663632,107.823488 C101.148257,107.823488 108.014418,107.823488 108.014418,117.318384 C108.014418,126.813674 101.148257,126.813674 99.8663632,126.813674 L94.2257517,126.813674 L94.2257517,107.823488 L94.2257517,107.823488 Z M98.8691586,124.77486 C101.518749,124.77486 105.506975,124.719314 105.506975,117.318384 C105.506975,109.973593 101.518749,109.862105 98.8691586,109.862105 L96.6185287,109.862105 L96.6185287,124.77486 L98.8691586,124.77486 L98.8691586,124.77486 Z" id="Fill-7"></path>
                <path d="M126.772501,126.813674 L124.806363,121.172244 L117.712846,121.172244 L115.690363,126.813674 L113.183513,126.813674 C115.462414,120.474256 117.940795,113.604279 120.077945,107.795221 L122.755609,107.795221 C124.806363,113.604279 127.199733,120.474256 129.393425,126.813674 L126.772501,126.813674 L126.772501,126.813674 Z M122.726943,114.581977 C122.071563,112.626779 121.701664,111.314023 121.388308,110.364791 L121.330579,110.364791 C121.046285,111.314023 120.647522,112.626779 119.963476,114.581977 L118.339954,119.21764 C119.279628,119.189372 120.390708,119.189372 121.302703,119.189372 C122.214106,119.189372 123.38252,119.189372 124.265255,119.21764 L122.726943,114.581977 L122.726943,114.581977 Z" id="Fill-8"></path>
                <path d="M135.849949,107.823488 L138.613218,107.823488 L145.478786,119.329128 C146.105499,120.362767 146.846285,121.758744 147.387789,123.099174 L147.473393,123.099174 C147.41606,120.948872 147.387789,119.189372 147.387789,117.346256 L147.387789,107.823488 L149.752097,107.823488 L149.752097,126.813674 L147.07463,126.813674 L140.208469,115.335907 C139.55309,114.246326 138.955241,113.017779 138.185789,111.398233 L138.100382,111.398233 C138.185789,113.492395 138.185789,115.335907 138.185789,117.150953 L138.214455,126.813674 L135.849949,126.813674 L135.849949,107.823488" id="Fill-9"></path>
                <path d="M155.951214,117.039267 C155.951214,112.124093 158.401522,107.348674 163.899591,107.348674 C169.397857,107.348674 171.904906,112.124093 171.904906,117.039267 C171.904906,121.926767 169.711214,127.14893 163.899591,127.14893 C158.116239,127.14893 155.951214,121.926767 155.951214,117.039267 L155.951214,117.039267 Z M169.369586,117.039267 C169.369586,113.688093 168.030359,109.387093 163.899591,109.387093 C159.825563,109.387093 158.458262,113.688093 158.458262,117.039267 C158.458262,120.278558 159.712083,125.166058 163.899591,125.166058 C168.14463,125.166058 169.369586,120.278558 169.369586,117.039267 L169.369586,117.039267 Z" id="Fill-10"></path>
                <polygon id="Fill-11" points="1.52308966 138.267721 3.31742529 138.267721 3.31742529 152.62343 1.52308966 152.62343"></polygon>
                <path d="M6.77067126,138.267721 L8.81845977,138.267721 L13.9072874,146.965791 C14.3714897,147.746802 14.9207034,148.801988 15.3218391,149.815465 L15.3853011,149.815465 C15.3429931,148.189988 15.3218391,146.86043 15.3218391,145.467023 L15.3218391,138.267721 L17.0740644,138.267721 L17.0740644,152.62343 L15.0897379,152.62343 L10.001108,143.946907 C9.51535632,143.123395 9.07171494,142.194128 8.50213793,140.96993 L8.43887356,140.96993 C8.50213793,142.553105 8.50213793,143.946907 8.50213793,145.319163 L8.52309425,152.62343 L6.77067126,152.62343 L6.77067126,138.267721" id="Fill-12"></path>
                <path d="M23.7794943,139.83014 C21.6255402,139.872244 19.4510253,139.872244 19.2396828,139.872244 L19.2396828,138.267721 L30.0711356,138.267721 L30.0711356,139.872244 C29.8599908,139.872244 27.7277839,139.872244 25.5526759,139.83014 L25.5526759,152.62343 L23.7794943,152.62343 L23.7794943,139.83014" id="Fill-13"></path>
                <path d="M33.0093701,138.267721 L41.3917011,138.267721 L41.3917011,139.893395 C41.1803586,139.893395 36.9997701,139.893395 34.7831448,139.872244 C34.7831448,140.08336 34.7831448,143.334314 34.7619908,144.390093 C36.788823,144.368942 40.4205931,144.368942 40.6319356,144.368942 L40.6319356,145.910209 C40.4205931,145.910209 36.788823,145.910209 34.7619908,145.88886 C34.7831448,148.147884 34.7831448,150.807988 34.7831448,151.019302 C37.0843862,150.997953 41.3917011,150.997953 41.6030437,150.997953 L41.6030437,152.62343 L33.0093701,152.62343 L33.0093701,138.267721" id="Fill-14"></path>
                <path d="M45.056092,138.267721 L46.8294713,138.267721 C46.8294713,138.478837 46.8083172,148.992349 46.7871632,151.040058 C49.0889977,150.997953 52.6148,150.997953 52.8259448,150.997953 L52.8259448,152.62343 L45.056092,152.62343 L45.056092,138.267721" id="Fill-15"></path>
                <polygon id="Fill-16" points="56.7940046 138.267721 58.5889333 138.267721 58.5889333 152.62343 56.7940046 152.62343"></polygon>
                <path d="M68.3219586,152.792047 C63.6981241,152.792047 61.2697609,149.752407 61.2697609,145.234558 C61.2697609,141.096837 63.3390989,137.908942 67.7098759,137.908942 C69.0609655,137.908942 70.4547586,138.225616 71.6793195,138.859163 L70.9399172,140.31543 C70.0743816,139.808988 68.7442483,139.492314 67.498731,139.492314 C64.3102069,139.492314 63.127954,142.088767 63.127954,145.234558 C63.127954,148.738733 64.6480782,151.293279 68.427531,151.293279 C69.1034713,151.293279 69.7153563,151.251174 70.2434161,150.997953 C70.2434161,150.828942 70.2434161,148.738733 70.2857241,145.88886 C68.5542575,145.930965 68.1108138,145.930965 67.8994713,145.930965 L67.8994713,144.368942 L72.0165977,144.368942 L72.0165977,152.201395 C71.1512598,152.560174 69.7365103,152.792047 68.3219586,152.792047" id="Fill-17"></path>
                <path d="M75.7274483,138.267721 L84.1097793,138.267721 L84.1097793,139.893395 C83.8984368,139.893395 79.7178483,139.893395 77.5010253,139.872244 C77.5010253,140.08336 77.5010253,143.334314 77.4798713,144.390093 C79.506308,144.368942 83.1380782,144.368942 83.349223,144.368942 L83.349223,145.910209 C83.1380782,145.910209 79.506308,145.910209 77.4798713,145.88886 C77.5010253,148.147884 77.5010253,150.807988 77.5010253,151.019302 C79.8022667,150.997953 84.1097793,150.997953 84.3209241,150.997953 L84.3209241,152.62343 L75.7274483,152.62343 L75.7274483,138.267721" id="Fill-18"></path>
                <path d="M87.5165655,138.267721 L89.5647494,138.267721 L94.6533793,146.965791 C95.117977,147.746802 95.6665977,148.801988 96.067931,149.815465 L96.1311954,149.815465 C96.0890851,148.189988 96.067931,146.86043 96.067931,145.467023 L96.067931,138.267721 L97.8205517,138.267721 L97.8205517,152.62343 L95.8356322,152.62343 L90.7472,143.946907 C90.2614483,143.123395 89.8184,142.194128 89.2480322,140.96993 L89.1845701,140.96993 C89.2480322,142.553105 89.2480322,143.946907 89.2480322,145.319163 L89.2691862,152.62343 L87.5165655,152.62343 L87.5165655,138.267721" id="Fill-19"></path>
                <path d="M105.040795,139.83014 C102.887632,139.872244 100.712722,139.872244 100.501379,139.872244 L100.501379,138.267721 L111.333228,138.267721 L111.333228,139.872244 C111.121687,139.872244 108.988887,139.872244 106.81457,139.83014 L106.81457,152.62343 L105.040795,152.62343 L105.040795,139.83014" id="Fill-20"></path>
                <path d="M114.013857,138.267721 L122.396189,138.267721 L122.396189,139.893395 C122.185044,139.893395 118.004455,139.893395 115.787039,139.872244 C115.787039,140.08336 115.787039,143.334314 115.765885,144.390093 C117.79331,144.368942 121.424685,144.368942 121.63583,144.368942 L121.63583,145.910209 C121.424685,145.910209 117.79331,145.910209 115.765885,145.88886 C115.787039,148.147884 115.787039,150.807988 115.787039,151.019302 C118.088874,150.997953 122.396189,150.997953 122.606938,150.997953 L122.606938,152.62343 L114.013857,152.62343 L114.013857,138.267721" id="Fill-21"></path>
                <path d="M126.665347,152.939907 C125.673085,152.939907 124.93388,152.180244 124.93388,151.209267 C124.93388,150.259047 125.673085,149.478035 126.665347,149.478035 C127.636455,149.478035 128.396814,150.259047 128.396814,151.209267 C128.396814,152.180244 127.636455,152.939907 126.665347,152.939907" id="Fill-22"></path>
                <path d="M131.209508,145.192058 C131.209508,141.244302 133.067503,137.803186 137.395972,137.803186 C141.745398,137.803186 143.624547,141.244302 143.624547,145.192058 C143.624547,148.907744 141.977894,152.897407 137.395972,152.897407 C132.856359,152.897407 131.209508,148.907744 131.209508,145.192058 L131.209508,145.192058 Z M140.542189,145.192058 C140.542189,142.849023 139.887007,140.400035 137.395972,140.400035 C134.968005,140.400035 134.292262,142.849023 134.292262,145.192058 C134.292262,147.493581 134.904938,150.385756 137.395972,150.385756 C139.950469,150.385756 140.542189,147.493581 140.542189,145.192058 L140.542189,145.192058 Z" id="Fill-23"></path>
                <path d="M146.820189,138.16236 L151.719025,138.16236 C152.71109,138.16236 156.743798,138.16236 156.743798,142.342384 C156.743798,144.643512 155.455972,145.63564 154.31583,146.100174 L154.31583,146.163035 C155.265784,146.458756 155.856713,147.788907 156.089209,148.59107 L157.313572,152.62343 L154.168147,152.62343 L153.049159,148.63357 C152.668782,147.324372 152.056303,146.965791 151.169811,146.965791 C151.021931,146.965791 150.493674,146.965791 149.712952,146.944837 C149.733908,149.24557 149.776216,152.433465 149.776216,152.62343 L146.820189,152.62343 L146.820189,138.16236 L146.820189,138.16236 Z M149.733908,144.601407 C150.472717,144.580058 151.423067,144.580058 151.571145,144.580058 C152.288602,144.580058 153.914497,144.580058 153.914497,142.637709 C153.914497,140.716709 152.288602,140.716709 151.571145,140.716709 C151.423067,140.716709 150.36754,140.716709 149.755062,140.69536 C149.755062,140.906477 149.755062,142.996884 149.733908,144.601407 L149.733908,144.601407 Z" id="Fill-24"></path>
                <path d="M166.383706,152.813395 C161.886202,152.813395 159.479389,149.752407 159.479389,145.192058 C159.479389,141.033581 161.633343,137.803186 166.172363,137.803186 C167.566156,137.803186 168.980708,138.141012 170.247577,138.795907 L169.043972,141.202198 C168.32612,140.758616 167.206736,140.48464 166.19332,140.48464 C163.406524,140.48464 162.56234,142.490244 162.56234,145.192058 C162.56234,149.055605 164.082069,150.301151 166.46852,150.301151 C166.911766,150.301151 167.33366,150.280198 167.734993,150.174442 C167.734993,149.984477 167.734993,148.697023 167.777103,146.416651 C166.404662,146.437605 166.130253,146.437605 165.918713,146.437605 C165.918713,146.3955 165.897559,144.073616 165.897559,144.052465 L170.564294,144.052465 L170.564294,151.990279 C169.550878,152.602081 167.840566,152.813395 166.383706,152.813395" id="Fill-25"></path>
                <path d="M54.549108,69.6146047 C53.4018483,69.6146047 52.2802897,70.1858837 51.6215494,71.2290116 C50.5990391,72.8481628 51.0828138,75.0095349 52.7108828,76.0338837 C53.2903448,76.405314 53.9384092,76.5828256 54.5787632,76.5828256 C55.4794897,76.5828256 56.3647954,76.2313605 57.0201747,75.5733023 C57.1951402,75.3973721 57.3570575,75.1925814 57.4910989,74.9751395 C58.5191448,73.347093 58.0280552,71.1946163 56.4090805,70.159593 C55.8308046,69.7905349 55.1861011,69.6146047 54.549108,69.6146047" id="Fill-26"></path>
                <path d="M44.5549195,54.6259419 C43.4078575,54.6261395 42.2864966,55.1974186 41.6289425,56.2397558 C40.6062345,57.8587093 41.0898115,60.0194884 42.7166943,61.045814 C43.2961563,61.4170465 43.9436276,61.5947558 44.5835862,61.5947558 C45.4841149,61.5947558 46.3690253,61.2426977 47.0249977,60.5836512 C47.2029287,60.4075233 47.3622759,60.2045116 47.4965149,59.9870698 C48.5247586,58.3588256 48.0334713,56.2069419 46.4139034,55.1713256 C45.836023,54.8020698 45.1915172,54.6259419 44.5549195,54.6259419" id="Fill-27"></path>
                <path d="M41.5553977,37.6389884 C40.408731,37.6389884 39.2883586,38.2096744 38.6296184,39.251814 C37.6069103,40.8723488 38.0930575,43.0317442 39.7195448,44.0598488 C40.2986115,44.4304884 40.9456874,44.6076047 41.5852506,44.6076047 C42.485977,44.6076047 43.3712828,44.2559419 44.0278483,43.5974884 C44.2036046,43.4197791 44.3635448,43.2167674 44.4973885,42.9991279 C45.5270161,41.3712791 45.0357287,39.2193953 43.416754,38.1843721 C42.8378851,37.8151163 42.1925885,37.6389884 41.5553977,37.6389884" id="Fill-28"></path>
                <path d="M44.553931,19.6512093 C43.4072644,19.6512093 42.2862989,20.222093 41.6289425,21.2628488 C40.6062345,22.8841744 41.0898115,25.0447558 42.7166943,26.0712791 C43.2961563,26.4419186 43.944023,26.6192326 44.5839816,26.6192326 C45.4843126,26.6192326 46.3690253,26.2679651 47.0249977,25.6091163 C47.2029287,25.4329884 47.3622759,25.2299767 47.4965149,25.0125349 C48.5247586,23.3842907 48.0334713,21.2300349 46.4139034,20.1967907 C45.8358253,19.8273372 45.1909241,19.6510116 44.553931,19.6512093" id="Fill-29"></path>
                <path d="M54.5500966,5.6617907 C53.4024414,5.6617907 52.2804874,6.23287209 51.6215494,7.27402326 C50.5990391,8.89475581 51.0828138,11.0561279 52.7108828,12.0822558 C53.2897517,12.4526977 53.9374207,12.629814 54.5771816,12.629814 C55.4786989,12.629814 56.3644,12.2781512 57.0201747,11.6198953 C57.1951402,11.4435698 57.3570575,11.2389767 57.4910989,11.023314 C58.5191448,9.39526744 58.0280552,7.24160465 56.4090805,6.20598837 C55.8312,5.83752326 55.1866943,5.6617907 54.5500966,5.6617907" id="Fill-30"></path>
                <path d="M117.51297,5.6617907 C116.365315,5.6617907 115.243559,6.23287209 114.584621,7.27402326 C113.563494,8.89475581 114.045885,11.0561279 115.674349,12.0822558 C116.252428,12.4526977 116.899503,12.629814 117.539067,12.629814 C118.439991,12.629814 119.326087,12.2781512 119.982851,11.6198953 C120.158805,11.4435698 120.318349,11.2389767 120.451995,11.023314 C121.480239,9.39526744 120.990929,7.24160465 119.371756,6.20598837 C118.793876,5.83752326 118.149568,5.6617907 117.51297,5.6617907" id="Fill-31"></path>
                <path d="M127.505182,20.6502558 C126.35812,20.6502558 125.236561,21.2217326 124.579205,22.2640698 C123.556497,23.8830233 124.041062,26.0438023 125.669131,27.0705233 C126.248593,27.4417558 126.896262,27.6194651 127.536221,27.6194651 C128.436354,27.6194651 129.321067,27.2678023 129.977237,26.6097442 C130.151609,26.4336163 130.312933,26.2292209 130.444998,26.009407 C131.476602,24.3817558 130.983536,22.2296744 129.364363,21.1960349 C128.786878,20.8265814 128.142175,20.6502558 127.505182,20.6502558" id="Fill-32"></path>
                <path d="M130.50332,37.6389884 C129.356455,37.6389884 128.235687,38.2096744 127.578331,39.251814 C126.553646,40.8723488 127.037816,43.0317442 128.665885,44.0598488 C129.244952,44.4304884 129.892225,44.6076047 130.531986,44.6076047 C131.43291,44.6076047 132.318809,44.2559419 132.976561,43.5974884 C133.15034,43.4197791 133.311467,43.2167674 133.444124,42.9991279 C134.474345,41.3712791 133.98108,39.2193953 132.363885,38.1843721 C131.785609,37.8151163 131.140313,37.6389884 130.50332,37.6389884" id="Fill-33"></path>
                <path d="M127.505775,54.6259419 C126.358515,54.6261395 125.236759,55.1974186 124.579205,56.2397558 C123.556497,57.8587093 124.041062,60.0194884 125.669131,61.045814 C126.248593,61.4170465 126.896064,61.5947558 127.535825,61.5947558 C128.436156,61.5947558 129.321067,61.2426977 129.977237,60.5836512 C130.151609,60.4075233 130.312933,60.2045116 130.444998,59.9870698 C131.476602,58.3588256 130.983536,56.2069419 129.364363,55.1713256 C128.787076,54.8020698 128.14257,54.6259419 127.505775,54.6259419" id="Fill-34"></path>
                <path d="M118.511361,69.6146047 C117.364299,69.6146047 116.242938,70.1858837 115.585384,71.2290116 C114.562676,72.8481628 115.046648,75.0095349 116.671356,76.0338837 C117.251411,76.405314 117.899674,76.5828256 118.540028,76.5828256 C119.440754,76.5828256 120.325862,76.2313605 120.981834,75.5733023 C121.157393,75.3973721 121.317136,75.1925814 121.451375,74.9751395 C122.4812,73.347093 121.99011,71.1946163 120.37074,70.159593 C119.79286,69.7905349 119.148156,69.6146047 118.511361,69.6146047" id="Fill-35"></path>
                <path d="M103.518694,79.6070465 C102.371632,79.6070465 101.250864,80.1781279 100.59331,81.2188837 C99.5690207,82.841593 100.055366,85.0009884 101.683434,86.029093 C102.261117,86.3993372 102.907798,86.5764535 103.547361,86.5764535 C104.44868,86.5764535 105.335172,86.2243953 105.991936,85.5647558 C106.165715,85.3906047 106.326841,85.1860116 106.46108,84.9681744 C107.489324,83.3403256 106.997839,81.1884419 105.378864,80.1528256 C104.800589,79.7831744 104.155687,79.6070465 103.518694,79.6070465" id="Fill-36"></path>
                <path d="M85.527692,82.6055698 C84.3816184,82.6055698 83.2616414,83.1762558 82.6046805,84.218 C81.5821701,85.8383372 82.0659448,87.9997093 83.6926299,89.0258372 C84.2722897,89.3970698 84.9199586,89.5743837 85.5595218,89.5743837 C86.4598529,89.5743837 87.3443678,89.2227209 88.0003402,88.5652558 C88.1766897,88.3875465 88.3382115,88.1845349 88.4720552,87.965314 C89.5020782,86.3370698 89.0088138,84.185186 87.3896414,83.1521395 C86.8107724,82.7818953 86.1652782,82.6055698 85.527692,82.6055698" id="Fill-37"></path>
                <path d="M68.540023,79.6070465 C67.3927632,79.6070465 66.2719954,80.1781279 65.6146391,81.2188837 C64.591931,82.841593 65.0757057,85.0009884 66.7017977,86.029093 C67.2806667,86.3993372 67.9281379,86.5764535 68.5677011,86.5764535 C69.4692184,86.5764535 70.3551172,86.2243953 71.010892,85.5647558 C71.1858575,85.3906047 71.3477747,85.1860116 71.4820138,84.9681744 C72.5102575,83.3403256 72.0187724,81.1884419 70.401577,80.1528256 C69.822708,79.7831744 69.1774115,79.6070465 68.540023,79.6070465" id="Fill-38"></path>
                <path d="M61.585292,66.9141744 C60.3326575,66.1222907 59.9588046,64.4598488 60.7458529,63.2105465 C61.5329011,61.9614419 63.1864736,61.5911977 64.4321885,62.3872326 C65.6792874,63.1854419 66.0584782,64.8439302 65.266092,66.0963953 C65.1632874,66.2656047 65.0395264,66.4231512 64.9052874,66.5569767 C64.0401471,67.4253605 62.6582161,67.601686 61.585292,66.9141744" id="Fill-39"></path>
                <path d="M54.2509747,55.9169535 C52.9979448,55.1242791 52.6258713,53.4618372 53.415292,52.2129302 C54.2019448,50.9640233 55.8519586,50.5921977 57.0992552,51.389814 C58.3469471,52.1858488 58.7259402,53.8449302 57.933554,55.0991744 C57.8285747,55.267593 57.7071862,55.4235581 57.5727494,55.5617326 C56.7076092,56.4281395 55.3258759,56.6022907 54.2509747,55.9169535" id="Fill-40"></path>
                <path d="M52.0509563,43.4527907 C50.7985195,42.6601163 50.4266437,40.9956977 51.213692,39.746593 C52.0007402,38.4992674 53.6525333,38.129814 54.8994345,38.9254535 C56.1473241,39.7230698 56.5245379,41.3801744 55.7321517,42.6350116 C55.6285563,42.8012558 55.5075632,42.9591977 55.3717425,43.0971744 C54.5064046,43.9637791 53.1264506,44.1379302 52.0509563,43.4527907" id="Fill-41"></path>
                <path d="M54.2509747,30.2536744 C52.9979448,29.4613953 52.6258713,27.7989535 53.415292,26.5514302 C54.2019448,25.3021279 55.8519586,24.9287209 57.0992552,25.7269302 C58.3469471,26.5249419 58.7259402,28.1850116 57.933554,29.4362907 C57.8285747,29.6047093 57.7071862,29.7640349 57.5727494,29.8984535 C56.7076092,30.7652558 55.3258759,30.9427674 54.2509747,30.2536744" id="Fill-42"></path>
                <path d="M61.585292,19.9904186 C60.3326575,19.1961628 59.9588046,17.5337209 60.7458529,16.2867907 C61.5329011,15.0372907 63.1864736,14.663686 64.4321885,15.4616977 C65.6792874,16.259314 66.0584782,17.9197791 65.266092,19.1726395 C65.1632874,19.3414535 65.0395264,19.499 64.9052874,19.6332209 C64.0401471,20.5016047 62.6582161,20.6775349 61.585292,19.9904186" id="Fill-43"></path>
                <path d="M107.783503,19.9904186 C106.528101,19.1961628 106.157016,17.5337209 106.943471,16.2867907 C107.732101,15.0372907 109.382313,14.663686 110.630202,15.4616977 C111.877697,16.259314 112.258271,17.9197791 111.464303,19.1726395 C111.362487,19.3414535 111.239517,19.499 111.100929,19.6332209 C110.238161,20.5016047 108.856625,20.6775349 107.783503,19.9904186" id="Fill-44"></path>
                <path d="M115.116041,30.9864535 C113.863407,30.1937791 113.487775,28.5317326 114.278382,27.2824302 C115.064639,26.034907 116.715444,25.6634767 117.964717,26.4606977 C119.212014,27.2569302 119.58903,28.915814 118.796841,30.1702558 C118.693048,30.3394651 118.572055,30.4950349 118.434257,30.632814 C117.571094,31.4980349 116.19114,31.6733721 115.116041,30.9864535" id="Fill-45"></path>
                <path d="M117.315664,43.4527907 C116.062239,42.6601163 115.688979,40.9956977 116.477609,39.746593 C117.264262,38.4992674 118.916055,38.129814 120.162363,38.9254535 C121.411637,39.7230698 121.790828,41.3801744 120.998046,42.6350116 C120.894648,42.8012558 120.771678,42.9591977 120.635264,43.0971744 C119.768543,43.9637791 118.390566,44.1379302 117.315664,43.4527907" id="Fill-46"></path>
                <path d="M115.116041,55.9169535 C113.863407,55.1242791 113.487775,53.4618372 114.278382,52.2129302 C115.064639,50.9640233 116.715444,50.5921977 117.964717,51.389814 C119.212014,52.1858488 119.58903,53.846314 118.796841,55.1007558 C118.693048,55.267593 118.572055,55.4235581 118.434257,55.5617326 C117.571094,56.4281395 116.19114,56.6022907 115.116041,55.9169535" id="Fill-47"></path>
                <path d="M108.515393,66.9141744 C107.262759,66.1222907 106.890883,64.4598488 107.677733,63.2105465 C108.466759,61.9614419 110.116575,61.5911977 111.364069,62.3872326 C112.611366,63.1854419 112.988579,64.8439302 112.196589,66.0963953 C112.095168,66.2656047 111.971605,66.4231512 111.836179,66.5569767 C110.970644,67.4253605 109.591085,67.601686 108.515393,66.9141744" id="Fill-48"></path>
                <path d="M97.5164874,74.246314 C96.2618759,73.4540349 95.8901977,71.7892209 96.6768506,70.540314 C97.4658759,69.2947674 99.1160874,68.9233372 100.363779,69.7189767 C101.61246,70.5152093 101.991651,72.1756744 101.19709,73.4305116 C101.094087,73.5973488 100.972106,73.7531163 100.834703,73.891093 C99.9717379,74.7575 98.5896092,74.9350116 97.5164874,74.246314" id="Fill-49"></path>
                <path d="M84.3161793,76.4472209 C83.0649287,75.6531628 82.6914713,73.9891395 83.4785195,72.7414186 C84.2653701,71.492314 85.9173609,71.1204884 87.1648552,71.9185 C88.4123494,72.7159186 88.7911448,74.3748023 87.997177,75.6280581 C87.8957563,75.7962791 87.7719954,75.9538256 87.6377563,76.0882442 C86.7712322,76.958407 85.3894989,77.1325581 84.3161793,76.4472209" id="Fill-50"></path>
                <path d="M71.852308,74.246314 C70.596708,73.4540349 70.2238437,71.7892209 71.010892,70.540314 C71.8009057,69.2947674 73.4530943,68.9233372 74.6990069,69.7189767 C75.9463034,70.5152093 76.3272736,72.1756744 75.531131,73.4305116 C75.4275356,73.5973488 75.3061471,73.7531163 75.1701287,73.891093 C74.3053839,74.7575 72.9254299,74.9350116 71.852308,74.246314" id="Fill-51"></path>
                <path d="M74.0386851,44.4638953 C74.6529425,44.4638953 75.2318115,44.8410581 75.4548184,45.4502907 C75.6944322,46.0958953 75.9899954,46.7173837 76.3434851,47.2995349 C78.3523264,50.6643488 81.8953287,52.6695581 85.8066483,52.6695581 C86.6447034,52.6695581 87.3190621,53.3422442 87.3190621,54.1746512 C87.3174805,55.0066628 86.6447034,55.6811279 85.8066483,55.6811279 C80.8999034,55.6811279 76.2796276,53.0631279 73.7539954,48.8532558 C73.3115402,48.11 72.9272092,47.3157442 72.6318437,46.4910465 C72.3416184,45.7131977 72.7403816,44.8467907 73.5201149,44.5583837 C73.6891494,44.4951279 73.8649057,44.4638953 74.0386851,44.4638953" id="Fill-52"></path>
                <path d="M74.691692,41.6245 C74.691692,42.4681744 74.0092276,43.1495581 73.1682069,43.1495581 C72.3252092,43.1495581 71.6437333,42.4681744 71.6437333,41.6245 C71.6437333,40.7855698 72.3252092,40.101814 73.1682069,40.101814 C74.0092276,40.101814 74.691692,40.7855698 74.691692,41.6245" id="Fill-53"></path>
                <path d="M102.294331,30.907186 L101.520726,29.7563256 L101.497793,29.7563256 C100.747715,28.6671395 99.9648184,27.6866744 99.2048552,26.7344767 L97.208469,28.3275349 C98.0279402,29.3544535 98.8792414,30.4213023 99.6516598,31.587186 L100.143145,32.3102791 L100.159554,32.3102791 C101.958239,35.0464884 102.901274,38.2517791 102.901274,41.6438721 C102.897517,51.0187791 95.2743586,58.6478256 85.8964046,58.6697674 C76.5239862,58.6478256 68.9026069,51.0187791 68.9065609,41.6438721 C68.9065609,38.2517791 69.8561195,35.0464884 71.6553977,32.3102791 L71.6807034,32.3102791 L72.1591402,31.587186 C72.9390713,30.4157674 73.7937333,29.3443721 74.6258575,28.3093488 C76.7430391,25.6512209 78.7473333,23.1405581 78.7473333,19.7808837 L78.7473333,18.6711395 C78.7870713,16.5303256 79.6316506,15.7358721 81.8656736,15.7358721 L89.9583724,15.7358721 C92.1937793,15.7358721 93.0383586,16.5303256 93.0733517,18.6403023 L93.0733517,19.7773256 C93.0733517,23.1405581 95.0766575,25.6512209 97.1970023,28.3127093 L97.208469,28.3275349 L99.1868644,26.7113488 C97.1983862,24.2149186 95.6278483,22.2429186 95.6278483,19.7773256 L95.6276506,18.598593 C95.5699218,15.1052907 93.5573241,13.1819186 89.9583724,13.1819186 L81.8656736,13.1819186 C77.2606207,13.1819186 76.2389011,16.1411047 76.1930345,18.624093 L76.1926391,19.7808837 C76.1926391,22.2429186 74.5442069,24.3121744 72.6344138,26.7089767 C71.7999172,27.7471628 71.0413379,28.703907 70.3143908,29.7563256 L70.2780138,29.7563256 L69.5208184,30.907186 C67.4475264,34.060093 66.351669,37.7730116 66.351669,41.642686 C66.3475172,52.4143605 75.1125977,61.1986163 85.8906713,61.2241163 L85.9025333,61.2241163 C96.6800138,61.1986163 105.451816,52.4155465 105.45577,41.6438721 C105.45577,37.7656977 104.362483,34.0531744 102.294331,30.907186" id="Fill-54"></path>
                <path d="M92.648492,6.1447093 L79.4418575,6.1462907 C78.8068414,6.1462907 78.2878759,6.81383721 78.2878759,7.63537209 C78.2878759,8.45888372 78.8068414,9.12919767 79.4418575,9.12919767 L92.6469103,9.12761628 C93.2856828,9.12761628 93.8046483,8.45769767 93.8046483,7.63537209 C93.8046483,6.81265116 93.2856828,6.1447093 92.648492,6.1447093" id="Fill-55"></path>
                <path d="M92.648492,0.012255814 L79.4418575,0.013244186 C78.8068414,0.013244186 78.2878759,0.680790698 78.2878759,1.50212791 C78.2878759,2.32643023 78.8068414,2.99615116 79.4418575,2.99615116 L92.6469103,2.99456977 C93.2856828,2.99456977 93.8046483,2.32484884 93.8046483,1.50212791 C93.8046483,0.679802326 93.2856828,0.012255814 92.648492,0.012255814" id="Fill-56"></path>
            </g>
        </g>
    </g>
</svg>