<?xml version="1.0" encoding="UTF-8" standalone="no"?>
<svg width="220px" height="37px" viewBox="0 0 220 37" version="1.1" xmlns="http://www.w3.org/2000/svg" xmlns:xlink="http://www.w3.org/1999/xlink">
    <!-- Generator: Sketch 39.1 (31720) - http://www.bohemiancoding.com/sketch -->
    <title>Page 1</title>
    <desc>Created with Sketch.</desc>
    <defs>
        <polygon id="path-1" points="0.015 37 11.743 37 11.743 0.3321 0.015 0.3321"></polygon>
        <path d="M5.173,0.759 C4.364,1.055 3.673,1.456 3.095,1.964 C2.519,2.472 2.07,3.072 1.745,3.764 C1.421,4.457 1.26,5.19 1.26,5.962 C1.26,8.203 2.624,9.911 5.356,11.093 L8.904,12.649 C11.051,13.605 12.12,14.868 12.12,16.434 C12.12,17.493 11.708,18.327 10.878,18.937 C10.049,19.548 8.917,19.854 7.481,19.854 C5.497,19.854 3.475,19.151 1.411,17.746 C0.765,18.236 0.409,18.853 0.349,19.609 C2.433,21.135 4.708,21.898 7.177,21.898 C9.686,21.898 11.536,21.358 12.727,20.28 C13.924,19.201 14.52,17.776 14.52,16.007 C14.52,13.645 13.013,11.804 9.998,10.482 L6.57,8.986 C5.639,8.6 4.915,8.155 4.4,7.657 C3.884,7.159 3.626,6.463 3.626,5.566 C3.626,5.137 3.727,4.727 3.929,4.33 C4.132,3.935 4.419,3.587 4.794,3.291 C5.17,2.997 5.612,2.759 6.129,2.575 C6.645,2.393 7.227,2.3 7.874,2.3 C8.583,2.3 9.354,2.412 10.195,2.635 C11.035,2.86 11.949,3.226 12.941,3.736 C13.571,3.226 13.883,2.575 13.883,1.781 C11.839,0.804 9.835,0.315 7.874,0.315 C6.883,0.315 5.982,0.465 5.173,0.759 L5.173,0.759 Z" id="path-3"></path>
        <path d="M7.362,0.682 L0.413,21.411 L0.473,21.503 C0.878,21.604 1.273,21.655 1.657,21.655 C2.041,21.655 2.365,21.623 2.629,21.564 L7.421,6.846 C7.726,5.933 8.069,4.723 8.455,3.216 L8.606,3.216 C8.87,4.232 9.384,5.933 10.153,8.314 L14.159,20.494 C14.3,20.984 14.474,21.309 14.675,21.471 C14.877,21.633 15.222,21.715 15.706,21.715 C16.19,21.715 16.597,21.614 16.919,21.411 L9.972,0.682 C9.708,0.621 9.292,0.591 8.727,0.591 C8.161,0.591 7.706,0.621 7.362,0.682 L7.362,0.682 Z" id="path-5"></path>
        <path d="M7.362,0.682 L0.412,21.411 L0.475,21.503 C0.88,21.604 1.27,21.655 1.657,21.655 C2.041,21.655 2.365,21.623 2.628,21.564 L7.423,6.846 C7.726,5.933 8.07,4.723 8.454,3.216 L8.604,3.216 C8.867,4.232 9.385,5.933 10.153,8.314 L14.157,20.494 C14.299,20.984 14.471,21.309 14.675,21.471 C14.876,21.633 15.22,21.715 15.706,21.715 C16.192,21.715 16.596,21.614 16.919,21.411 L9.97,0.682 C9.708,0.621 9.294,0.591 8.727,0.591 C8.16,0.591 7.705,0.621 7.362,0.682 L7.362,0.682 Z" id="path-7"></path>
        <path d="M2.757,2.789 C1.926,3.623 1.263,4.763 0.766,6.207 C0.274,7.651 0.025,9.331 0.025,11.243 C0.025,14.074 0.611,16.506 1.784,18.541 C2.392,19.579 3.251,20.397 4.364,20.998 C5.478,21.598 6.782,21.898 8.279,21.898 C10.929,21.898 13.335,21.452 15.499,20.554 L15.499,12.649 C15.499,12.079 15.358,11.666 15.075,11.413 C14.792,11.158 14.327,11.031 13.679,11.031 L9.066,11.031 C8.945,11.438 8.885,11.772 8.885,12.037 C8.885,12.772 9.239,13.137 9.946,13.137 L13.255,13.137 C13.236,13.482 13.226,14.102 13.226,14.998 L13.226,19.151 C11.829,19.619 10.322,19.854 8.704,19.854 C4.557,19.854 2.483,16.994 2.483,11.275 C2.483,8.181 3.048,5.933 4.182,4.527 C5.316,3.123 6.751,2.423 8.491,2.423 C10.676,2.423 12.587,3.082 14.225,4.408 C14.893,3.959 15.309,3.358 15.469,2.607 C14.618,1.894 13.579,1.332 12.345,0.927 C11.111,0.52 9.876,0.315 8.644,0.315 C6.356,0.315 4.393,1.139 2.757,2.789 L2.757,2.789 Z" id="path-9"></path>
        <path d="M2.427,0.682 L2.424,0.685 C1.147,0.685 0.108,1.726 0.101,3.011 L0.086,3.024 L0.086,19.192 C0.086,20.422 1.032,21.426 2.228,21.524 C2.243,21.525 2.257,21.531 2.268,21.531 L10.949,21.531 C11.8,21.531 12.294,21.174 12.436,20.463 C12.476,20.239 12.497,19.915 12.497,19.485 L4.182,19.485 C3.617,19.485 2.989,19.506 2.301,19.548 L2.332,18.386 L2.332,11.948 C2.779,11.966 3.384,11.977 4.151,11.977 L10.435,11.977 C10.495,11.63 10.525,11.3 10.525,10.986 C10.525,10.669 10.495,10.33 10.435,9.963 L4.151,9.963 L2.332,9.993 L2.332,5.363 C2.337,5.363 2.341,5.363 2.345,5.364 L2.345,4.592 L2.313,2.699 L4.732,2.699 C4.732,2.699 4.732,2.697 4.729,2.697 L11.891,2.697 C11.991,2.393 12.04,2.04 12.04,1.644 C12.04,1.247 12.021,0.927 11.979,0.682 L2.427,0.682 L2.427,0.682 Z" id="path-11"></path>
        <path d="M2.71,0.682 L2.706,0.685 C1.427,0.685 0.39,1.726 0.38,3.011 L0.368,3.024 L0.368,19.192 C0.368,20.422 1.313,21.426 2.511,21.524 C2.525,21.525 2.538,21.531 2.552,21.531 L11.23,21.531 C12.08,21.531 12.575,21.174 12.72,20.463 C12.759,20.239 12.778,19.915 12.778,19.485 L4.465,19.485 C3.899,19.485 3.271,19.506 2.584,19.548 L2.612,18.386 L2.612,11.948 C3.057,11.966 3.665,11.977 4.433,11.977 L10.716,11.977 C10.777,11.63 10.804,11.3 10.804,10.986 C10.804,10.669 10.777,10.33 10.716,9.963 L4.433,9.963 L2.612,9.993 L2.612,5.363 C2.618,5.363 2.622,5.363 2.626,5.364 L2.626,4.592 L2.596,2.699 L5.01,2.699 L5.01,2.697 L12.171,2.697 C12.273,2.393 12.323,2.04 12.323,1.644 C12.323,1.247 12.301,0.927 12.262,0.682 L2.71,0.682 L2.71,0.682 Z" id="path-13"></path>
        <path d="M5.643,0.682 L0.1,0.682 C0.04,1.049 0.008,1.387 0.008,1.704 C0.008,2.021 0.04,2.351 0.1,2.697 L3.986,2.697 L5.624,2.668 L5.624,21.531 C5.967,21.594 6.361,21.623 6.807,21.623 C7.251,21.623 7.636,21.594 7.959,21.531 L7.959,3.024 C7.959,1.735 6.923,0.691 5.645,0.682 L5.643,0.682 L5.643,0.682 Z" id="path-15"></path>
        <path d="M0.494,0.682 C0.433,1.049 0.403,1.387 0.403,1.704 C0.403,2.021 0.433,2.351 0.494,2.697 L4.377,2.697 L6.017,2.668 L6.017,21.531 C6.36,21.594 6.753,21.623 7.2,21.623 C7.646,21.623 8.028,21.594 8.353,21.531 L8.353,3.024 C8.353,1.735 7.317,0.691 6.038,0.682 L0.494,0.682 L0.494,0.682 Z" id="path-17"></path>
        <path d="M2.968,0.652 L2.733,0.654 C1.645,0.77 0.781,1.64 0.665,2.733 L0.665,21.531 C0.967,21.594 1.343,21.623 1.788,21.623 C2.212,21.623 2.608,21.594 2.972,21.531 L2.972,12.74 L6.128,12.74 C7.059,12.74 7.761,12.982 8.236,13.457 C8.712,13.937 9.122,14.635 9.466,15.549 L11.226,20.188 C11.446,20.759 11.675,21.156 11.908,21.382 C12.14,21.604 12.468,21.715 12.893,21.715 C13.643,21.715 14.178,21.462 14.501,20.951 C14.3,20.79 14.087,20.529 13.865,20.175 C13.643,19.817 13.419,19.355 13.198,18.786 L11.618,14.664 C11.095,13.28 10.415,12.456 9.586,12.19 C10.82,11.826 11.791,11.149 12.499,10.16 C13.208,9.173 13.561,7.998 13.561,6.634 C13.561,4.723 12.985,3.237 11.831,2.179 C10.677,1.122 9.058,0.591 6.978,0.591 L2.968,0.652 L2.968,0.652 Z M2.972,2.514 C3.354,2.535 3.853,2.541 4.458,2.541 L6.644,2.541 C7.514,2.541 8.236,2.652 8.811,2.864 C9.39,3.078 9.849,3.368 10.194,3.736 C10.537,4.102 10.781,4.535 10.921,5.031 C11.064,5.529 11.133,6.065 11.133,6.634 C11.133,7.185 11.064,7.707 10.921,8.209 C10.781,8.706 10.537,9.138 10.194,9.505 C9.849,9.87 9.398,10.164 8.842,10.39 C8.288,10.612 7.581,10.725 6.736,10.725 C5.886,10.725 5.152,10.732 4.534,10.741 C3.917,10.753 3.396,10.764 2.972,10.786 L2.972,2.514 L2.972,2.514 Z" id="path-19"></path>
    </defs>
    <g id="Page-1" stroke="none" stroke-width="1" fill="none" fill-rule="evenodd">
        <g id="Desktop" transform="translate(-46.000000, -13.000000)">
            <g id="Page-1" transform="translate(46.000000, 12.000000)">
                <polygon id="Fill-1" fill="#F29799" points="0.7929 32.9547 5.4019 36.2447 24.1399 12.6917 25.7789 8.1627 22.9649 5.7857"></polygon>
                <polygon id="Fill-2" fill="#EB5F69" points="51.8623 2.373 48.3803 6.49 48.3803 36.3 54.0643 36.3 57.3823 32.164 57.3823 2.373"></polygon>
                <g id="Group-10" transform="translate(0.000000, 0.760700)">
                    <g id="Group-5" transform="translate(47.000000, 0.000000)">
                        <mask id="mask-2" fill="white">
                            <use xlink:href="#path-1"></use>
                        </mask>
                        <g id="Clip-4"></g>
                        <path d="M8.085,34.3711 L8.085,34.3581 L7.306,35.3311 L7.306,8.9511 C7.306,8.8071 7.189,8.6901 7.046,8.6901 C6.903,8.6901 6.786,8.8071 6.786,8.9511 L6.786,35.4321 C6.786,35.5131 6.824,35.5821 6.882,35.6301 L1.38,35.6301 L1.38,6.2951 C1.401,6.3011 1.429,6.3071 1.455,6.3071 L5.266,6.3071 C5.409,6.3071 5.524,6.1901 5.524,6.0471 C5.524,5.9031 5.409,5.7861 5.266,5.7861 L1.455,5.7861 C1.437,5.7861 1.42,5.7881 1.401,5.7931 L4.862,1.7031 L10.121,1.7031 C10.05,1.7031 9.98,1.7321 9.931,1.7911 L8.121,3.8461 C8.028,3.9511 8.036,4.1171 8.146,4.2141 C8.192,4.2551 8.253,4.2771 8.315,4.2771 C8.388,4.2771 8.458,4.2471 8.509,4.1891 L10.317,2.1371 C10.411,2.0281 10.401,1.8631 10.295,1.7681 C10.245,1.7251 10.185,1.7031 10.124,1.7031 L10.381,1.7031 L10.381,16.6361 L8.689,18.5581 C8.595,18.6651 8.605,18.8301 8.712,18.9251 C8.76,18.9711 8.822,18.9911 8.884,18.9911 C8.955,18.9911 9.025,18.9621 9.077,18.9031 L10.381,17.4201 L10.381,31.4951 L8.085,34.3711 Z M11.743,2.1301 C11.739,1.2131 11.054,0.4531 10.157,0.3471 L5.064,0.3321 C4.561,0.3321 4.078,0.5511 3.73,0.9321 L0.539,4.7731 C0.459,4.8571 0.382,4.9521 0.314,5.0571 L0.287,5.0981 C0.249,5.1611 0.214,5.2251 0.168,5.3281 C0.145,5.3831 0.123,5.4371 0.101,5.5061 L0.085,5.5621 C0.067,5.6201 0.054,5.6781 0.044,5.7341 L0.032,5.8061 L0.034,5.8091 C0.021,5.8891 0.015,5.9691 0.015,6.0511 L0.015,6.0621 L0.015,35.2661 L0.018,35.3591 L0.024,35.3641 C0.106,36.2421 0.816,36.9361 1.69,36.9971 L6.869,37.0001 C7.364,37.0001 7.845,36.7901 8.19,36.4141 L11.259,32.5621 C11.326,32.4871 11.39,32.4091 11.433,32.3411 L11.468,32.2881 C11.65,31.9981 11.743,31.6681 11.743,31.3251 L11.743,2.1301 Z" id="Fill-3" fill="#FFFFFF" mask="url(#mask-2)"></path>
                    </g>
                    <path d="M40.8721,34.2783 L40.8721,34.2653 L40.0241,35.3193 L40.0241,8.8573 C40.0241,8.7143 39.9091,8.5983 39.7671,8.5983 C39.6241,8.5983 39.5091,8.7143 39.5091,8.8573 L39.5091,35.5393 L34.1651,35.5393 L34.1651,6.2143 L37.7671,6.2143 C37.9111,6.2143 38.0261,6.0983 38.0261,5.9543 C38.0261,5.8093 37.9111,5.6943 37.7671,5.6943 L34.1921,5.6943 L37.6491,1.6123 L43.1681,1.6123 L43.1681,1.8493 C43.1531,1.8263 43.1421,1.8063 43.1201,1.7903 C43.0691,1.7463 43.0101,1.7213 42.9481,1.7213 C42.8771,1.7213 42.8061,1.7543 42.7571,1.8123 L40.9471,3.8633 C40.8531,3.9733 40.8621,4.1363 40.9711,4.2313 C41.0181,4.2763 41.0811,4.2983 41.1421,4.2983 C41.2141,4.2983 41.2831,4.2683 41.3331,4.2113 L43.1421,2.1553 C43.1531,2.1443 43.1611,2.1323 43.1681,2.1213 L43.1681,16.2843 L41.4441,18.2413 C41.3511,18.3493 41.3621,18.5143 41.4671,18.6093 C41.5181,18.6523 41.5791,18.6733 41.6381,18.6733 C41.7101,18.6733 41.7821,18.6443 41.8331,18.5883 L43.1681,17.0713 L43.1681,31.4033 L40.8721,34.2783 Z M33.5521,4.3693 L33.1421,4.8373 C33.1071,4.8793 33.0761,4.9233 33.0501,4.9783 C33.0331,5.0113 33.0281,5.0473 33.0301,5.0823 C33.0051,5.1243 32.9821,5.1713 32.9541,5.2343 C32.9311,5.2903 32.9091,5.3443 32.8901,5.4153 L32.8701,5.4713 C32.8541,5.5273 32.8411,5.5843 32.8311,5.6433 L32.8231,5.6903 C32.8091,5.7773 32.8021,5.8673 32.8021,5.9563 L32.8021,5.9713 L32.8021,10.7973 C32.7791,10.8303 32.7641,10.8673 32.7641,10.9103 L32.7271,13.0633 L30.7241,18.8563 L29.1631,20.6293 C29.0691,20.7353 29.0791,20.9013 29.1831,20.9963 C29.2331,21.0413 29.2941,21.0593 29.3541,21.0593 C29.4271,21.0593 29.4991,21.0323 29.5501,20.9763 L30.2751,20.1503 L26.4771,31.1383 L24.2221,33.8093 C24.2201,33.8133 24.2121,33.8183 24.2081,33.8213 L22.8371,35.4443 L22.7501,35.4143 C22.7551,35.4053 22.7631,35.3953 22.7671,35.3833 L31.0591,12.4573 C31.1081,12.3243 31.0381,12.1733 30.9031,12.1243 C30.8751,12.1133 30.8471,12.1083 30.8151,12.1083 C30.7101,12.1083 30.6121,12.1733 30.5731,12.2783 L22.2801,35.2063 C22.2761,35.2143 22.2721,35.2293 22.2701,35.2393 L17.6381,33.5453 L27.4981,6.2933 L27.6791,5.7803 L30.7741,6.8793 C30.8031,6.8883 30.8331,6.8943 30.8601,6.8943 C30.9681,6.8943 31.0691,6.8263 31.1061,6.7193 C31.1531,6.5853 31.0811,6.4343 30.9481,6.3873 L27.9521,5.3263 L28.1711,4.9763 L30.8291,1.7633 L34.6021,3.1443 L33.6351,4.3123 C33.6031,4.3223 33.5731,4.3413 33.5521,4.3693 L33.5521,4.3693 Z M5.2371,35.5763 L1.1831,32.1513 L19.6241,9.0893 L22.2121,11.2743 C22.2611,11.3143 22.3191,11.3363 22.3781,11.3363 C22.4501,11.3363 22.5241,11.3023 22.5751,11.2433 C22.6691,11.1323 22.6531,10.9673 22.5451,10.8753 L19.9481,8.6843 L22.8001,5.1163 L25.6161,7.4943 L24.1381,11.5793 L24.1341,11.5763 L23.9761,12.0233 L23.5831,12.5893 L5.2371,35.5763 Z M42.9461,0.2533 L37.8491,0.2393 C37.3481,0.2393 36.8601,0.4563 36.5151,0.8393 L35.5301,2.0263 L31.5991,0.5893 L31.5981,0.5933 C31.5951,0.5923 31.5911,0.5923 31.5881,0.5923 L31.5901,0.5903 C30.8601,0.3203 30.0731,0.5503 29.5931,1.1303 C29.5771,1.1383 29.5631,1.1513 29.5521,1.1683 L26.8471,4.4403 C26.8431,4.4463 26.8401,4.4523 26.8361,4.4613 C26.8211,4.4763 26.8081,4.4953 26.7861,4.5233 C26.7741,4.5353 26.7651,4.5463 26.7551,4.5573 C26.7451,4.5723 26.7351,4.5873 26.7241,4.6113 C26.6961,4.6493 26.6731,4.6873 26.6491,4.7263 C26.6281,4.7653 26.6061,4.8043 26.5851,4.8493 C26.5791,4.8573 26.5621,4.8873 26.5581,4.8943 C26.5581,4.9003 26.5541,4.9073 26.5541,4.9193 C26.5461,4.9303 26.5381,4.9433 26.5331,4.9573 L26.1111,6.1243 L23.9311,4.2823 C23.2041,3.7393 22.1211,3.8453 21.5081,4.5403 L0.3561,31.0103 C0.1241,31.3253 0.0001,31.6993 0.0001,32.0903 C0.0001,32.5813 0.2041,33.0523 0.5651,33.3973 L4.0571,36.3743 C4.3791,36.6333 4.7631,36.7673 5.1711,36.7673 C5.7081,36.7673 6.2121,36.5293 6.5651,36.1003 L22.4811,16.1553 L16.5361,32.5943 C16.5341,32.5973 16.5191,32.6383 16.5191,32.6423 L16.4781,32.7483 C16.4741,32.7683 16.4691,32.7903 16.4691,32.8123 C16.4211,32.9793 16.3991,33.1333 16.3991,33.2843 C16.3991,33.9983 16.8271,34.6443 17.4741,34.9313 C17.4831,34.9383 17.4931,34.9453 17.5031,34.9503 C17.5361,34.9693 17.5671,34.9813 17.5991,34.9893 L22.1161,36.6423 C22.1381,36.6503 22.1591,36.6553 22.1831,36.6563 C22.3361,36.7043 22.4931,36.7303 22.6491,36.7373 C22.6611,36.7373 22.6941,36.7403 22.7081,36.7393 C22.8101,36.7393 22.9121,36.7303 23.0341,36.7053 C23.0671,36.6993 23.1011,36.6933 23.1511,36.6813 C23.1731,36.6773 23.1961,36.6733 23.2161,36.6663 C23.2331,36.6603 23.2531,36.6503 23.2681,36.6423 C23.5541,36.5483 23.8081,36.3873 24.0111,36.1763 L27.5251,32.0133 C27.6331,31.8703 27.7221,31.7063 27.7691,31.5573 C27.7761,31.5473 27.7861,31.5223 27.7901,31.5103 L32.8021,17.0153 L32.8021,35.1733 L32.8061,35.2663 L32.8131,35.2743 C32.8931,36.1493 33.6031,36.8443 34.4761,36.9033 L39.6531,36.9103 C40.1511,36.9103 40.6321,36.6973 40.9761,36.3213 L44.0441,32.4693 C44.1121,32.3943 44.1771,32.3173 44.2211,32.2483 L44.2511,32.2073 L44.2541,32.1943 C44.4351,31.9073 44.5311,31.5743 44.5311,31.2333 L44.5311,2.0383 C44.5261,1.1203 43.8381,0.3603 42.9461,0.2533 L42.9461,0.2533 Z" id="Fill-6" fill="#FFFFFF"></path>
                    <path d="M90.1729,8.7588 C89.3629,9.0548 88.6729,9.4548 88.0949,9.9638 C87.5189,10.4718 87.0689,11.0718 86.7449,11.7638 C86.4209,12.4568 86.2599,13.1898 86.2599,13.9618 C86.2599,16.2028 87.6239,17.9108 90.3569,19.0928 L93.9039,20.6488 C96.0509,21.6048 97.1199,22.8678 97.1199,24.4348 C97.1199,25.4918 96.7079,26.3268 95.8779,26.9378 C95.0489,27.5478 93.9169,27.8548 92.4819,27.8548 C90.4969,27.8548 88.4759,27.1518 86.4109,25.7458 C85.7649,26.2358 85.4089,26.8538 85.3489,27.6088 C87.4339,29.1348 89.7079,29.8988 92.1769,29.8988 C94.6869,29.8988 96.5359,29.3588 97.7279,28.2798 C98.9249,27.2008 99.5209,25.7768 99.5209,24.0068 C99.5209,21.6458 98.0129,19.8038 94.9979,18.4818 L91.5689,16.9858 C90.6389,16.5998 89.9149,16.1548 89.3999,15.6568 C88.8839,15.1588 88.6259,14.4628 88.6259,13.5658 C88.6259,13.1378 88.7279,12.7268 88.9289,12.3298 C89.1319,11.9348 89.4189,11.5868 89.7939,11.2908 C90.1699,10.9968 90.6119,10.7588 91.1289,10.5748 C91.6459,10.3938 92.2269,10.2998 92.8739,10.2998 C93.5829,10.2998 94.3549,10.4118 95.1939,10.6348 C96.0339,10.8608 96.9489,11.2258 97.9409,11.7358 C98.5699,11.2258 98.8829,10.5748 98.8829,9.7818 C96.8389,8.8038 94.8349,8.3158 92.8739,8.3158 C91.8829,8.3158 90.9819,8.4648 90.1729,8.7588" id="Fill-8" fill="#FFFFFF"></path>
                </g>
                <g id="Group-13" transform="translate(85.000000, 8.760700)">
                    <mask id="mask-4" fill="white">
                        <use xlink:href="#path-3"></use>
                    </mask>
                    <g id="Clip-12"></g>
                    <polygon id="Fill-11" fill="#FFFFFF" mask="url(#mask-4)" points="-4.759 27.008 19.626 27.008 19.626 -4.793 -4.759 -4.793"></polygon>
                </g>
                <path d="M141.3623,9.4433 L134.4133,30.1723 L134.4733,30.2633 C134.8783,30.3643 135.2723,30.4163 135.6573,30.4163 C136.0413,30.4163 136.3653,30.3833 136.6293,30.3253 L141.4213,15.6073 C141.7253,14.6933 142.0693,13.4843 142.4553,11.9763 L142.6053,11.9763 C142.8693,12.9933 143.3853,14.6933 144.1533,17.0753 L148.1593,29.2553 C148.2993,29.7443 148.4733,30.0693 148.6763,30.2323 C148.8773,30.3943 149.2213,30.4763 149.7063,30.4763 C150.1903,30.4763 150.5963,30.3743 150.9193,30.1723 L143.9713,9.4433 C143.7083,9.3823 143.2923,9.3523 142.7273,9.3523 C142.1613,9.3523 141.7063,9.3823 141.3623,9.4433" id="Fill-14" fill="#FFFFFF"></path>
                <g id="Group-18" transform="translate(134.000000, 8.760700)">
                    <mask id="mask-6" fill="white">
                        <use xlink:href="#path-5"></use>
                    </mask>
                    <g id="Clip-17"></g>
                    <polygon id="Fill-16" fill="#FFFFFF" mask="url(#mask-6)" points="-4.695 26.823 22.029 26.823 22.029 -4.519 -4.695 -4.519"></polygon>
                </g>
                <path d="M210.3623,9.4433 L203.4123,30.1723 L203.4743,30.2633 C203.8803,30.3643 204.2703,30.4163 204.6573,30.4163 C205.0413,30.4163 205.3643,30.3833 205.6283,30.3253 L210.4233,15.6073 C210.7253,14.6933 211.0693,13.4843 211.4543,11.9763 L211.6043,11.9763 C211.8673,12.9933 212.3853,14.6933 213.1533,17.0753 L217.1573,29.2553 C217.2993,29.7443 217.4713,30.0693 217.6743,30.2323 C217.8763,30.3943 218.2203,30.4763 218.7063,30.4763 C219.1923,30.4763 219.5953,30.3743 219.9203,30.1723 L212.9693,9.4433 C212.7083,9.3823 212.2943,9.3523 211.7263,9.3523 C211.1603,9.3523 210.7053,9.3823 210.3623,9.4433" id="Fill-19" fill="#FFFFFF"></path>
                <g id="Group-23" transform="translate(203.000000, 8.760700)">
                    <mask id="mask-8" fill="white">
                        <use xlink:href="#path-7"></use>
                    </mask>
                    <g id="Clip-22"></g>
                    <polygon id="Fill-21" fill="#FFFFFF" mask="url(#mask-8)" points="-4.695 26.823 22.027 26.823 22.027 -4.519 -4.695 -4.519"></polygon>
                </g>
                <path d="M187.7569,11.5498 C186.9269,12.3838 186.2629,13.5238 185.7669,14.9678 C185.2749,16.4118 185.0249,18.0918 185.0249,20.0038 C185.0249,22.8338 185.6109,25.2668 186.7839,27.3018 C187.3919,28.3398 188.2509,29.1568 189.3629,29.7588 C190.4779,30.3588 191.7819,30.6588 193.2779,30.6588 C195.9289,30.6588 198.3349,30.2128 200.4989,29.3158 L200.4989,21.4088 C200.4989,20.8398 200.3589,20.4268 200.0749,20.1738 C199.7919,19.9178 199.3269,19.7918 198.6789,19.7918 L194.0659,19.7918 C193.9439,20.1988 193.8849,20.5328 193.8849,20.7978 C193.8849,21.5328 194.2389,21.8988 194.9459,21.8988 L198.2549,21.8988 C198.2359,22.2428 198.2259,22.8628 198.2259,23.7588 L198.2259,27.9118 C196.8289,28.3798 195.3219,28.6148 193.7039,28.6148 C189.5569,28.6148 187.4819,25.7548 187.4819,20.0348 C187.4819,16.9428 188.0479,14.6928 189.1819,13.2878 C190.3159,11.8838 191.7509,11.1838 193.4909,11.1838 C195.6759,11.1838 197.5869,11.8428 199.2249,13.1678 C199.8929,12.7198 200.3089,12.1188 200.4689,11.3668 C199.6179,10.6538 198.5789,10.0928 197.3449,9.6878 C196.1109,9.2808 194.8759,9.0758 193.6439,9.0758 C191.3569,9.0758 189.3939,9.8998 187.7569,11.5498" id="Fill-24" fill="#FFFFFF"></path>
                <g id="Group-28" transform="translate(185.000000, 8.760700)">
                    <mask id="mask-10" fill="white">
                        <use xlink:href="#path-9"></use>
                    </mask>
                    <g id="Clip-27"></g>
                    <polygon id="Fill-26" fill="#FFFFFF" mask="url(#mask-10)" points="-5.083 27.008 20.608 27.008 20.608 -4.793 -5.083 -4.793"></polygon>
                </g>
                <path d="M72.4268,9.4433 L72.4238,9.4463 C71.1468,9.4463 70.1088,10.4873 70.1008,11.7713 L70.0858,11.7853 L70.0858,27.9523 C70.0858,29.1823 71.0308,30.1873 72.2278,30.2843 C72.2428,30.2863 72.2578,30.2923 72.2688,30.2923 L80.9478,30.2923 C81.7998,30.2923 82.2938,29.9353 82.4368,29.2233 C82.4758,29.0003 82.4968,28.6753 82.4968,28.2463 L74.1828,28.2463 C73.6168,28.2463 72.9888,28.2663 72.3018,28.3083 L72.3318,27.1473 L72.3318,20.7083 C72.7788,20.7263 73.3838,20.7373 74.1518,20.7373 L80.4348,20.7373 C80.4948,20.3903 80.5248,20.0603 80.5248,19.7463 C80.5248,19.4293 80.4948,19.0913 80.4348,18.7233 L74.1518,18.7233 L72.3318,18.7543 L72.3318,14.1243 C72.3368,14.1243 72.3408,14.1243 72.3448,14.1253 L72.3448,13.3523 L72.3138,11.4603 L74.7318,11.4603 C74.7318,11.4603 74.7318,11.4583 74.7288,11.4583 L81.8908,11.4583 C81.9908,11.1543 82.0398,10.8003 82.0398,10.4043 C82.0398,10.0073 82.0208,9.6873 81.9798,9.4433 L72.4268,9.4433 Z" id="Fill-29" fill="#FFFFFF"></path>
                <g id="Group-33" transform="translate(70.000000, 8.760700)">
                    <mask id="mask-12" fill="white">
                        <use xlink:href="#path-11"></use>
                    </mask>
                    <g id="Clip-32"></g>
                    <polygon id="Fill-31" fill="#FFFFFF" mask="url(#mask-12)" points="-5.021 26.641 17.605 26.641 17.605 -4.427 -5.021 -4.427"></polygon>
                </g>
                <path d="M171.71,9.4433 L171.706,9.4463 C170.427,9.4463 169.39,10.4873 169.38,11.7713 L169.368,11.7853 L169.368,27.9523 C169.368,29.1823 170.314,30.1873 171.511,30.2843 C171.524,30.2863 171.538,30.2923 171.552,30.2923 L180.231,30.2923 C181.08,30.2923 181.575,29.9353 181.72,29.2233 C181.759,29.0003 181.778,28.6753 181.778,28.2463 L173.465,28.2463 C172.899,28.2463 172.271,28.2663 171.584,28.3083 L171.612,27.1473 L171.612,20.7083 C172.058,20.7263 172.665,20.7373 173.433,20.7373 L179.717,20.7373 C179.776,20.3903 179.804,20.0603 179.804,19.7463 C179.804,19.4293 179.776,19.0913 179.717,18.7233 L173.433,18.7233 L171.612,18.7543 L171.612,14.1243 C171.618,14.1243 171.622,14.1243 171.626,14.1253 L171.626,13.3523 L171.596,11.4603 L174.011,11.4603 L174.01,11.4583 L181.171,11.4583 C181.273,11.1543 181.323,10.8003 181.323,10.4043 C181.323,10.0073 181.302,9.6873 181.262,9.4433 L171.71,9.4433 Z" id="Fill-34" fill="#FFFFFF"></path>
                <g id="Group-38" transform="translate(169.000000, 8.760700)">
                    <mask id="mask-14" fill="white">
                        <use xlink:href="#path-13"></use>
                    </mask>
                    <g id="Clip-37"></g>
                    <polygon id="Fill-36" fill="#FFFFFF" mask="url(#mask-14)" points="-4.739 26.641 17.887 26.641 17.887 -4.427 -4.739 -4.427"></polygon>
                </g>
                <path d="M103.1006,9.4433 C103.0396,9.8093 103.0076,10.1473 103.0076,10.4643 C103.0076,10.7813 103.0396,11.1113 103.1006,11.4583 L106.9856,11.4583 L108.6236,11.4283 L108.6236,30.2923 C108.9676,30.3543 109.3606,30.3833 109.8076,30.3833 C110.2506,30.3833 110.6356,30.3543 110.9586,30.2923 L110.9586,11.7853 C110.9586,10.4963 109.9226,9.4513 108.6456,9.4433 L108.6426,9.4433 L103.1006,9.4433 Z" id="Fill-39" fill="#FFFFFF"></path>
                <g id="Group-43" transform="translate(103.000000, 8.760700)">
                    <mask id="mask-16" fill="white">
                        <use xlink:href="#path-15"></use>
                    </mask>
                    <g id="Clip-42"></g>
                    <polygon id="Fill-41" fill="#FFFFFF" mask="url(#mask-16)" points="-5.099 26.733 13.068 26.733 13.068 -4.427 -5.099 -4.427"></polygon>
                </g>
                <path d="M152.4942,9.4433 C152.4322,9.8093 152.4032,10.1473 152.4032,10.4643 C152.4032,10.7813 152.4322,11.1113 152.4942,11.4583 L156.3772,11.4583 L158.0162,11.4283 L158.0162,30.2923 C158.3602,30.3543 158.7532,30.3833 159.2002,30.3833 C159.6452,30.3833 160.0282,30.3543 160.3522,30.2923 L160.3522,11.7853 C160.3522,10.4963 159.3172,9.4513 158.0382,9.4433 L152.4942,9.4433 Z" id="Fill-44" fill="#FFFFFF"></path>
                <g id="Group-48" transform="translate(152.000000, 8.760700)">
                    <mask id="mask-18" fill="white">
                        <use xlink:href="#path-17"></use>
                    </mask>
                    <g id="Clip-47"></g>
                    <polygon id="Fill-46" fill="#FFFFFF" mask="url(#mask-18)" points="-4.706 26.733 13.462 26.733 13.462 -4.427 -4.706 -4.427"></polygon>
                </g>
                <path d="M120.9678,9.4121 L120.7338,9.4141 C119.6458,9.5301 118.7808,10.4001 118.6648,11.4931 L118.6648,30.2921 C118.9678,30.3541 119.3428,30.3841 119.7878,30.3841 C120.2118,30.3841 120.6088,30.3541 120.9718,30.2921 L120.9718,21.5001 L124.1278,21.5001 C125.0588,21.5001 125.7608,21.7421 126.2358,22.2181 C126.7118,22.6971 127.1218,23.3951 127.4658,24.3101 L129.2258,28.9491 C129.4458,29.5191 129.6748,29.9161 129.9078,30.1421 C130.1398,30.3641 130.4678,30.4761 130.8938,30.4761 C131.6428,30.4761 132.1788,30.2231 132.5008,29.7121 C132.2998,29.5511 132.0868,29.2901 131.8648,28.9351 C131.6428,28.5781 131.4188,28.1151 131.1978,27.5471 L129.6178,23.4251 C129.0948,22.0401 128.4148,21.2171 127.5858,20.9501 C128.8198,20.5871 129.7908,19.9101 130.4988,18.9211 C131.2078,17.9331 131.5618,16.7591 131.5618,15.3941 C131.5618,13.4841 130.9858,11.9971 129.8308,10.9391 C128.6778,9.8831 127.0578,9.3521 124.9778,9.3521 L120.9678,9.4121 Z M120.9718,11.2741 C121.3548,11.2951 121.8528,11.3021 122.4578,11.3021 L124.6438,11.3021 C125.5138,11.3021 126.2358,11.4121 126.8108,11.6251 C127.3898,11.8391 127.8488,12.1291 128.1948,12.4971 C128.5368,12.8631 128.7808,13.2961 128.9208,13.7921 C129.0638,14.2901 129.1328,14.8261 129.1328,15.3941 C129.1328,15.9451 129.0638,16.4681 128.9208,16.9701 C128.7808,17.4671 128.5368,17.8981 128.1948,18.2661 C127.8488,18.6311 127.3978,18.9251 126.8418,19.1501 C126.2878,19.3731 125.5808,19.4861 124.7358,19.4861 C123.8858,19.4861 123.1518,19.4921 122.5338,19.5021 C121.9168,19.5141 121.3968,19.5251 120.9718,19.5471 L120.9718,11.2741 Z" id="Fill-49" fill="#FFFFFF"></path>
                <g id="Group-53" transform="translate(118.000000, 8.760700)">
                    <mask id="mask-20" fill="white">
                        <use xlink:href="#path-19"></use>
                    </mask>
                    <g id="Clip-52"></g>
                    <polygon id="Fill-51" fill="#FFFFFF" mask="url(#mask-20)" points="-4.444 26.823 19.61 26.823 19.61 -4.519 -4.444 -4.519"></polygon>
                </g>
            </g>
        </g>
    </g>
</svg>