<?xml version="1.0" encoding="UTF-8" standalone="no"?>
<svg width="292px" height="108px" viewBox="0 0 292 108" version="1.1" xmlns="http://www.w3.org/2000/svg" xmlns:xlink="http://www.w3.org/1999/xlink">
    <!-- Generator: Sketch 3.8.2 (29753) - http://www.bohemiancoding.com/sketch -->
    <title>Imported Layers Copy</title>
    <desc>Created with Sketch.</desc>
    <defs></defs>
    <g id="Page-1" stroke="none" stroke-width="1" fill="none" fill-rule="evenodd">
        <g id="Desktop-Copy-18" transform="translate(-473.000000, -3044.000000)" fill="#FFFFFF">
            <g id="Instituciones" transform="translate(-38.000000, 2757.000000)">
                <g id="Imported-Layers-Copy" transform="translate(511.000000, 287.000000)">
                    <path d="M29.9226937,91.5336378 L29.9226937,100.498014 C29.9226937,104.70418 27.5295564,107.202271 23.4632819,107.202271 C19.3770242,107.202271 16.9826759,104.70418 16.9826759,100.498014 L16.9826759,91.5336378 L18.9162,91.5336378 L18.9162,100.583176 C18.9162,103.56506 20.4972935,105.406013 23.4632819,105.406013 C26.4304815,105.406013 27.988564,103.56506 27.988564,100.583176 L27.988564,91.5336378 L29.9226937,91.5336378" id="Fill-1"></path>
                    <polyline id="Fill-2" points="46.4118456 91.5336378 46.4118456 106.873098 44.6109371 106.873098 35.8637539 95.3478162 35.5591618 94.8652305 35.6021559 95.4994169 35.6021559 106.873098 33.6904316 106.873098 33.6904316 91.5336378 35.4707513 91.5336378 44.2367066 102.995501 44.5231322 103.498622 44.4783214 102.863831 44.4783214 91.5336378 46.4118456 91.5336378"></polyline>
                    <polyline id="Fill-3" points="69.6880123 91.5336378 69.6880123 93.3081518 64.5680791 93.3081518 64.5680791 106.873098 62.6575659 106.873098 62.6575659 93.3081518 57.5582216 93.3081518 57.5582216 91.5336378 69.6880123 91.5336378"></polyline>
                    <polyline id="Fill-4" points="82.7921344 105.098584 82.7921344 106.873098 72.3348754 106.873098 72.3348754 91.5336378 82.6589132 91.5336378 82.6589132 93.3081518 74.2453886 93.3081518 74.2453886 97.9322769 81.0130258 97.9322769 81.0130258 99.6651158 74.2453886 99.6651158 74.2453886 105.098584 82.7921344 105.098584"></polyline>
                    <path d="M96.917821,95.7627553 C95.9065509,94.1205144 93.9948266,93.0895085 91.8862983,93.0895085 C88.4364746,93.0895085 85.8877108,95.5664595 85.8877108,99.2042737 C85.8877108,102.840276 88.5024797,105.296087 91.8862983,105.296087 C94.2140361,105.296087 96.2359706,104.068786 97.2024299,102.206089 L99.1147598,102.732162 C97.8194863,105.4495 95.116307,107.179319 91.8862983,107.179319 C87.4706209,107.179319 83.9087703,103.827795 83.9087703,99.2042737 C83.9087703,94.5789406 87.4706209,91.2262083 91.8862983,91.2262083 C94.9170807,91.2262083 97.5100498,92.8050306 98.8713283,95.2360785 L96.917821,95.7627553" id="Fill-5"></path>
                    <polyline id="Fill-6" points="113.778176 91.5336378 113.778176 106.873098 111.868873 106.873098 111.868873 99.8396681 103.606131 99.8396681 103.606131 106.873098 101.693801 106.873098 101.693801 91.5336378 103.606131 91.5336378 103.606131 98.0409945 111.868873 98.0409945 111.868873 91.5336378 113.778176 91.5336378"></polyline>
                    <path d="M124.862785,91.2262083 C129.278463,91.2262083 132.860296,94.5789406 132.860296,99.2042737 C132.860296,103.827795 129.278463,107.179319 124.862785,107.179319 C120.446502,107.179319 116.887074,103.827795 116.887074,99.2042737 C116.887074,94.5789406 120.446502,91.2262083 124.862785,91.2262083 M124.862785,105.317831 C128.290204,105.317831 130.882567,102.820948 130.882567,99.2042737 C130.882567,95.542904 128.290204,93.0895085 124.862785,93.0895085 C121.434156,93.0895085 118.864803,95.542904 118.864803,99.2042737 C118.864803,102.820948 121.434156,105.317831 124.862785,105.317831" id="Fill-7"></path>
                    <path d="M149.105411,91.5336378 C152.706623,91.5336378 154.861173,93.3745904 154.861173,96.4416368 C154.861173,99.5110991 152.706623,101.374399 149.105411,101.374399 L146.226017,101.374399 L146.226017,106.873098 L144.313687,106.873098 L144.313687,91.5336378 L149.105411,91.5336378 L149.105411,91.5336378 Z M149.0824,99.5769337 C151.543359,99.5769337 152.884655,98.391911 152.884655,96.4416368 C152.884655,94.4255279 151.43436,93.3081518 149.0824,93.3081518 L146.226017,93.3081518 L146.226017,99.5769337 L149.0824,99.5769337 L149.0824,99.5769337 Z" id="Fill-8"></path>
                    <path d="M166.627633,103.147705 L157.971283,103.147705 L156.101341,106.873098 L153.992813,106.873098 L161.681493,91.5336378 L162.911973,91.5336378 L170.602469,106.873098 L168.493941,106.873098 L166.627633,103.147705 L166.627633,103.147705 Z M165.748979,101.374399 L162.451754,94.7981879 L162.297944,94.3385538 L162.144134,94.7981879 L158.848726,101.374399 L165.748979,101.374399 L165.748979,101.374399 Z" id="Fill-9"></path>
                    <path d="M181.841495,106.873098 L178.259055,101.176895 C178.061646,101.196223 177.820031,101.196223 177.600216,101.196223 L174.766843,101.196223 L174.766843,106.873098 L172.853302,106.873098 L172.853302,91.5336378 L177.600216,91.5336378 C181.225649,91.5336378 183.401394,93.3745904 183.401394,96.3546626 C183.401394,98.5459277 182.236314,100.122938 180.192579,100.804235 L183.991806,106.873098 L181.841495,106.873098 L181.841495,106.873098 Z M177.79702,99.4005695 C180.192579,99.4005695 181.423665,98.1521282 181.423665,96.3546626 C181.423665,94.468411 180.082369,93.3081518 177.79702,93.3081518 L174.766843,93.3081518 L174.766843,99.4005695 L177.79702,99.4005695 L177.79702,99.4005695 Z" id="Fill-10"></path>
                    <path d="M197.932194,103.147705 L189.277055,103.147705 L187.409535,106.873098 L185.29919,106.873098 L192.989687,91.5336378 L194.221378,91.5336378 L201.910664,106.873098 L199.800924,106.873098 L197.932194,103.147705 L197.932194,103.147705 Z M197.05354,101.374399 L193.758131,94.7981879 L193.604321,94.3385538 L193.451723,94.7981879 L190.155709,101.374399 L197.05354,101.374399 L197.05354,101.374399 Z" id="Fill-11"></path>
                    <path d="M224.243988,95.5767273 C223.172768,93.8716717 221.184139,92.8092585 218.996283,92.8092585 C215.423533,92.8092585 212.767586,95.35446 212.767586,99.094952 C212.767586,102.836652 215.49196,105.359506 218.996283,105.359506 C221.385182,105.359506 223.483416,104.098985 224.509824,102.149315 L226.319211,102.637336 C225.025754,105.383061 222.255358,107.154556 218.996283,107.154556 C214.509151,107.154556 210.889773,103.766792 210.889773,99.094952 C210.889773,94.4255279 214.509151,91.0377644 218.996283,91.0377644 C222.054315,91.0377644 224.689067,92.6316863 226.096368,95.1122612 L224.243988,95.5767273" id="Fill-12"></path>
                    <polyline id="Fill-13" points="241.75107 91.3488177 241.75107 106.844106 239.941079 106.844106 239.941079 99.6705517 231.391305 99.6705517 231.391305 106.844106 229.559514 106.844106 229.559514 91.3488177 231.391305 91.3488177 231.391305 97.9661001 239.941079 97.9661001 239.941079 91.3488177 241.75107 91.3488177"></polyline>
                    <polygon id="Fill-14" points="246.508884 91.3488177 248.340676 91.3488177 248.340676 106.844106 246.508884 106.844106"></polygon>
                    <polyline id="Fill-15" points="263.279617 105.139051 263.279617 106.844106 253.077295 106.844106 253.077295 91.3488177 254.908481 91.3488177 254.908481 105.139051 263.279617 105.139051"></polyline>
                    <polyline id="Fill-16" points="276.947507 105.139051 276.947507 106.844106 266.387305 106.844106 266.387305 91.3488177 276.814892 91.3488177 276.814892 93.0526653 268.217885 93.0526653 268.217885 97.834431 275.116927 97.834431 275.116927 99.4507004 268.217885 99.4507004 268.217885 105.139051 276.947507 105.139051"></polyline>
                    <path d="M224.062928,13.3734819 L224.062928,3.37085189 C224.057478,2.11576674 222.770682,2.23656415 222.770682,2.23656415 L205.67174,2.23656415 C205.037729,2.23656415 204.527249,2.74874519 204.527249,3.37809973 L204.527249,28.8736023 C204.527249,29.5035608 204.016164,30.0121179 203.388813,30.0121179 L186.120923,30.0121179 C185.488728,30.0121179 184.977037,29.5035608 184.977037,28.8736023 L184.977037,3.37809973 C184.977037,2.74874519 184.465347,2.23656415 183.841024,2.23656415 L166.562234,2.23656415 C165.926405,2.23656415 165.419559,2.74874519 165.419559,3.37809973 L165.419559,17.8496301 C162.402099,13.4375045 159.213267,9.97665856 155.83611,7.49608363 C149.490542,2.82122364 141.579624,0.539964448 132.005864,0.539964448 C121.075064,0.539964448 111.710219,4.1693228 103.907695,11.3374415 C98.4323039,16.3746937 94.8123204,22.1868613 93.0622782,28.8065597 C92.9018072,29.4159827 92.2768786,29.913668 91.6483168,29.913668 L70.820998,29.913668 C70.1918306,29.913668 69.6807456,29.4051109 69.6807456,28.7721325 L69.6807456,20.4226151 C69.6807456,19.7908446 70.1918306,19.2847034 70.820998,19.2847034 L94.3817737,19.2847034 C95.0139688,19.2847034 95.5244483,18.7743343 95.5220261,18.1443758 L95.4766098,3.37809973 C95.4711598,2.74874519 94.9600748,2.23656415 94.3272741,2.23656415 L1.38368388,2.21180068 C0.752094256,2.21180068 0.244642576,2.72216976 0.244642576,3.34910835 L0.244642576,18.1443758 C0.244642576,18.7743343 0.752094256,19.2847034 1.38368388,19.2847034 L16.3038533,19.2847034 C16.9372595,19.2847034 17.4483445,19.7908446 17.4483445,20.4226151 L17.4483445,74.552541 C17.4483445,75.1812916 17.9594295,75.6922647 18.5885969,75.6922647 L35.7626269,75.6922647 C36.3954276,75.6922647 36.9028793,75.1812916 36.9028793,74.552541 L36.9028793,20.4226151 C36.9028793,19.7908446 37.4188087,19.2847034 38.0528205,19.2847034 L49.3735952,19.2847034 C50.0039737,19.2847034 50.5138476,19.7908446 50.5138476,20.4226151 L50.5138476,74.5936122 C50.5138476,75.2235707 51.024327,75.7357517 51.6583388,75.7357517 L94.3272741,75.7357517 C94.9600748,75.7357517 95.4711598,75.2235707 95.4711598,74.5936122 L95.4711598,59.641912 C95.4711598,59.0089336 94.9600748,58.4973565 94.3272741,58.4973565 L70.820998,58.4973565 C70.1918306,58.4973565 69.6807456,57.9936313 69.6807456,57.3636728 L69.6807456,47.8671839 C69.6807456,47.2348095 70.1918306,46.7226284 70.820998,46.7226284 L91.4630182,46.7226284 C92.0909745,46.7226284 92.6995532,47.2263537 92.8364077,47.8412125 C94.4380899,54.9501404 97.9757184,61.1645635 103.491076,66.4434105 C111.189445,73.7087711 120.663895,77.3417534 131.904132,77.3417534 C141.371315,77.3417534 149.175655,75.16438 155.419491,70.7027274 C158.979525,68.0892753 162.319744,64.4768286 165.419559,59.8466637 L165.419559,74.552541 C165.419559,75.1812916 165.926405,75.6922647 166.562234,75.6922647 L183.841024,75.6922647 C184.465347,75.6922647 184.977037,75.1812916 184.977037,74.552541 L184.977037,49.0044916 C184.977037,48.3751371 185.488728,47.8671839 186.120923,47.8671839 L203.388813,47.8671839 C204.016164,47.8671839 204.527249,48.3751371 204.527249,49.0044916 L204.527249,74.552541 C204.527249,75.1812916 205.037729,75.6922647 205.67174,75.6922647 L223.193962,75.6922647 C223.193962,75.6922647 224.036284,75.7834667 224.062928,74.9227851 L224.062928,64.5021961 C231.09943,72.357652 241.33869,77.3055142 252.732131,77.3055142 C273.979702,77.3055142 291.199148,60.1275177 291.199148,38.937839 C291.199148,17.7505762 273.979702,0.573183737 252.732131,0.573183737 C241.33869,0.573183737 231.09943,5.52104588 224.062928,13.3734819 Z M165.419559,51.2857508 L148.576765,51.4095682 C147.945176,51.415004 147.137976,51.8353791 146.740735,52.3227966 C143.120146,56.7192186 138.045629,59.0282612 131.796344,59.0282612 C126.073887,59.0282612 121.392373,56.8973948 117.538041,53.0554329 C113.688554,49.2152831 111.814979,44.4413692 111.814979,38.7330874 C111.814979,33.231973 113.791498,28.6670387 117.644618,24.9319826 C121.595838,21.1926986 126.284619,19.3239626 131.796344,19.3239626 C137.979019,19.3239626 143.142551,21.7266232 147.204587,26.4359104 C147.616362,26.9160802 148.439305,27.3183356 149.069684,27.3183356 L165.419559,27.3183356 L165.419559,51.2857508 L165.419559,51.2857508 Z M279.965573,39.1033314 L270.348819,39.1033314 C269.413243,39.1033314 268.665993,39.8595233 268.665993,40.7866434 L268.665993,57.355217 C268.665993,58.2823371 267.906632,59.0336971 266.969845,59.0336971 L239.999212,59.0336971 C239.071508,59.0336971 238.317597,58.2823371 238.317597,57.355217 L238.317597,40.7866434 C238.317597,39.8595233 237.564291,39.1033314 236.639615,39.1033314 L227.788277,39.1033314 C226.855123,39.1033314 226.618958,38.562159 227.264476,37.8844855 L252.721837,11.1767809 C253.354637,10.4991074 254.394368,10.4991074 255.037463,11.1767809 L280.487558,37.8844855 C281.131864,38.562159 280.901149,39.1033314 279.965573,39.1033314 L279.965573,39.1033314 Z" id="Fill-17"></path>
                </g>
            </g>
        </g>
    </g>
</svg>