<?xml version="1.0" encoding="UTF-8" standalone="no"?>
<svg width="263px" height="153px" viewBox="0 0 263 153" version="1.1" xmlns="http://www.w3.org/2000/svg" xmlns:xlink="http://www.w3.org/1999/xlink">
    <!-- Generator: Sketch 3.8.2 (29753) - http://www.bohemiancoding.com/sketch -->
    <title>Group 2</title>
    <desc>Created with Sketch.</desc>
    <defs></defs>
    <g id="Page-1" stroke="none" stroke-width="1" fill="none" fill-rule="evenodd">
        <g id="Desktop-Copy-18" transform="translate(-1149.000000, -3077.000000)" fill="#FEFEFE">
            <g id="Group-2" transform="translate(1149.000000, 3077.000000)">
                <g id="Page-1">
                    <path d="M2.89383303,113.347572 L8.35852081,113.347572 C10.1650095,113.347572 11.4490683,113.010818 12.2083172,112.338499 C12.9675661,111.666181 13.3471905,110.718985 13.3471905,109.498103 C13.3471905,108.613974 13.123462,107.85717 12.676005,107.227689 C12.229738,106.598209 11.6406656,106.182918 10.9099778,105.980628 C10.4387199,105.855684 9.56998688,105.792617 8.3002086,105.792617 L2.89383303,105.792617 L2.89383303,113.347572 L2.89383303,113.347572 Z M0.0972266968,124.434282 L0.0972266968,103.298494 L8.06933982,103.298494 C9.47359321,103.298494 10.5446339,103.366321 11.2848421,103.500784 C12.3237516,103.673326 13.1936747,104.002941 13.8946113,104.488438 C14.596738,104.973935 15.1608195,105.653393 15.5892357,106.528002 C16.016462,107.402611 16.2306701,108.364086 16.2306701,109.411237 C16.2306701,111.209242 15.6582584,112.729991 14.5146249,113.974673 C13.3709914,115.219354 11.3038828,115.841695 8.31448914,115.841695 L2.89383303,115.841695 L2.89383303,124.434282 L0.0972266968,124.434282 L0.0972266968,124.434282 Z" id="Fill-1"></path>
                    <path d="M42.84151,114.183746 C42.84151,116.730226 43.525786,118.736472 44.8955281,120.202483 C46.2652701,121.668494 47.9836955,122.4015 50.0508041,122.4015 C52.1559941,122.4015 53.8887,121.661355 55.2477317,120.181064 C56.6079534,118.700774 57.2886593,116.600522 57.2886593,113.8815 C57.2886593,112.160841 56.9970982,110.659131 56.4163561,109.375182 C55.834424,108.092422 54.9835416,107.097628 53.863709,106.391992 C52.7438765,105.685165 51.4871887,105.331751 50.0936457,105.331751 C48.1134104,105.331751 46.4104557,106.011209 44.9824014,107.371316 C43.5555371,108.731422 42.84151,111.001835 42.84151,114.183746 M39.9580303,114.140908 C39.9580303,110.632953 40.8993561,107.886561 42.7843878,105.901735 C44.6682294,103.916908 47.0994919,102.924494 50.0793652,102.924494 C52.0310394,102.924494 53.7899262,103.389763 55.3560258,104.322679 C56.9233154,105.254405 58.1169308,106.555014 58.939252,108.222126 C59.7615733,109.890427 60.1721389,111.781249 60.1721389,113.895779 C60.1721389,116.038869 59.7389624,117.955869 58.8749896,119.647969 C58.0098267,121.33888 56.7840801,122.62045 55.1977498,123.490299 C53.6114195,124.360148 51.9013244,124.794478 50.0650846,124.794478 C48.075329,124.794478 46.2974014,124.31374 44.7301118,123.352265 C43.1640122,122.39198 41.9763471,121.079472 41.1694964,119.41712 C40.3614557,117.754768 39.9580303,115.996031 39.9580303,114.140908" id="Fill-3"></path>
                    <polygon id="Fill-5" points="83.8993801 124.434163 83.8993801 103.299565 86.6959864 103.299565 86.6959864 121.94004 97.1065023 121.94004 97.1065023 124.434163"></polygon>
                    <polygon id="Fill-7" points="117.375353 153 120.171959 153 120.171959 0 117.375353 0"></polygon>
                    <polygon id="Fill-9" points="144.099128 124.434163 144.099128 105.793688 137.134983 105.793688 137.134983 103.299565 153.88844 103.299565 153.88844 105.793688 146.895734 105.793688 146.895734 124.434163"></polygon>
                    <polygon id="Fill-10" points="177.122765 124.43333 179.919371 124.43333 179.919371 103.298732 177.122765 103.298732"></polygon>
                    <path d="M220.274876,117.023904 L223.071483,117.730731 C222.485981,120.027323 221.43041,121.778921 219.907152,122.985525 C218.383895,124.190938 216.521474,124.79424 214.31989,124.79424 C212.042143,124.79424 210.189243,124.331351 208.762379,123.403195 C207.334324,122.476228 206.249003,121.132782 205.504035,119.374044 C204.759067,117.615307 204.386582,115.726865 204.386582,113.70753 C204.386582,111.507323 204.806668,109.586754 205.64803,107.948201 C206.489392,106.309647 207.685388,105.064966 209.238397,104.214156 C210.790216,103.363346 212.499121,102.938536 214.363922,102.938536 C216.478632,102.938536 218.25656,103.476391 219.697705,104.55329 C221.140039,105.630189 222.144438,107.143798 222.712089,109.094117 L219.957134,109.743826 C219.468026,108.205228 218.756379,107.085491 217.823383,106.384614 C216.891578,105.682547 215.718193,105.331513 214.30561,105.331513 C212.681198,105.331513 211.323356,105.720625 210.233275,106.500039 C209.142003,107.278262 208.375614,108.323033 207.932917,109.635541 C207.49141,110.94686 207.270062,112.299826 207.270062,113.693251 C207.270062,115.491256 207.531872,117.059603 208.055492,118.40067 C208.579112,119.741737 209.394293,120.74367 210.499845,121.406469 C211.605397,122.069268 212.801392,122.401262 214.089021,122.401262 C215.656311,122.401262 216.983211,121.949083 218.068533,121.045916 C219.155044,120.142748 219.890492,118.801681 220.274876,117.023904" id="Fill-11"></path>
                    <path d="M244.91393,114.183746 C244.91393,116.730226 245.598206,118.736472 246.967948,120.202483 C248.33769,121.668494 250.056116,122.4015 252.123224,122.4015 C254.228414,122.4015 255.96112,121.661355 257.320152,120.181064 C258.680374,118.700774 259.36108,116.600522 259.36108,113.8815 C259.36108,112.160841 259.069519,110.659131 258.488776,109.375182 C257.906844,108.092422 257.055962,107.097628 255.936129,106.391992 C254.816297,105.685165 253.559609,105.331751 252.166066,105.331751 C250.185831,105.331751 248.482876,106.011209 247.054822,107.371316 C245.627957,108.731422 244.91393,111.001835 244.91393,114.183746 M242.030451,114.140908 C242.030451,110.632953 242.971776,107.886561 244.856808,105.901735 C246.74065,103.916908 249.171912,102.924494 252.151786,102.924494 C254.10346,102.924494 255.862347,103.389763 257.428446,104.322679 C258.995736,105.254405 260.189351,106.555014 261.011672,108.222126 C261.833994,109.890427 262.244559,111.781249 262.244559,113.895779 C262.244559,116.038869 261.811383,117.955869 260.94741,119.647969 C260.082247,121.33888 258.8565,122.62045 257.27017,123.490299 C255.68384,124.360148 253.973745,124.794478 252.137505,124.794478 C250.147749,124.794478 248.369822,124.31374 246.802532,123.352265 C245.236433,122.39198 244.048767,121.079472 243.241917,119.41712 C242.433876,117.754768 242.030451,115.996031 242.030451,114.140908" id="Fill-12"></path>
                    <polygon id="Fill-13" points="262.24444 41.4800631 262.24444 28.638186 231.686458 28.638186 215.174581 28.638186 215.174581 41.4800631 215.174581 50.9496385 215.174581 63.7915156 215.174581 75.7397447 215.174581 90.3177503 231.686458 90.3177503 262.24444 90.3177503 262.24444 75.7397447 231.686458 75.7397447 231.686458 63.7915156 259.360961 63.7915156 259.360961 50.9496385 231.686458 50.9496385 231.686458 41.4800631"></polygon>
                    <path d="M67.9565819,28.6015358 L67.9565819,28.6062955 C72.798876,28.5289492 96.021419,29.6510665 96.021419,58.2537536 L96.021419,60.4837089 C96.021419,89.0863961 72.798876,90.2085134 67.9565819,90.132357 L67.9565819,90.1359268 L99.9890299,90.1359268 L99.9890299,28.6015358 L67.9565819,28.6015358 Z" id="Fill-14"></path>
                    <path d="M20.0076357,28.6015358 C20.0076357,28.6015358 32.1318167,32.0999715 32.1318167,43.9994128 C32.1318167,55.0063961 23.6527443,56.9400553 23.6527443,56.9400553 L23.6586946,58.0264743 C30.6192692,58.0264743 34.4369344,65.7908598 34.4369344,72.3355525 C34.4369344,88.3997983 15.3962104,90.1359268 15.3962104,90.1359268 L36.320776,90.1359268 L36.8919977,90.1359268 L66.171871,90.1359268 L66.171871,90.132357 C61.173681,90.196614 38.1808167,88.9459827 38.1808167,60.4837089 L38.1808167,58.2537536 C38.1808167,29.7914799 61.173681,28.5408486 66.171871,28.6051056 L66.171871,28.6015358 L36.320776,28.6015358 L20.0076357,28.6015358 Z" id="Fill-15"></path>
                    <path d="M66.9647982,42.4347553 C60.6456579,42.4347553 55.5237032,47.5574648 55.5237032,53.8748782 L55.5237032,64.8794816 C55.5237032,71.1980849 60.6456579,76.3196045 66.9647982,76.3196045 C73.2839385,76.3196045 78.4058932,71.1980849 78.4058932,64.8794816 L78.4058932,53.8748782 C78.4058932,47.5574648 73.2839385,42.4347553 66.9647982,42.4347553" id="Fill-16"></path>
                    <path d="M193.754242,59.4779682 L193.753052,59.4779682 C193.714971,74.9650911 185.870192,76.3192475 185.870192,76.3192475 L177.12336,76.3192475 L177.12336,59.4696385 L177.12336,59.3768229 L177.12336,42.527214 L185.870192,42.527214 C185.870192,42.527214 193.714971,43.8813704 193.753052,59.3684933 L193.754242,59.3684933 C193.754242,59.3875324 193.753052,59.4041916 193.753052,59.4232307 C193.753052,59.4422698 193.754242,59.4589291 193.754242,59.4779682 M190.927885,28.638186 L159.490459,28.638186 L159.490459,59.4779682 L159.490459,90.3177503 L190.927885,90.3177503 C190.927885,90.3177503 210.861143,88.8303201 210.861143,59.4779682 C210.861143,30.1256162 190.927885,28.638186 190.927885,28.638186" id="Fill-17"></path>
                    <path d="M8.65436606,40.8457039 L0.000357013574,40.8457039 L0.000357013574,52.5285754 L8.65436606,52.5285754 C11.8805787,52.5285754 14.4962982,49.9130782 14.4962982,46.6871397 C14.4962982,43.4612011 11.8805787,40.8457039 8.65436606,40.8457039" id="Fill-18"></path>
                    <path d="M11.6698217,64.4516966 L0.000238009045,64.4516966 L0.000238009045,76.499881 L11.6698217,76.499881 C14.9971882,76.499881 17.6938308,73.8022777 17.6938308,70.4751939 C17.6938308,67.1493 14.9971882,64.4516966 11.6698217,64.4516966" id="Fill-19"></path>
                    <path d="M127.918083,53.2959704 L120.172078,53.2959704 L120.172078,40.5040709 L127.918083,40.5040709 C131.451327,40.5040709 134.314576,43.3670765 134.314576,46.9000207 C134.314576,50.4329648 131.451327,53.2959704 127.918083,53.2959704 M138.267906,62.591814 C138.267906,62.591814 150.912137,60.9746799 150.912137,45.1876911 C150.912137,29.4018922 139.592427,28.6010598 139.592427,28.6010598 L118.773775,28.6010598 L118.773775,58.7494844 L118.773775,61.7743223 L118.773775,64.699205 L120.814703,64.699205 C120.814703,64.699205 125.47492,64.8015402 136.185327,90.1366408 L156.019811,90.1366408 C156.019811,90.1366408 144.466852,62.591814 138.267906,62.591814" id="Fill-20"></path>
                </g>
            </g>
        </g>
    </g>
</svg>