<?xml version="1.0" encoding="UTF-8" standalone="no"?>
<svg width="152px" height="153px" viewBox="0 0 152 153" version="1.1" xmlns="http://www.w3.org/2000/svg" xmlns:xlink="http://www.w3.org/1999/xlink">
    <!-- Generator: Sketch 3.8.2 (29753) - http://www.bohemiancoding.com/sketch -->
    <title>Imported Layers</title>
    <desc>Created with Sketch.</desc>
    <defs></defs>
    <g id="Page-1" stroke="none" stroke-width="1" fill="none" fill-rule="evenodd">
        <g id="Desktop-Copy-18" transform="translate(-230.000000, -3024.000000)" fill="#FFFFFF">
            <g id="Imported-Layers" transform="translate(230.000000, 3024.000000)">
                <path d="M56.0269944,112.279075 C55.8627921,112.364692 55.7501963,112.462036 55.6856882,112.569936 C55.6235259,112.679008 55.5906855,112.797463 55.5906855,112.925301 C55.5906855,113.176285 55.659885,113.352209 55.7959383,113.454244 C55.9308188,113.55628 56.1302073,113.606712 56.3941038,113.606712 C56.6755935,113.606712 56.9218969,113.557453 57.1318413,113.458936 C57.3441314,113.360419 57.5575943,113.200915 57.7734031,112.980424 L57.7734031,111.981178 C57.3370941,111.981178 56.9781948,112.009326 56.6967052,112.066794 C56.4152156,112.12309 56.1923696,112.194632 56.0269944,112.279075" id="Fill-1"></path>
                <path d="M72.5785853,109.10307 C72.3768511,109.10307 72.1915371,109.142946 72.0226433,109.222698 C71.8537495,109.30245 71.7071403,109.430287 71.5828157,109.606211 C71.4584911,109.782134 71.3611426,110.010835 71.2907702,110.292313 C71.2203978,110.57379 71.1852116,110.913909 71.1852116,111.312669 C71.1852116,111.697355 71.2133606,112.021054 71.2696585,112.283767 C71.3259564,112.546479 71.4045389,112.75876 71.5054061,112.92061 C71.6062732,113.082459 71.7270792,113.198569 71.867824,113.268938 C72.0085688,113.339308 72.1657338,113.374493 72.3393191,113.374493 C72.4988299,113.374493 72.6430934,113.359246 72.7721094,113.328752 C72.9011255,113.298259 73.0195858,113.254865 73.1274901,113.198569 C73.2353945,113.142273 73.3374345,113.071904 73.4336101,112.987461 C73.5297857,112.903017 73.6247885,112.8045 73.7186184,112.691909 L73.7186184,109.595656 C73.5497246,109.412695 73.3702749,109.284857 73.1802694,109.212142 C72.9902639,109.139427 72.7897025,109.10307 72.5785853,109.10307" id="Fill-2"></path>
                <path d="M49.2583414,108.983442 C48.8970964,108.983442 48.6343727,109.067885 48.4736891,109.236772 C48.3106596,109.405658 48.2309042,109.637877 48.2309042,109.933429 C48.2309042,110.074167 48.2508431,110.203178 48.2895479,110.32046 C48.3294256,110.437743 48.3927608,110.539778 48.4772077,110.626567 C48.5604817,110.713356 48.6683861,110.78138 48.7962293,110.830639 C48.9252454,110.879897 49.0800647,110.904526 49.2583414,110.904526 C49.6195865,110.904526 49.8799644,110.814219 50.0429938,110.633604 C50.2048504,110.452989 50.2846057,110.219598 50.2846057,109.933429 C50.2846057,109.637877 50.2048504,109.405658 50.0429938,109.236772 C49.8799644,109.067885 49.6195865,108.983442 49.2583414,108.983442" id="Fill-3"></path>
                <path d="M81.5686607,109.465472 C81.4677936,109.336462 81.3352589,109.23208 81.1710566,109.152328 C81.0068543,109.072576 80.8074658,109.0327 80.5728911,109.0327 C80.1553482,109.0327 79.8292893,109.151155 79.5947146,109.388066 C79.3601399,109.624976 79.2053206,109.966268 79.1302567,110.411941 L81.853669,110.411941 C81.853669,110.238363 81.8313844,110.069476 81.7868152,109.905281 C81.742246,109.741086 81.6695279,109.594483 81.5686607,109.465472" id="Fill-4"></path>
                <path d="M120.642942,109.145291 C120.125704,109.145291 119.749212,109.321215 119.509946,109.673062 C119.269507,110.024909 119.151046,110.562062 119.151046,111.284521 C119.151046,112.00698 119.269507,112.545306 119.509946,112.899499 C119.749212,113.253692 120.125704,113.430788 120.642942,113.430788 C121.144931,113.430788 121.513214,113.253692 121.751307,112.899499 C121.988227,112.545306 122.106688,112.00698 122.106688,111.284521 C122.106688,110.562062 121.988227,110.024909 121.751307,109.673062 C121.513214,109.321215 121.144931,109.145291 120.642942,109.145291" id="Fill-5"></path>
                <path d="M41.9536852,109.145291 C41.4376209,109.145291 41.0599556,109.321215 40.8206894,109.673062 C40.5814232,110.024909 40.4617902,110.562062 40.4617902,111.284521 C40.4617902,112.00698 40.5814232,112.545306 40.8206894,112.899499 C41.0599556,113.253692 41.4376209,113.430788 41.9536852,113.430788 C42.4556751,113.430788 42.8251303,113.253692 43.0620507,112.899499 C43.2989712,112.545306 43.4174314,112.00698 43.4174314,111.284521 C43.4174314,110.562062 43.2989712,110.024909 43.0620507,109.673062 C42.8251303,109.321215 42.4556751,109.145291 41.9536852,109.145291" id="Fill-6"></path>
                <path d="M47.9529332,114.86046 C47.8649677,114.975396 47.8215714,115.10558 47.8215714,115.252183 C47.8215714,115.355391 47.8450289,115.449217 47.8895981,115.53366 C47.9341672,115.618104 48.0115769,115.691992 48.1253456,115.752978 C48.2367686,115.813965 48.3880693,115.862051 48.5780748,115.897236 C48.7692532,115.93242 49.0096923,115.950013 49.3005649,115.950013 C49.6137221,115.950013 49.8729271,115.931248 50.0734885,115.892544 C50.2763956,115.853841 50.4359064,115.801064 50.5555395,115.734213 C50.6763455,115.667362 50.7584466,115.58761 50.8053616,115.493784 C50.8522765,115.399959 50.875734,115.297923 50.875734,115.187677 C50.875734,115.068049 50.8405478,114.973051 50.7678296,114.900336 C50.6951115,114.828794 50.5965901,114.771325 50.4722655,114.727931 C50.346768,114.685709 50.2013317,114.654043 50.0359566,114.635278 C49.8694085,114.61534 49.6899589,114.605957 49.4976076,114.605957 L48.8982693,114.605957 C48.6930164,114.605957 48.4877635,114.586019 48.2860293,114.546143 C48.1511488,114.639969 48.038553,114.74435 47.9529332,114.86046" id="Fill-7"></path>
                <path d="M22.039466,0.738878742 C10.1218983,0.738878742 0.459766414,10.4005979 0.459766414,22.3188293 L0.459766414,130.45432 C0.459766414,142.372551 10.1218983,152.033097 22.039466,152.033097 L130.180749,152.033097 C142.098317,152.033097 151.760448,142.372551 151.760448,130.45432 L151.760448,22.3188293 C151.760448,10.4005979 142.098317,0.738878742 130.180749,0.738878742 L22.039466,0.738878742 Z M113.714778,64.6131868 L114.660114,68.9033748 C97.5068388,65.9713163 97.9466663,78.0279409 97.9466663,78.0279409 C97.9466663,93.1643997 122.723619,86.6423287 122.723619,86.6423287 L120.55263,91.6362108 L119.715199,91.7593572 C107.762445,93.2828548 99.2004681,91.7441105 94.954666,87.3131837 C91.1803591,83.3736699 92.024828,78.0279409 92.024828,78.0279409 C92.024828,74.487187 93.1988744,71.5950045 95.5152996,69.4323181 C101.501646,63.841469 113.184639,64.572138 113.299581,64.5780021 L113.714778,64.6131868 L113.714778,64.6131868 Z M46.3038731,44.3714277 L46.3038731,35.6667324 L51.089197,35.6667324 L51.089197,44.3714277 L61.4902392,44.3714277 L61.4902392,48.1033518 L46.3038731,48.1033518 L46.3038731,44.3714277 L46.3038731,44.3714277 Z M29.8226546,44.3714277 L38.8150758,44.3714277 L38.8150758,35.6667324 L43.6003996,35.6667324 L43.6003996,48.1033518 L29.8226546,48.1033518 L29.8226546,44.3714277 L29.8226546,44.3714277 Z M29.8226546,50.8055369 L43.6003996,50.8055369 L43.6003996,98.7833966 L38.8150758,98.7833966 L38.8150758,54.5362881 L29.8226546,54.5362881 L29.8226546,50.8055369 L29.8226546,50.8055369 Z M37.1965103,114.936693 L34.8038484,114.936693 L34.8038484,110.601938 L30.6378017,110.601938 L30.6378017,114.936693 L28.2451397,114.936693 L28.2451397,104.683871 L30.6378017,104.683871 L30.6378017,108.969368 L34.8038484,108.969368 L34.8038484,104.683871 L37.1965103,104.683871 L37.1965103,114.936693 L37.1965103,114.936693 Z M45.3984147,112.843204 C45.2177922,113.309987 44.9644515,113.706402 44.6383927,114.032446 C44.3123339,114.358491 43.921767,114.609476 43.4666921,114.785399 C43.0116171,114.961323 42.5072815,115.049284 41.9536852,115.049284 C41.3953975,115.049284 40.8875432,114.961323 40.4301226,114.785399 C39.9727019,114.609476 39.5786164,114.358491 39.2478661,114.032446 C38.9171157,113.706402 38.6614293,113.309987 38.4808068,112.843204 C38.3001843,112.37642 38.209873,111.852168 38.209873,111.270447 C38.209873,110.693418 38.3001843,110.173857 38.4808068,109.711765 C38.6614293,109.249673 38.9171157,108.856777 39.2478661,108.533078 C39.5786164,108.209378 39.9727019,107.96074 40.4301226,107.787162 C40.8875432,107.613584 41.3953975,107.526795 41.9536852,107.526795 C42.5072815,107.526795 43.0116171,107.613584 43.4666921,107.787162 C43.921767,107.96074 44.3123339,108.209378 44.6383927,108.533078 C44.9644515,108.856777 45.2177922,109.249673 45.3984147,109.711765 C45.5790373,110.173857 45.6693485,110.693418 45.6693485,111.270447 C45.6693485,111.852168 45.5790373,112.37642 45.3984147,112.843204 L45.3984147,112.843204 Z M53.0995022,108.659742 C53.0995022,108.781716 53.0666617,108.877888 52.9974622,108.948257 C52.9294355,109.018626 52.813321,109.072576 52.6502916,109.110107 L52.1154613,109.229735 C52.1811422,109.440843 52.2139827,109.658988 52.2139827,109.88417 C52.2139827,110.250091 52.1377459,110.578482 51.9852723,110.869342 C51.8316259,111.160202 51.6240273,111.407668 51.3589579,111.611739 C51.0927156,111.81581 50.7795584,111.972969 50.4183133,112.083214 C50.0582412,112.193459 49.6711929,112.248582 49.2583414,112.248582 C49.0272854,112.248582 48.8126495,112.234508 48.6097424,112.20636 C48.4514045,112.301359 48.3716491,112.410432 48.3716491,112.533578 C48.3716491,112.656725 48.4349842,112.744686 48.5651732,112.799809 C48.6941893,112.853759 48.8642559,112.891289 49.0742003,112.913573 C49.2864904,112.934684 49.5269295,112.945239 49.7990361,112.945239 C50.0711428,112.945239 50.3491138,112.95814 50.6306034,112.983942 C50.9120931,113.009744 51.1888912,113.054312 51.459825,113.114126 C51.7319317,113.175113 51.9747165,113.274803 52.1858337,113.41085 C52.3957781,113.546898 52.5658447,113.729858 52.6960337,113.957386 C52.8250498,114.186086 52.8895578,114.476947 52.8895578,114.829966 C52.8895578,115.15953 52.8086295,115.482056 52.6502916,115.796373 C52.4896079,116.111862 52.2562061,116.392167 51.9465675,116.637287 C51.635756,116.881234 51.2569179,117.078269 50.8053616,117.227217 C50.356151,117.374993 49.8400867,117.448881 49.2583414,117.448881 C48.6848063,117.448881 48.1910265,117.394931 47.7758293,117.287031 C47.3606321,117.179132 47.0158073,117.036047 46.7425278,116.861296 C46.4680754,116.6842 46.2639954,116.481302 46.1326335,116.251428 C46.0024446,116.021555 45.9367637,115.782299 45.9367637,115.532488 C45.9367637,115.208788 46.035285,114.934348 46.2323278,114.712684 C46.4281977,114.488675 46.6979586,114.313924 47.0404376,114.187259 C46.8762353,114.079359 46.7448735,113.940966 46.647525,113.77208 C46.5490036,113.604366 46.499743,113.390912 46.499743,113.132891 C46.499743,113.026164 46.5185089,112.9124 46.554868,112.792772 C46.5935728,112.673144 46.6510436,112.557035 46.7319719,112.444444 C46.8117273,112.331853 46.9125944,112.225126 47.0345733,112.121917 C47.1565521,112.018709 47.3019884,111.927228 47.4708822,111.847476 C47.0896983,111.645751 46.7906156,111.378347 46.5724611,111.045265 C46.3543066,110.712183 46.2464023,110.325152 46.2464023,109.88417 C46.2464023,109.518249 46.3238119,109.188686 46.4774584,108.89548 C46.6334505,108.602274 46.8445678,108.353636 47.1143287,108.149564 C47.3840896,107.945493 47.7019383,107.788335 48.0678748,107.678089 C48.4338114,107.567844 48.8302426,107.512721 49.2583414,107.512721 C49.56798,107.512721 49.8600255,107.543215 50.1344779,107.604201 C50.4077575,107.665188 50.662271,107.751977 50.8980186,107.864568 L53.0995022,107.864568 L53.0995022,108.659742 L53.0995022,108.659742 Z M59.8986499,114.936693 L58.8993616,114.936693 C58.691763,114.936693 58.5369437,114.908546 58.4313851,114.85225 C58.3246536,114.795954 58.237861,114.678672 58.1674886,114.500403 L58.0114964,114.099297 C57.829701,114.25411 57.65377,114.390158 57.4848762,114.50744 C57.3159824,114.624722 57.1412243,114.724412 56.9606017,114.80651 C56.7799792,114.888608 56.587628,114.949594 56.383548,114.98947 C56.1782951,115.029346 55.9531034,115.049284 55.7044542,115.049284 C55.3713581,115.049284 55.0687568,115.00589 54.7966501,114.919101 C54.5245435,114.831139 54.2934874,114.703301 54.102309,114.534415 C53.9134764,114.364355 53.7668672,114.153247 53.6624814,113.902263 C53.5592686,113.650106 53.508835,113.359246 53.508835,113.029682 C53.508835,112.771661 53.5745159,112.50543 53.7058778,112.232163 C53.8360667,111.958895 54.0647771,111.711429 54.3884901,111.48742 C54.7110304,111.264583 55.1473393,111.076931 55.697417,110.92681 C56.2463218,110.775516 56.9371443,110.700455 57.7734031,110.700455 L57.7734031,110.388484 C57.7734031,109.956885 57.6854376,109.646087 57.5095065,109.453744 C57.3335755,109.262574 57.0825806,109.166402 56.7600404,109.166402 C56.5020082,109.166402 56.290891,109.19455 56.1255158,109.250845 C55.9613135,109.307141 55.8158772,109.370473 55.6856882,109.440843 C55.557845,109.511212 55.4323476,109.574545 55.3103687,109.63084 C55.1883899,109.687136 55.0429536,109.715283 54.8740598,109.715283 C54.723932,109.715283 54.5960888,109.678926 54.4893573,109.606211 C54.3849715,109.533496 54.3005246,109.443188 54.2407081,109.335289 L53.8466226,108.652705 C54.287623,108.263328 54.7767113,107.973641 55.3138873,107.783643 C55.8510634,107.593646 56.4257714,107.498647 57.04153,107.498647 C57.4825304,107.498647 57.8801346,107.570189 58.2343424,107.713274 C58.5885502,107.856358 58.8876329,108.055738 59.1339363,108.311414 C59.3802398,108.567089 59.5702453,108.870851 59.7016071,109.222698 C59.8329689,109.574545 59.8986499,109.959231 59.8986499,110.376756 L59.8986499,114.936693 L59.8986499,114.936693 Z M65.8228339,109.342326 C65.804068,109.440843 65.766536,109.510039 65.7102381,109.549915 C65.6539401,109.589791 65.5788762,109.609729 65.4850464,109.609729 C65.405291,109.609729 65.3114611,109.599174 65.2035567,109.578063 C65.0956524,109.556952 64.959599,109.546397 64.7953967,109.546397 C64.2230345,109.546397 63.772651,109.851331 63.4442465,110.461199 L63.4442465,114.936693 L61.2627017,114.936693 L61.2627017,107.639386 L62.5575541,107.639386 C62.6654585,107.639386 62.7557697,107.648769 62.8284879,107.667534 C62.901206,107.686299 62.9621955,107.71562 63.0114561,107.755496 C63.0607168,107.795372 63.0982488,107.848149 63.124052,107.913827 C63.1498552,107.979505 63.1721398,108.059257 63.1909058,108.153083 L63.3105389,108.835666 C63.577954,108.422832 63.8782097,108.096787 64.2113057,107.857531 C64.5444018,107.618275 64.9079926,107.498647 65.3020781,107.498647 C65.6351742,107.498647 65.9025893,107.578399 66.1043236,107.737903 L65.8228339,109.342326 L65.8228339,109.342326 Z M61.4902392,98.7833966 C61.4902392,98.7833966 71.9968401,83.8568732 71.9968401,74.7674918 C71.9968401,74.7674918 72.5832768,66.9975368 64.959599,66.9975368 C64.959599,66.9975368 51.089197,65.8247134 51.089197,86.20252 L51.089197,98.7833966 L46.3038731,98.7833966 L46.3038731,87.1806547 C46.3038731,80.0041483 47.4802652,76.4094446 49.2595143,72.9355416 C49.8107649,71.8588898 50.4253506,70.9980374 51.089197,70.0761982 C55.2376506,64.3258451 61.3272098,62.7859279 66.063273,62.7859279 C69.8199868,62.7859279 72.7334046,63.8778265 74.7202523,66.0334759 C78.320974,69.9366322 77.8612076,76.1525962 77.8565161,76.2124102 L77.8506517,76.3320382 C77.8506517,83.2681158 70.0827105,95.4326401 67.8519051,98.7833966 L61.4902392,98.7833966 L61.4902392,98.7833966 Z M75.9001631,114.936693 L74.5490128,114.936693 C74.4129595,114.936693 74.2991907,114.9062 74.2077066,114.845213 C74.1162225,114.784226 74.0517144,114.692746 74.0141825,114.570772 L73.8452887,114.014854 C73.6998524,114.169667 73.5473788,114.310406 73.387868,114.437071 C73.2283572,114.563735 73.0559448,114.672808 72.8706308,114.764288 C72.6853168,114.855768 72.4859283,114.926138 72.2724653,114.975396 C72.0590024,115.024655 71.8279463,115.049284 71.5792971,115.049284 C71.1992861,115.049284 70.847424,114.964841 70.5237109,114.795954 C70.1999979,114.627068 69.920854,114.383121 69.6862793,114.064113 C69.4517046,113.745105 69.2675634,113.354555 69.1338558,112.892462 C69.0001483,112.43037 68.9332945,111.903772 68.9332945,111.312669 C68.9332945,110.768479 69.0083584,110.262992 69.1584862,109.796208 C69.308614,109.329425 69.5209041,108.925973 69.7953565,108.585855 C70.0698089,108.245736 70.3993863,107.979505 70.7840889,107.787162 C71.1687914,107.594819 71.5933716,107.498647 72.0578295,107.498647 C72.433149,107.498647 72.7509977,107.55377 73.0113756,107.664015 C73.2717536,107.774261 73.5075011,107.918518 73.7186184,108.096787 L73.7186184,104.402393 L75.9001631,104.402393 L75.9001631,114.936693 L75.9001631,114.936693 Z M83.7889103,111.270447 C83.7748358,111.373656 83.7490326,111.455753 83.7115006,111.51674 C83.6739687,111.577727 83.6235351,111.619949 83.5601999,111.643405 C83.4968648,111.666862 83.4159365,111.67859 83.3174151,111.67859 L79.109145,111.67859 C79.1795174,112.288458 79.3648314,112.730612 79.665087,113.005053 C79.9653426,113.279494 80.3523909,113.416714 80.8262318,113.416714 C81.0795725,113.416714 81.2977269,113.386221 81.4806952,113.325234 C81.6636635,113.264247 81.8266929,113.196223 81.9697835,113.121163 C82.112874,113.046102 82.2442359,112.978078 82.363869,112.917091 C82.4835021,112.856105 82.6089995,112.825611 82.7403614,112.825611 C82.9139466,112.825611 83.0453085,112.888944 83.1344469,113.015609 L83.7677985,113.796709 C83.5426068,114.05473 83.299822,114.264665 83.0394441,114.426515 C82.7790662,114.588365 82.511651,114.71503 82.2371986,114.80651 C81.9627462,114.89799 81.6882938,114.961323 81.4138414,114.996507 C81.139389,115.031692 80.8778382,115.049284 80.6291891,115.049284 C80.1178162,115.049284 79.6381109,114.966014 79.1900733,114.799473 C78.7420356,114.632932 78.3502958,114.385466 78.014854,114.057076 C77.6794122,113.728685 77.4143428,113.320543 77.2196458,112.832648 C77.0249488,112.344754 76.9276003,111.777107 76.9276003,111.129709 C76.9276003,110.641814 77.0108743,110.179722 77.1774223,109.743431 C77.3439704,109.307141 77.5832366,108.924801 77.8952209,108.59641 C78.2072053,108.268019 78.5848705,108.007653 79.0282167,107.81531 C79.4715629,107.622967 79.9723799,107.526795 80.5306677,107.526795 C81.0138916,107.526795 81.4560649,107.601856 81.8571876,107.751977 C82.2583103,107.902099 82.6031352,108.120244 82.891662,108.406413 C83.1801889,108.692581 83.4053806,109.043256 83.5672372,109.458435 C83.7290937,109.873615 83.810022,110.343917 83.810022,110.869342 C83.810022,111.033537 83.8029848,111.167239 83.7889103,111.270447 L83.7889103,111.270447 Z M78.4476443,98.7833966 L71.2203978,98.7833966 C74.3144381,93.965438 80.1612125,83.2903995 80.1952259,76.3871609 C80.2515238,75.6060605 81.0725352,69.9565702 76.8056214,65.3110167 C74.2628317,62.5443263 70.6492084,60.9868168 66.063273,60.9868168 C61.4175211,60.9868168 55.6329089,62.8199398 51.089197,67.5170975 C50.9249947,67.6871569 51.0856784,67.5170975 50.9249947,67.6941939 C49.2677244,69.5085517 47.4697093,71.790866 46.3038731,74.2913255 L46.3038731,50.8055369 L61.4902392,50.8055369 L61.4902392,54.5362881 L51.089197,54.5362881 L51.089197,64.2484387 C51.089197,64.2484387 57.9716187,57.2724851 67.2079975,57.2724851 C77.959729,57.2724851 84.3120119,65.2875602 84.3120119,69.6363894 C93.1085631,55.4159057 112.460976,58.9343759 112.460976,58.9343759 L113.082599,61.7479792 C110.800187,61.6494621 99.8807348,61.5098961 93.5999971,67.368149 C90.7123826,70.0621243 89.4480249,73.6685563 89.0574581,77.8707825 C88.9155404,78.8453988 88.4675027,84.5722954 92.8833714,89.2190217 C96.6365666,93.169091 102.808227,95.154681 111.288102,95.154681 C113.7441,95.154681 116.404177,94.9799303 119.244876,94.6456756 L117.445688,98.7833966 C88.2704599,103.007906 84.3120119,85.3229024 84.3120119,85.3229024 C84.3120119,85.3229024 80.7933913,94.065128 78.4476443,98.7833966 L78.4476443,98.7833966 Z M89.4714824,111.207115 C89.614573,111.615257 89.80927,111.958895 90.0555734,112.238027 C90.3018768,112.517159 90.5892309,112.72944 90.9176354,112.87487 C91.24604,113.0203 91.5979021,113.093015 91.9732216,113.093015 C92.1890303,113.093015 92.3860731,113.082459 92.5643498,113.061349 C92.7426266,113.040238 92.9080018,113.00388 93.0604753,112.952276 C93.2129489,112.900672 93.3583852,112.833821 93.4967843,112.751723 C93.6351833,112.669626 93.7747553,112.56759 93.9155001,112.445616 C93.971798,112.398703 94.0327875,112.36 94.0984684,112.329507 C94.1641493,112.299013 94.232176,112.283767 94.3025484,112.283767 C94.3588463,112.283767 94.4151442,112.294322 94.4714421,112.315433 C94.5277401,112.336544 94.5816923,112.372901 94.6332987,112.424506 L95.576289,113.416714 C95.1634375,113.956213 94.6462003,114.363183 94.0245773,114.637623 C93.4029544,114.912064 92.6675627,115.049284 91.8184023,115.049284 C91.0396143,115.049284 90.3417545,114.916755 89.7248231,114.651697 C89.1078916,114.386639 88.58479,114.020718 88.1555183,113.553934 C87.7262466,113.087151 87.3966692,112.533578 87.166786,111.893217 C86.9369028,111.252855 86.8219612,110.557371 86.8219612,109.806764 C86.8219612,109.042083 86.953323,108.339562 87.2160467,107.6992 C87.4787703,107.058838 87.8458797,106.506439 88.3173749,106.042001 C88.78887,105.577563 89.3530222,105.216333 90.0098313,104.958312 C90.6666405,104.700291 91.3914763,104.57128 92.1843388,104.57128 C92.5690413,104.57128 92.9314592,104.605292 93.2715926,104.673316 C93.6117259,104.741339 93.9295746,104.835165 94.2251387,104.954793 C94.5207028,105.074421 94.7928095,105.217506 95.0414587,105.384047 C95.2901079,105.550588 95.5106081,105.734721 95.7029593,105.936446 L94.9007139,107.013098 C94.8491074,107.078776 94.788118,107.13859 94.7177456,107.19254 C94.6473732,107.24649 94.5488518,107.273465 94.4221815,107.273465 C94.3377346,107.273465 94.2579792,107.2547 94.1829153,107.21717 C94.1078514,107.179639 94.028096,107.133899 93.9436491,107.079949 C93.8592022,107.025999 93.7665452,106.967358 93.6656781,106.904026 C93.5648109,106.840693 93.4451778,106.782052 93.3067788,106.728102 C93.1683797,106.674152 93.0065231,106.628412 92.8212091,106.590882 C92.6358951,106.553352 92.4189135,106.534586 92.1702643,106.534586 C91.7386469,106.534586 91.3445614,106.61082 90.9880078,106.763287 C90.6314543,106.915754 90.3253343,107.133899 90.0696479,107.417722 C89.8139615,107.701546 89.614573,108.045183 89.4714824,108.448634 C89.3283918,108.852085 89.2568465,109.304795 89.2568465,109.806764 C89.2568465,110.332189 89.3283918,110.798972 89.4714824,111.207115 L89.4714824,111.207115 Z M101.037188,109.342326 C101.017249,109.440843 100.98089,109.510039 100.924592,109.549915 C100.867121,109.589791 100.79323,109.609729 100.698228,109.609729 C100.619645,109.609729 100.524642,109.599174 100.417911,109.578063 C100.308834,109.556952 100.173953,109.546397 100.009751,109.546397 C99.4373886,109.546397 98.9870051,109.851331 98.6586006,110.461199 L98.6586006,114.936693 L96.4770558,114.936693 L96.4770558,107.639386 L97.7719082,107.639386 C97.8798126,107.639386 97.9701238,107.648769 98.042842,107.667534 C98.1155601,107.686299 98.1765495,107.71562 98.2258102,107.755496 C98.2750709,107.795372 98.3126029,107.848149 98.3384061,107.913827 C98.3642093,107.979505 98.3864939,108.059257 98.404087,108.153083 L98.5237201,108.835666 C98.7923081,108.422832 99.0913909,108.096787 99.4256598,107.857531 C99.7587559,107.618275 100.122347,107.498647 100.516432,107.498647 C100.848355,107.498647 101.115771,107.578399 101.318678,107.737903 L101.037188,109.342326 L101.037188,109.342326 Z M102.177221,107.639386 L104.358766,107.639386 L104.358766,114.936693 L102.177221,114.936693 L102.177221,107.639386 Z M104.506548,106.129962 C104.436175,106.282429 104.34,106.416131 104.218021,106.531068 C104.096042,106.646005 103.954124,106.737485 103.792268,106.805509 C103.630411,106.873532 103.457999,106.907544 103.275031,106.907544 C103.096754,106.907544 102.930206,106.873532 102.775387,106.805509 C102.620567,106.737485 102.483341,106.646005 102.363708,106.531068 C102.244075,106.416131 102.150245,106.282429 102.082218,106.129962 C102.014192,105.977495 101.980178,105.814473 101.980178,105.640895 C101.980178,105.462626 102.014192,105.296085 102.082218,105.141272 C102.150245,104.98646 102.244075,104.850412 102.363708,104.73313 C102.483341,104.615847 102.620567,104.524367 102.775387,104.458689 C102.930206,104.393011 103.096754,104.360172 103.275031,104.360172 C103.457999,104.360172 103.630411,104.393011 103.792268,104.458689 C103.954124,104.524367 104.096042,104.615847 104.218021,104.73313 C104.34,104.850412 104.436175,104.98646 104.506548,105.141272 C104.57692,105.296085 104.612106,105.462626 104.612106,105.640895 C104.612106,105.814473 104.57692,105.977495 104.506548,106.129962 L104.506548,106.129962 Z M110.734506,113.56449 C110.603144,113.869424 110.407274,114.132136 110.146897,114.352627 C109.886519,114.573118 109.563978,114.74435 109.181622,114.866324 C108.800438,114.988298 108.36061,115.049284 107.862139,115.049284 C107.61349,115.049284 107.364841,115.025828 107.117364,114.978915 C106.868715,114.932002 106.628276,114.86867 106.394874,114.788918 C106.163818,114.709166 105.948009,114.614167 105.75214,114.503921 C105.555097,114.393676 105.38503,114.275221 105.244285,114.148556 L105.75214,113.346345 C105.811956,113.252519 105.885847,113.178631 105.970294,113.124681 C106.053568,113.070731 106.164991,113.043756 106.301044,113.043756 C106.427715,113.043756 106.540311,113.071904 106.642351,113.1282 C106.743218,113.184495 106.852295,113.245482 106.969582,113.31116 C107.08687,113.376838 107.222923,113.437825 107.381261,113.49412 C107.537253,113.550416 107.735469,113.578564 107.974735,113.578564 C108.144801,113.578564 108.287892,113.560971 108.405179,113.525787 C108.521294,113.490602 108.615124,113.442516 108.685496,113.381529 C108.757041,113.320543 108.807475,113.252519 108.841488,113.177458 C108.874329,113.102397 108.890749,113.024991 108.890749,112.945239 C108.890749,112.799809 108.841488,112.680181 108.741794,112.586355 C108.643273,112.492529 108.515429,112.411604 108.355919,112.343581 C108.196408,112.275557 108.014613,112.212225 107.80936,112.153583 C107.606453,112.094942 107.397681,112.028091 107.187737,111.953031 C106.975447,111.87797 106.769021,111.787662 106.563768,111.682108 C106.360861,111.576554 106.177893,111.442852 106.019555,111.281003 C105.858871,111.119153 105.731028,110.920946 105.631334,110.686381 C105.532812,110.451817 105.483551,110.167993 105.483551,109.834911 C105.483551,109.525286 105.544541,109.230907 105.663001,108.951775 C105.782634,108.672643 105.963257,108.427523 106.202523,108.216415 C106.440616,108.005307 106.740872,107.837593 107.102117,107.713274 C107.464535,107.588955 107.885596,107.526795 108.369993,107.526795 C108.632717,107.526795 108.886058,107.550251 109.132361,107.597164 C109.379837,107.644077 109.610893,107.709755 109.826702,107.794199 C110.042511,107.878642 110.239554,107.978332 110.41783,108.093269 C110.594934,108.208205 110.753272,108.333698 110.888153,108.469745 L110.396719,109.236772 C110.340421,109.325906 110.279431,109.389239 110.217269,109.426769 C110.152761,109.464299 110.073006,109.483064 109.974484,109.483064 C109.871271,109.483064 109.766886,109.460781 109.663673,109.416214 C109.561633,109.371646 109.449037,109.32356 109.330577,109.271956 C109.210943,109.220352 109.076063,109.172266 108.925935,109.127699 C108.775807,109.083132 108.604568,109.060848 108.412217,109.060848 C108.134246,109.060848 107.923128,109.113625 107.775346,109.219179 C107.627564,109.324733 107.553673,109.471336 107.553673,109.658988 C107.553673,109.795035 107.601761,109.907627 107.697937,109.996761 C107.794112,110.085896 107.921955,110.164475 108.080293,110.232499 C108.240977,110.300522 108.420427,110.365028 108.623334,110.426014 C108.825068,110.487001 109.030321,110.555025 109.242611,110.630086 C109.453728,110.705146 109.660154,110.793108 109.860715,110.893971 C110.06245,110.994834 110.244245,111.119153 110.402583,111.266929 C110.563267,111.414705 110.689937,111.594147 110.786113,111.805255 C110.883461,112.016363 110.931549,112.269693 110.931549,112.565244 C110.931549,112.926474 110.864695,113.259556 110.734506,113.56449 L110.734506,113.56449 Z M115.59724,114.890953 C115.245378,114.996507 114.881787,115.049284 114.505294,115.049284 C114.158124,115.049284 113.853177,114.998853 113.588107,114.89799 C113.323038,114.797127 113.100192,114.654043 112.918397,114.468737 C112.738947,114.283431 112.600548,114.059421 112.507891,113.796709 C112.414061,113.533996 112.367146,113.240791 112.367146,112.917091 L112.367146,109.145291 L111.746696,109.145291 C111.635273,109.145291 111.539097,109.108934 111.459342,109.036219 C111.378414,108.963504 111.339709,108.856777 111.339709,108.716038 L111.339709,107.864568 L112.499681,107.639386 L112.930125,105.85904 C112.98525,105.633858 113.145934,105.521267 113.407485,105.521267 L114.548691,105.521267 L114.548691,107.65346 L116.322076,107.65346 L116.322076,109.145291 L114.548691,109.145291 L114.548691,112.769316 C114.548691,112.938202 114.589741,113.077768 114.671843,113.188014 C114.752771,113.298259 114.871231,113.353382 115.027223,113.353382 C115.106979,113.353382 115.173832,113.345172 115.227785,113.328752 C115.281737,113.312333 115.328652,113.293568 115.368529,113.272457 C115.407234,113.251346 115.445939,113.232581 115.481125,113.216161 C115.516311,113.199742 115.556189,113.191532 115.604277,113.191532 C115.669958,113.191532 115.721564,113.206779 115.762615,113.237272 C115.80132,113.267766 115.843543,113.315851 115.885767,113.381529 L116.547267,114.41596 C116.264605,114.627068 115.947929,114.785399 115.59724,114.890953 L115.59724,114.890953 Z M124.087671,112.843204 C123.907048,113.309987 123.653708,113.706402 123.326476,114.032446 C123.00159,114.358491 122.611023,114.609476 122.155948,114.785399 C121.700873,114.961323 121.195365,115.049284 120.642942,115.049284 C120.084654,115.049284 119.5768,114.961323 119.118206,114.785399 C118.661958,114.609476 118.2667,114.358491 117.937122,114.032446 C117.606372,113.706402 117.350686,113.309987 117.16889,112.843204 C116.989441,112.37642 116.897956,111.852168 116.897956,111.270447 C116.897956,110.693418 116.989441,110.173857 117.16889,109.711765 C117.350686,109.249673 117.606372,108.856777 117.937122,108.533078 C118.2667,108.209378 118.661958,107.96074 119.118206,107.787162 C119.5768,107.613584 120.084654,107.526795 120.642942,107.526795 C121.195365,107.526795 121.700873,107.613584 122.155948,107.787162 C122.611023,107.96074 123.00159,108.209378 123.326476,108.533078 C123.653708,108.856777 123.907048,109.249673 124.087671,109.711765 C124.268294,110.173857 124.358605,110.693418 124.358605,111.270447 C124.358605,111.852168 124.268294,112.37642 124.087671,112.843204 L124.087671,112.843204 Z" id="Fill-8"></path>
                <polyline id="Fill-9" points="43.3947508 54.5362881 43.3947508 50.8055369 43.3947508 54.5362881"></polyline>
            </g>
        </g>
    </g>
</svg>