<?xml version="1.0" encoding="UTF-8" standalone="no"?>
<svg width="90px" height="95px" viewBox="0 0 90 95" version="1.1" xmlns="http://www.w3.org/2000/svg" xmlns:xlink="http://www.w3.org/1999/xlink">
    <!-- Generator: Sketch 39.1 (31720) - http://www.bohemiancoding.com/sketch -->
    <title>Artboard 2</title>
    <desc>Created with Sketch.</desc>
    <defs>
        <polygon id="path-1" points="41.545463 73.1952222 41.0748148 72.0178148 35.9323148 74.1491111 28.1390741 70.2501296 28.1784259 70.2501296 27.7455556 48.9938333 43.7302778 40.7913333 42.8550926 39.0519815 38.655463 41.1864259 40.0611111 37.9060556 38.8947222 37.4070741 36.8830556 42.0789259 27.7014815 46.7680926 27.4024074 32.2142037 32.5590741 29.5807778 35.4286111 30.8132778 35.7387037 30.0860556 33.4736111 29.1132778 37.1128704 27.2527222 36.5367593 26.120963 34.1362963 27.3503148 35.044537 25.2410556 34.3173148 24.9293889 33.0344444 27.9091111 27.3756481 31.0210556 27.0592593 16.0106852 25.820463 16.0106852 25.0050926 16.0106852 24.7894444 23.3568889 19.2612963 20.427537 18.8677778 21.1437407 24.7626852 24.1266111 24.4966667 33.5978148 20.210463 31.3988333 19.0550926 28.4993889 18.3215741 28.7937407 19.1416667 30.8494815 15.4032407 28.9369815 14.8239815 30.0687407 24.4541667 34.9877222 24.2038889 43.9253148 14.3061111 38.8693889 12.4313889 34.1629074 11.2508333 34.6319815 12.5903704 37.9973519 8.78583333 36.0517963 7.9075 37.7722593 13.9062963 40.8306852 9.79638889 42.4692963 10.265463 43.6498519 15.4111111 41.6004074 24.1409259 46.0581852 23.4640741 69.9526296 15.4111111 74.0672593 10.265463 72.0178148 9.79638889 73.1952222 13.9062963 74.8322593 7.9075 77.8954074 8.78583333 79.6111481 12.5903704 77.6718889 11.2508333 81.0341111 12.4313889 81.5063333 14.3061111 76.7967037 20.3033333 73.7367037 18.5262037 79.2270741 15.6267593 80.3824444 15.919537 81.117537 18.2098148 80.2045741 16.9521296 84.0941111 18.1610185 84.4844815 18.9889815 81.9187407 19.8405556 84.0516111 20.5725 83.7588333 19.3714815 80.7444815 21.9041667 72.9181852 24.4274074 71.6337407 25.2018519 82.3232778 26.4674074 82.2335556 26.2737963 79.543463 27.862037 81.1993889 28.4334259 80.6531852 26.1856481 78.310963 25.6583333 71.0056852 25.820463 70.7506852 28.1862963 71.8005926 28.1831481 71.8005926 31.7169444 79.4820741 30.8590741 82.5656852 31.6177778 82.8269815 32.2285185 80.7208704 34.0166667 84.5301296 35.1641667 83.9917963 30.0421296 73.1117963 37.0074074 76.7305926 38.912037 81.5047593 40.0925926 81.0341111 38.7325926 77.6278148 42.5528704 79.6111481 43.4327778 77.8954074 37.4355556 74.8322593"></polygon>
        <mask id="mask-2" maskContentUnits="userSpaceOnUse" maskUnits="objectBoundingBox" x="-2" y="-2" width="39.8227778" height="72.5194444">
            <rect x="5.9075" y="14.0106852" width="39.8227778" height="72.5194444" fill="white"></rect>
            <use xlink:href="#path-1" fill="black"></use>
        </mask>
    </defs>
    <g id="Page-1" stroke="none" stroke-width="1" fill="none" fill-rule="evenodd">
        <g id="Artboard-2">
            <g id="Group-15-Copy" transform="translate(1.000000, 1.000000)">
                <circle id="Oval-2-Copy" fill="#54ACC1" cx="44.3333333" cy="44" r="44"></circle>
                <g id="Group-8" transform="translate(18.333333, 8.000000)">
                    <path d="M47.2330763,31.5594912 C48.4717123,29.7617486 49.2011313,27.5872542 49.2011313,25.2424474 C49.2011313,19.0974364 44.2207823,14.1136467 38.0774916,14.1136467 C37.5080631,14.1136467 36.9489566,14.1755785 36.3984517,14.2581543 C36.6651025,13.301652 36.8388556,12.2987009 36.8388556,11.2579025 C36.8388556,5.12321352 32.5294344,0.14630513 25.7547834,0.132542507 L25.7547834,0.129101852 C25.7547834,0.129101852 25.7599444,0.13082218 25.7565037,0.13082218 C25.7513428,0.13082218 25.7547834,0.129101852 25.7547834,0.129101852 L25.7547834,0.132542507 C18.9784121,0.14630513 14.6242624,5.12321352 14.6242624,11.2579025 C14.6242624,12.252252 14.7515667,13.2087543 14.9941329,14.120528 C8.60999634,14.2822388 3.47481779,19.4999931 3.47481779,25.9219769 C3.47481779,27.8091765 3.9203827,29.5965971 4.70829284,31.1827394 C2.07619127,33.2161669 0.37650738,36.3953327 0.37650738,39.9787755 C0.37650738,46.1203459 5.35685643,51.1006949 11.5018674,51.1006949 C12.6630887,51.1006949 13.3667028,50.9235011 14.4195434,50.5931982 C16.6989778,54.7391883 20.672935,57.5484836 25.7547834,57.5588056 L25.7547834,57.1631302 L26.5960237,57.1631302 L27.447586,57.1631302 L27.447586,57.5588056 C30.8349115,57.5519242 35.7223628,55.2105581 38.1325421,51.6494795 C39.6464306,52.4219067 41.1482768,52.8691919 42.964943,52.8691919 C49.1082336,52.8691919 53.985363,47.8854022 53.985363,41.7403912 C53.985363,37.1884038 51.1451018,33.2815393 47.2330763,31.5594912" id="Fill-5" stroke="#FFFFFF" stroke-width="2"></path>
                    <g id="Fill-7">
                        <use fill="#E75663" fill-rule="evenodd" xlink:href="#path-1"></use>
                        <use stroke="#FFFFFF" mask="url(#mask-2)" stroke-width="4" xlink:href="#path-1"></use>
                    </g>
                </g>
            </g>
        </g>
    </g>
</svg>