<?xml version="1.0" encoding="UTF-8" standalone="no"?>
<svg width="90px" height="95px" viewBox="0 0 90 95" version="1.1" xmlns="http://www.w3.org/2000/svg" xmlns:xlink="http://www.w3.org/1999/xlink">
    <!-- Generator: Sketch 39.1 (31720) - http://www.bohemiancoding.com/sketch -->
    <title>Artboard 2</title>
    <desc>Created with Sketch.</desc>
    <defs></defs>
    <g id="Page-1" stroke="none" stroke-width="1" fill="none" fill-rule="evenodd">
        <g id="Artboard-2">
            <g id="Group-20-Copy" transform="translate(1.000000, 4.000000)">
                <circle id="Oval-2-Copy-2" fill="#54ACC1" cx="44.6666667" cy="44" r="44"></circle>
                <g id="Group-14" transform="translate(13.321222, 11.000000)" stroke="#FFFFFF" stroke-width="2">
                    <g id="Page-1" transform="translate(0.000000, 2.000000)">
                        <path d="M52.9203,9.081 C65.0273,21.186 65.0273,40.813 52.9203,52.919 C40.8143,65.027 21.1863,65.027 9.0803,52.919 C-3.0267,40.814 -3.0267,21.187 9.0803,9.081 C21.1863,-3.027 40.8133,-3.027 52.9203,9.081 L52.9203,9.081 Z" id="Stroke-1"></path>
                        <path d="M31.0003,8.001 C43.7023,8.001 53.9993,18.298 53.9993,31 C53.9993,43.702 43.7023,53.999 31.0003,53.999 C18.2983,53.999 8.0013,43.702 8.0013,31 C8.0013,18.298 18.2983,8.001 31.0003,8.001 L31.0003,8.001 Z" id="Stroke-3"></path>
                        <path d="M31.0003,16 C39.2843,16 46.0003,22.716 46.0003,31 C46.0003,39.284 39.2843,46 31.0003,46 C22.7163,46 16.0003,39.284 16.0003,31 C16.0003,22.716 22.7163,16 31.0003,16 L31.0003,16 Z" id="Stroke-5"></path>
                        <path d="M31.0003,24.001 C34.8653,24.001 37.9993,27.135 37.9993,31 C37.9993,34.865 34.8653,37.999 31.0003,37.999 C27.1353,37.999 24.0013,34.865 24.0013,31 C24.0013,27.135 27.1353,24.001 31.0003,24.001 L31.0003,24.001 Z" id="Stroke-7"></path>
                    </g>
                    <g id="Group-9" transform="translate(30.000000, 0.000000)">
                        <path d="M1.8852358,34.7384123 C1.31128458,34.7384123 0.746357749,34.4758448 0.378162627,33.9814934 C-0.248130055,33.1467096 -0.0784715189,31.9606285 0.753577262,31.334088 L32.5717724,7.37887178 C33.4020163,6.75052043 34.5842114,6.92254746 35.2068943,7.75552043 C35.833187,8.59211503 35.6617236,9.77457449 34.8296748,10.4029258 L3.01328458,34.3581421 C2.67757726,34.6152772 2.27869921,34.7384123 1.8852358,34.7384123" id="Fill-87" fill="#7ACCDF"></path>
                        <polygon id="Fill-83" fill="#E75663" points="33.2332683 8.77881081 33.2332683 0 19 10.3071351 19 19.0207568"></polygon>
                        <polygon id="Fill-85" fill="#F29799" points="28.4450244 21.6865405 20 19.3741351 33.4734146 9 41.8516585 11.2942973"></polygon>
                    </g>
                </g>
            </g>
        </g>
    </g>
</svg>