<?xml version="1.0" encoding="UTF-8" standalone="no"?>
<svg width="90px" height="95px" viewBox="0 0 90 95" version="1.1" xmlns="http://www.w3.org/2000/svg" xmlns:xlink="http://www.w3.org/1999/xlink">
    <!-- Generator: Sketch 39.1 (31720) - http://www.bohemiancoding.com/sketch -->
    <title>Artboard 2</title>
    <desc>Created with Sketch.</desc>
    <defs></defs>
    <g id="Page-1" stroke="none" stroke-width="1" fill="none" fill-rule="evenodd">
        <g id="Artboard-2">
            <g id="Group-21-Copy" transform="translate(1.000000, 4.000000)">
                <circle id="Oval-2-Copy-3" fill="#54ACC1" cx="44" cy="44" r="44"></circle>
                <g id="Group-11" transform="translate(15.000000, 18.000000)" stroke="#FFFFFF">
                    <path d="M7.58768684,38.2486531 C7.57773947,38.2486531 7.56779211,38.2486531 7.56116053,38.2453406 C7.32573947,38.2354031 7.13839737,38.0283719 7.15331842,37.7931844 L8.90737105,5.94018437 C8.92395,5.70168437 9.13781842,5.51618437 9.36329211,5.53109062 C9.60202895,5.54434062 9.78439737,5.74805937 9.77445,5.98655937 L8.01542368,37.8412156 C8.00547632,38.0697781 7.81481842,38.2486531 7.58768684,38.2486531" id="Fill-27" fill="#FFFFFF"></path>
                    <path d="M41.7776211,11.4930937 C41.7610421,11.4930937 41.7394895,11.4897812 41.7129632,11.4848125 L9.27459474,6.38853125 C9.03751579,6.35209375 8.87504211,6.13346875 8.91317368,5.896625 C8.94964737,5.6614375 9.17014737,5.499125 9.40722632,5.53390625 L41.8489105,10.6318437 C42.0859895,10.6699375 42.2468053,10.891875 42.2053579,11.1270625 C42.1755158,11.3407187 41.9881737,11.4930937 41.7776211,11.4930937" id="Fill-29" fill="#FFFFFF"></path>
                    <path d="M58.4374737,28.53425 C58.3247368,28.53425 58.2103421,28.4895313 58.1274474,28.40175 L41.4705789,11.3605938 C41.3047895,11.1883438 41.3047895,10.9134063 41.4772105,10.7494375 C41.6479737,10.5838125 41.9198684,10.5904375 42.0889737,10.759375 L58.7458421,27.7972188 C58.9132895,27.9694688 58.9066579,28.24275 58.7392105,28.4100313 C58.6579737,28.4928438 58.5452368,28.53425 58.4374737,28.53425" id="Fill-31" fill="#FFFFFF"></path>
                    <path d="M47.9169711,45.9702563 C47.83905,45.9702563 47.7644447,45.9503813 47.6931553,45.9106313 C47.4892342,45.7864125 47.4245763,45.5214125 47.5472605,45.3176938 L58.0682605,27.8790375 C58.1909447,27.6736625 58.4595237,27.6123813 58.6617868,27.7316313 C58.8657079,27.8525375 58.9303658,28.1175375 58.8060237,28.3245688 L48.2866816,45.763225 C48.2054447,45.8973813 48.0628658,45.9702563 47.9169711,45.9702563" id="Fill-33" fill="#FFFFFF"></path>
                    <path d="M47.9202868,45.9702562 C47.8904447,45.9702562 47.8622605,45.9669437 47.8357342,45.9603187 L7.50578684,38.2388812 C7.26870789,38.1941625 7.11783947,37.9672562 7.15928684,37.733725 C7.20902368,37.4985375 7.43781316,37.34285 7.66660263,37.3908812 L47.9982079,45.113975 C48.2303132,45.1586937 48.3861553,45.3839437 48.3413921,45.6207875 C48.3032605,45.8261625 48.1242079,45.9702562 47.9202868,45.9702562" id="Fill-35" fill="#FFFFFF"></path>
                    <path d="M7.58768684,38.2486531 C7.45671316,38.2486531 7.32905526,38.1906844 7.24616053,38.0813719 C7.10026579,37.8942156 7.13176579,37.6209344 7.31910789,37.4735281 L41.5115289,10.7201219 C41.7005289,10.5710594 41.9724237,10.6074969 42.1183184,10.7946531 C42.2625553,10.9801531 42.2310553,11.2517781 42.0470289,11.3991844 L7.85129211,38.1509344 C7.77502895,38.2155281 7.67721316,38.2486531 7.58768684,38.2486531" id="Fill-37" fill="#FFFFFF"></path>
                    <path d="M31.3388526,31.4003906 C31.2675632,31.4003906 31.2012474,31.3838281 31.1382474,31.3490469 C30.9276947,31.2380781 30.8431421,30.9780469 30.9558789,30.7660469 L41.3923263,10.8579219 C41.5050632,10.6459219 41.7719842,10.5680781 41.9825368,10.6757344 C42.1914316,10.7883594 42.2693526,11.0483906 42.1632474,11.2587344 L31.7218263,31.1668594 C31.6455632,31.3159219 31.4913789,31.4003906 31.3388526,31.4003906" id="Fill-39" fill="#FFFFFF"></path>
                    <path d="M31.3388526,31.4003906 C31.2178263,31.4003906 31.1001158,31.3490469 31.0139053,31.2513281 L9.0153,6.25189063 C8.85945789,6.07135938 8.87437895,5.79973438 9.05508947,5.64073438 C9.2358,5.48339063 9.50603684,5.50160938 9.66685263,5.68379688 L31.6604842,30.6815781 C31.8196421,30.8604531 31.7997474,31.1353906 31.6223526,31.2927344 C31.5427737,31.3622969 31.4416421,31.4003906 31.3388526,31.4003906" id="Fill-41" fill="#FFFFFF"></path>
                    <path d="M58.4374737,28.53425 C58.3761316,28.53425 58.3181053,28.521 58.2600789,28.4928437 L9.16318421,6.35540625 C8.946,6.25934375 8.84984211,6.00096875 8.94931579,5.7873125 C9.04878947,5.57034375 9.30244737,5.472625 9.51963158,5.57034375 L58.6165263,27.706125 C58.8320526,27.8038437 58.9265526,28.0605625 58.8287368,28.2775312 C58.7574474,28.4365312 58.5999474,28.53425 58.4374737,28.53425" id="Fill-43" fill="#FFFFFF"></path>
                    <path d="M31.3357026,31.4003906 C31.1185184,31.4003906 30.9344921,31.2347656 30.9079658,31.0128281 C30.8830974,30.7759844 31.0538605,30.5623281 31.2942553,30.5374844 L58.3925447,27.6705156 C58.62465,27.6473281 58.8418342,27.8162656 58.8683605,28.0531094 C58.8932289,28.2899531 58.7158342,28.5019531 58.4837289,28.5317656 L31.3821237,31.3970781 C31.3705184,31.3970781 31.3555974,31.4003906 31.3357026,31.4003906" id="Fill-45" fill="#FFFFFF"></path>
                    <path d="M7.58437105,38.2486531 C7.40034474,38.2486531 7.22295,38.1227781 7.16989737,37.9356219 C7.10358158,37.7054031 7.23621316,37.4635906 7.46666053,37.4006531 L31.2176605,30.5537156 C31.4447921,30.4858094 31.6851868,30.6183094 31.7531605,30.8452156 C31.8194763,31.0770906 31.6885026,31.3155906 31.4597132,31.3834969 L7.70539737,38.2287781 C7.66726579,38.2420281 7.62416053,38.2486531 7.58437105,38.2486531" id="Fill-47" fill="#FFFFFF"></path>
                    <path d="M47.9202868,45.9702563 C47.8174974,45.9702563 47.7163658,45.935475 47.6318132,45.8642563 L31.0545237,31.2925688 C30.8721553,31.135225 30.8572342,30.8602875 31.0163921,30.6830688 C31.1722342,30.5008813 31.4441289,30.4843188 31.6215237,30.644975 L48.2021289,45.2166625 C48.3828395,45.37235 48.3994184,45.643975 48.2402605,45.8245063 C48.1573658,45.9205688 48.0363395,45.9702563 47.9202868,45.9702563" id="Fill-49" fill="#FFFFFF"></path>
                    <path d="M47.9169711,45.9702562 C47.71305,45.9702562 47.5290237,45.8245062 47.49255,45.6141625 L41.3533658,10.6755687 C41.3119184,10.4436937 41.4661026,10.2184437 41.7031816,10.1770375 C41.9303132,10.1256937 42.1624184,10.2896625 42.2022079,10.5298187 L48.3447079,45.4617875 C48.3828395,45.6986312 48.2269974,45.9205687 47.9915763,45.9636312 C47.9683658,45.9669437 47.9434974,45.9702562 47.9169711,45.9702562" id="Fill-51" fill="#FFFFFF"></path>
                    <path d="M9.34107632,0.09345625 C6.09160263,0.09345625 3.46218158,2.72026875 3.46218158,5.9648625 C3.46218158,9.20614375 6.09160263,11.8395813 9.34107632,11.8395813 C12.5855763,11.8395813 15.2199711,9.20614375 15.2199711,5.9648625 C15.2199711,2.72026875 12.5855763,0.09345625 9.34107632,0.09345625" id="Fill-53" stroke-width="2" fill="#E75663"></path>
                    <path d="M42.4187289,1.7076375 C37.9407553,1.7076375 34.3132816,5.33316875 34.3132816,9.8100125 C34.3132816,14.2852 37.9407553,17.9107313 42.4187289,17.9107313 C46.9033342,17.9107313 50.5341237,14.2852 50.5341237,9.8100125 C50.5341237,5.33316875 46.9033342,1.7076375 42.4187289,1.7076375" id="Fill-55" stroke-width="2" fill="#54ACC1"></path>
                    <path d="M7.58768684,30.5739219 C3.58055526,30.5739219 0.334397368,33.8102344 0.334397368,37.8150469 C0.334397368,41.8165469 3.58055526,45.0578281 7.58768684,45.0578281 C11.5915026,45.0578281 14.8376605,41.8165469 14.8376605,37.8150469 C14.8376605,33.8102344 11.5915026,30.5739219 7.58768684,30.5739219" id="Fill-57" stroke-width="2" fill="#F29799"></path>
                    <path d="M31.3388526,25.3188062 C28.2137211,25.3188062 25.6854316,27.8479 25.6854316,30.9666187 C25.6854316,34.0853375 28.2137211,36.612775 31.3388526,36.612775 C34.4623263,36.612775 36.9922737,34.0853375 36.9922737,30.9666187 C36.9922737,27.8479 34.4623263,25.3188062 31.3388526,25.3188062" id="Fill-59" stroke-width="2" fill="#E75663"></path>
                    <path d="M58.4374737,23.8049937 C56.0633684,23.8049937 54.1402105,25.7279 54.1402105,28.1013062 C54.1402105,30.4730563 56.0633684,32.3959625 58.4374737,32.3959625 C60.8115789,32.3959625 62.7380526,30.4730563 62.7380526,28.1013062 C62.7380526,25.7279 60.8115789,23.8049937 58.4374737,23.8049937" id="Fill-61" stroke-width="2" fill="#E75663"></path>
                    <path d="M47.9202868,40.0488313 C44.8797079,40.0488313 42.4193921,42.5067063 42.4193921,45.5393 C42.4193921,48.5702375 44.8797079,51.0297688 47.9202868,51.0297688 C50.9509184,51.0297688 53.4079184,48.5702375 53.4079184,45.5393 C53.4079184,42.5067063 50.9509184,40.0488313 47.9202868,40.0488313" id="Fill-63" stroke-width="2" fill="#54ACC1"></path>
                </g>
            </g>
        </g>
    </g>
</svg>