<?xml version="1.0" encoding="UTF-8" standalone="no"?>
<svg width="90px" height="95px" viewBox="0 0 90 95" version="1.1" xmlns="http://www.w3.org/2000/svg" xmlns:xlink="http://www.w3.org/1999/xlink">
    <!-- Generator: Sketch 39.1 (31720) - http://www.bohemiancoding.com/sketch -->
    <title>Artboard 2</title>
    <desc>Created with Sketch.</desc>
    <defs></defs>
    <g id="Page-1" stroke="none" stroke-width="1" fill="none" fill-rule="evenodd">
        <g id="Artboard-2">
            <g id="Group-24-Copy" transform="translate(1.000000, 4.000000)">
                <circle id="Oval-2-Copy-5" fill="#54ACC1" cx="44.6666667" cy="44" r="44"></circle>
                <g id="basic_calendar" transform="translate(13.500000, 18.000000)" stroke-width="2" stroke="#FFFFFF">
                    <g id="Group">
                        <path d="M45,4 L17,4" id="Shape"></path>
                        <polyline id="Shape" points="11 4 0 4 0 52 62 52 62 4 51 4"></polyline>
                        <rect id="Rectangle-path" x="11" y="0" width="6" height="8"></rect>
                        <rect id="Rectangle-path" x="45" y="0" width="6" height="8"></rect>
                        <rect id="Rectangle-path" fill="#F29799" x="9" y="18" width="10" height="10"></rect>
                        <rect id="Rectangle-path" x="9" y="36" width="10" height="10"></rect>
                        <rect id="Rectangle-path" x="43" y="18" width="10" height="10"></rect>
                        <rect id="Rectangle-path" x="43" y="36" width="10" height="10"></rect>
                        <rect id="Rectangle-path" x="26" y="18" width="10" height="10"></rect>
                        <rect id="Rectangle-path" fill="#E75663" x="26" y="36" width="10" height="10"></rect>
                    </g>
                    <path d="M0,12 L62,12" id="Shape"></path>
                </g>
            </g>
        </g>
    </g>
</svg>