<?xml version="1.0" encoding="UTF-8" standalone="no"?>
<svg width="90px" height="95px" viewBox="0 0 90 95" version="1.1" xmlns="http://www.w3.org/2000/svg" xmlns:xlink="http://www.w3.org/1999/xlink">
    <!-- Generator: Sketch 39.1 (31720) - http://www.bohemiancoding.com/sketch -->
    <title>Artboard 2</title>
    <desc>Created with Sketch.</desc>
    <defs></defs>
    <g id="Page-1" stroke="none" stroke-width="1" fill="none" fill-rule="evenodd">
        <g id="Artboard-2">
            <g id="Group-25-Copy" transform="translate(1.000000, 4.000000)">
                <circle id="Oval-2-Copy-6" fill="#54ACC1" cx="44" cy="44" r="44"></circle>
                <g id="Page-1" transform="translate(13.000000, 12.000000)">
                    <path d="M15,24 L37,24" id="Stroke-1" stroke="#FFFFFF" stroke-width="2"></path>
                    <path d="M15,34 L37,34" id="Stroke-2" stroke="#FFFFFF" stroke-width="2"></path>
                    <path d="M15,44 L37,44" id="Stroke-3" stroke="#FFFFFF" stroke-width="2"></path>
                    <path d="M15,54 L37,54" id="Stroke-4" stroke="#FFFFFF" stroke-width="2"></path>
                    <path d="M11,24 L7,24" id="Stroke-5" stroke="#FFFFFF" stroke-width="2"></path>
                    <path d="M11,34 L7,34" id="Stroke-6" stroke="#FFFFFF" stroke-width="2"></path>
                    <path d="M11,44 L7,44" id="Stroke-7" stroke="#FFFFFF" stroke-width="2"></path>
                    <path d="M11,54 L7,54" id="Stroke-8" stroke="#FFFFFF" stroke-width="2"></path>
                    <g id="Group-17" transform="translate(0.000000, 0.236100)">
                        <polyline id="Stroke-9" stroke="#FFFFFF" stroke-width="2" points="13 7.7639 0 7.7639 0 62.7639 44 62.7639 44 7.7639 31 7.7639"></polyline>
                        <polygon id="Stroke-11" stroke="#FFFFFF" stroke-width="2" points="26 4.7639 26 0.7639 18 0.7639 18 4.7639 14 4.7639 12 12.7639 32 12.7639 30 4.7639"></polygon>
                        <polygon id="Stroke-13-Copy" fill="#E75663" points="54 10.7639 62 10.7639 62 0.7639 54 0.7639"></polygon>
                        <polygon id="Stroke-13" stroke="#FFFFFF" stroke-width="2" points="54 0.7639 54 53.7639 58 61.7639 62 53.7639 62 0.7639"></polygon>
                        <path d="M54,10.7639 L62,10.7639" id="Stroke-15" stroke="#FFFFFF" stroke-width="2"></path>
                    </g>
                </g>
            </g>
        </g>
    </g>
</svg>